<svg preserveAspectRatio="xMidYMid meet" overflow="visible" style="display: block;" viewBox="0 0 163.4 24.7" fill="none" xmlns="http://www.w3.org/2000/svg">
<g id="logo" clip-path="url(#clip0_0_554)">
<path id="Vector" d="M57.4435 0.00964844H51.6843L45.6067 8.22421L39.5194 0.00964844H33.7217L42.7223 12.0999L33.3647 24.6911H39.1625L45.6067 15.985L52.0412 24.6911H57.8004L48.4815 12.0999" fill="var(--fill-0, #2F3037)"/>
<path id="Vector_2" d="M72.2395 14.3969H84.0088V10.0203H72.2395V4.37688H85.9864V0.00964844H67.416V24.6911H86.1601V20.3239H72.2395" fill="var(--fill-0, #2F3037)"/>
<path id="Vector_3" d="M134.492 0.00964844H129.668V24.7006H134.492V0.00964844Z" fill="var(--fill-0, #2F3037)"/>
<path id="Vector_4" d="M150.699 0.00964844H145.877V24.6911H163.405V20.3239H150.699" fill="var(--fill-0, #2F3037)"/>
<path id="Vector_5" d="M0 24.6815H5.06464L8.91378 17.0814L12.7629 9.50015L18.4547 20.7491L20.4226 24.6721H25.5065L12.7532 0L0 24.6815ZM13.2163 3.73389L13.255 3.80952H13.1777L13.2163 3.73389Z" fill="var(--fill-0, #2F3037)"/>
<path id="Vector_6" d="M111.329 7.60031L107.47 15.1815L101.779 3.9326L99.8107 0.00964844H94.7267L107.49 24.6911L120.253 0.00964844H115.188L111.329 7.60031ZM107.036 20.9572L106.988 20.8816H107.065L107.036 20.9572Z" fill="var(--fill-0, #2F3037)"/>
<path id="Vector_7" d="M158.514 2.77915H158.967V0.415927H159.961V0H157.52V0.415927H158.514" fill="var(--fill-0, #2F3037)"/>
<path id="Vector_8" d="M162.94 0L161.869 1.85277L160.798 0H160.344V2.77915H160.798V0.841307L161.724 2.4483H162.022L162.94 0.841307V2.77915H163.402V0" fill="var(--fill-0, #2F3037)"/>
</g>
<defs>
<clipPath id="clip0_0_554">
<rect width="163.4" height="24.7" fill="white"/>
</clipPath>
</defs>
</svg>
