<svg preserveAspectRatio="xMidYMid meet" overflow="visible" style="display: block;" viewBox="0 0 102.885 32" fill="none" xmlns="http://www.w3.org/2000/svg">
<g id="Frame 2131331331">
<path id="Union" d="M20.8584 8.34766H27.6992L30.8604 17.1826L33.7773 8.34766H40.6543L38.9521 12.5557L31.1396 32H24.123L25.8604 27.8613L25.8594 27.8604L27.3877 24.208L22.5244 12.417C21.8998 10.9113 21.3447 9.55502 20.8584 8.34961V25.7383H14.6064V0.347656H20.8584V8.34766ZM56.0303 7.82617C60.8574 7.82617 63.6014 10.2956 63.6016 15.1309V19.5127C63.6016 20.4515 64.0186 21.1132 65.0596 21.1133C65.5807 21.1133 65.9977 20.9732 66.415 20.626C66.415 24.4176 64.3309 26.2607 61.5176 26.2607C59.8505 26.2607 58.7403 25.635 58.0801 24.4873C57.4193 25.218 55.6842 26.2596 53.5312 26.2598C49.9894 26.2598 47.592 24.1735 47.5918 21.1826C47.592 18.1918 49.8496 16.3125 53.4268 15.6514L57.3506 14.9219C57.2112 14.0529 55.9955 13.252 54.1553 13.252C51.5509 13.252 49.6051 14.0177 48.0771 15.5137C48.0771 10.1574 51.2031 7.8262 56.0303 7.82617ZM94.0205 7.82617C100.238 7.82629 103.051 11.6872 102.877 18.1553H91.6934C92.2836 19.616 94.4711 20.452 97.3193 20.4521C99.6115 20.4521 101.662 19.9651 102.53 19.2686C102.53 23.5818 99.8202 26.2597 94.6797 26.2598C88.6718 26.2596 85.094 22.6081 85.0938 17.2168L85.0947 17.2178C85.0947 11.583 88.6028 7.82639 94.0205 7.82617ZM10.002 0C11.2517 0 12.3083 0.0990725 13.8564 0.347656V5.60059C13.1032 5.30067 12.1897 5.25392 11.4258 5.25391C9.41228 5.25391 8.89085 6.60962 8.89062 7.89648V8.34961H13.0928V13.7412H8.89062V25.7412H2.63965V13.7412H0V8.34766H2.63965V7.65234C2.63965 2.67873 5.38357 0.000115746 10.002 0ZM78.0186 7.82617C82.2899 7.82647 84.3388 10.5744 84.3389 14.5039V25.7383H78.0869V16.4531C78.0869 14.6797 77.2535 13.7745 75.7256 13.7744C74.5445 13.7745 73.6422 14.2972 73.1211 15.3408V25.7402H66.8691V8.34766H73.1211V9.98242C74.0585 8.62574 75.8656 7.82617 78.0186 7.82617ZM46.9395 25.7383H40.6875V0.347656H46.9395V25.7383ZM55.7188 18.6084C54.4338 18.8871 54.1553 19.7218 54.1553 20.3477C54.1553 21.0087 54.6411 21.6686 55.5791 21.6689C56.4125 21.6689 56.899 21.4603 57.3506 20.9043V18.2598L55.7188 18.6084ZM93.9863 11.792C92.3884 11.792 91.5897 12.8349 91.5537 14.4688H96.417C96.4167 12.7654 95.5831 11.7922 93.9863 11.792Z" fill="var(--fill-0, #2F3037)"/>
</g>
</svg>
