<svg preserveAspectRatio="xMidYMid meet" overflow="visible" style="display: block;" viewBox="0 0 78.9997 23.9996" fill="none" xmlns="http://www.w3.org/2000/svg">
<g id="Frame 2131330101">
<path id="Union" d="M18.0332 19.6582C19.1042 19.6582 19.1182 19.6726 19.1182 20.752C19.1182 21.3517 19.0865 21.5726 18.9629 21.8203C18.7639 22.2189 17.1996 23.718 16.8242 23.8701C16.3962 24.0428 8.37158 24.0428 7.94531 23.8701C7.56413 23.7154 5.98427 22.2076 5.7998 21.8223C5.59921 21.4029 5.58661 20.0054 5.78125 19.7969C5.8914 19.6789 6.0353 19.6582 6.74023 19.6592C7.19646 19.6599 7.60888 19.6851 7.65625 19.7158C7.8506 19.8417 7.92185 20.141 7.92188 20.8242C7.92188 21.3783 7.95042 21.5733 8.04492 21.665C8.15386 21.7705 8.65436 21.7842 12.3711 21.7832C14.8758 21.7825 16.6214 21.7528 16.6914 21.71C16.7807 21.6553 16.8178 21.4266 16.8477 20.7559C16.8971 19.6434 16.8819 19.6582 18.0332 19.6582ZM33.3984 19.6006C33.5777 19.4683 35.1029 19.47 35.29 19.6025C35.4075 19.6859 35.4326 19.8103 35.4629 20.4766C35.4867 21.0009 35.5316 21.3041 35.6025 21.4082L35.708 21.5625H43.6729L43.8359 21.4131C43.9871 21.2751 43.999 21.2087 43.999 20.5215C43.999 19.5139 44.0088 19.5049 45.0771 19.5049C46.197 19.5049 46.1865 19.4954 46.1865 20.5244C46.1865 21.1798 46.1609 21.3811 46.0508 21.6006C45.9404 21.8205 44.4944 23.2658 44.0488 23.6016C43.9607 23.6679 42.9801 23.6875 39.6992 23.6875H35.4639L35.2725 23.5332C34.7938 23.1467 33.5029 21.8545 33.457 21.7158C33.4294 21.6314 33.377 21.5625 33.3408 21.5625C33.3034 21.5607 33.2754 21.1585 33.2754 20.627C33.2754 19.8171 33.2916 19.6795 33.3984 19.6006ZM2.41406 19.7969C2.59688 19.6009 4.1139 19.591 4.33398 19.7842C4.53586 19.9623 4.54677 21.4322 4.34766 21.6455C4.08634 21.9251 3.17385 21.7948 2.72656 21.4141C2.31647 21.0648 2.13021 20.1013 2.41406 19.7969ZM20.4229 19.7969C20.607 19.6012 22.1218 19.5911 22.3418 19.7842C22.6478 20.0531 22.464 21.0558 22.043 21.4141C21.6072 21.785 20.7315 21.9179 20.4355 21.6582C20.2338 21.4796 20.2238 20.0102 20.4229 19.7969ZM12.3604 5.61523C15.1534 5.61326 16.6773 5.63962 16.8203 5.69238C17.1402 5.81088 18.7986 7.41887 18.9697 7.77637C19.1054 8.06004 19.1146 8.34672 19.1162 12.125C19.1177 15.5712 19.1011 16.2115 19 16.4463C18.822 16.8593 17.3603 18.2729 16.8867 18.4902L16.4951 18.6699H12.4336C9.44013 18.6705 8.28606 18.6461 8.04883 18.5771C7.63964 18.4578 6.05052 16.9931 5.81152 16.5146C5.65626 16.2036 5.65168 16.0703 5.65332 12.1367C5.65496 8.33398 5.66443 8.06108 5.80176 7.77637C5.9635 7.44104 7.50902 5.92657 7.88281 5.7373C8.08732 5.63382 8.66653 5.61789 12.3604 5.61523ZM53.5801 6C57.3239 5.99836 58.4203 6.01656 58.5117 6.08301C58.8683 6.3522 60.271 7.72005 60.4287 7.95215L60.6152 8.22656V16.3174L60.4297 16.5908C60.3277 16.7417 59.8511 17.2386 59.3711 17.6943C58.551 18.473 58.4776 18.5255 58.1533 18.5684C57.7065 18.6273 50.7168 18.6263 50.2109 18.5674C49.8318 18.5231 49.8124 18.5104 48.8857 17.6309C48.2421 17.0199 47.9017 16.6414 47.8066 16.4326C47.6806 16.1555 47.668 15.9682 47.668 14.3672C47.668 12.2033 47.6222 12.3301 48.8232 11.1719C49.5163 10.5035 49.7466 10.324 50.0322 10.2285C50.3491 10.1228 50.7825 10.1111 54.2832 10.1113C58.9368 10.1117 58.4893 10.2188 58.4521 9.11523C58.4152 8.01567 58.9854 8.13095 53.4551 8.1084L48.7891 8.08887L48.6533 7.91797C48.4619 7.67579 48.4516 6.41705 48.6387 6.16699L48.7617 6.00195L53.5801 6ZM45.917 5.99805L46.0498 6.15234C46.1764 6.30003 46.1823 6.52028 46.1846 11.2568L46.1865 16.207L46.0137 16.5234C45.8146 16.8873 44.4286 18.2594 44.0664 18.4512C43.8365 18.5729 43.5994 18.5801 39.6953 18.5801H35.5684L35.2861 18.3984C35.0473 18.2452 33.6404 16.8828 33.3633 16.5361C33.295 16.4507 33.2754 15.4919 33.2754 12.2803V8.13477L33.4336 7.94824C33.8351 7.47684 35.1632 6.21841 35.3047 6.1748C35.3915 6.14799 35.4629 6.09669 35.4629 6.06152C35.4749 6.02271 37.5129 5.99805 40.6895 5.99805H45.917ZM64.2324 5.99805L64.3477 6.2334C64.4517 6.44649 64.4604 7.03609 64.4434 12.4014C64.4257 17.9914 64.4176 18.3416 64.2988 18.457C64.1927 18.5602 64.0464 18.5801 63.3711 18.5801C62.6829 18.5801 62.5495 18.5613 62.4219 18.4492L62.2734 18.3184V12.2939C62.2734 7.61864 62.2924 6.23968 62.3604 6.13379C62.4401 6.00962 62.527 5.99805 63.3408 5.99805H64.2324ZM76.9971 6.15234C77.4757 6.53877 78.7664 7.83087 78.8125 7.96973C78.8401 8.05413 78.8925 8.12305 78.9287 8.12305C79.0371 8.12654 79.015 16.4001 78.9062 16.5361C78.6289 16.8829 77.2222 18.2452 76.9834 18.3984L76.7012 18.5801H72.5391C68.5029 18.5801 68.3693 18.5756 68.1641 18.4434C67.8269 18.2261 66.4764 16.8937 66.2705 16.5752L66.083 16.2852V14.4111C66.083 12.6921 66.0941 12.5143 66.2207 12.2598C66.2965 12.1071 66.7237 11.628 67.1689 11.1953C68.3744 10.0237 67.9282 10.1113 72.6631 10.1113C76.1802 10.1113 76.5619 10.1008 76.6787 9.99805C76.7882 9.90148 76.8067 9.77604 76.8047 9.1582C76.8027 8.55348 76.7808 8.40614 76.6719 8.2793L76.541 8.12695L71.8438 8.1084C67.2451 8.08976 67.1454 8.08624 67.041 7.95215C66.8753 7.73893 66.8844 6.32091 67.0527 6.14062C67.172 6.01371 67.3404 6.00946 71.9912 6.00391L76.8066 5.99805L76.9971 6.15234ZM3.375 5.46191C4.4737 5.45964 4.47715 5.46406 4.47559 6.5166C4.47487 6.95889 4.44858 7.36157 4.41602 7.41113C4.30458 7.58111 3.91796 7.66211 3.22461 7.66211C2.69904 7.66212 2.50174 7.69104 2.4082 7.78125C2.29945 7.88678 2.28516 8.37419 2.28516 11.9902C2.28516 15.606 2.29945 16.0927 2.4082 16.1982C2.50285 16.2898 2.70331 16.3174 3.27441 16.3174C3.97922 16.3174 4.28719 16.3877 4.41699 16.5762C4.44855 16.6231 4.47487 17.025 4.47559 17.4707C4.47707 18.5044 4.46204 18.5195 3.34961 18.5195C2.73077 18.5195 2.50274 18.4882 2.24707 18.3682C1.83608 18.1752 0.291012 16.6593 0.133789 16.2949C-0.0443328 15.8815 -0.0443328 8.09797 0.133789 7.68457C0.294131 7.31436 1.84893 5.78313 2.24609 5.60449C2.48674 5.49637 2.74813 5.4632 3.375 5.46191ZM20.4668 5.5791C20.6757 5.43717 21.8805 5.41471 22.3613 5.54395C22.7485 5.64819 24.3599 7.14475 24.5977 7.62109C24.7503 7.92687 24.7559 8.07977 24.7559 11.9785C24.7559 15.4213 24.7381 16.0595 24.6367 16.2949C24.4777 16.6641 22.9221 18.1958 22.5244 18.375C22.2837 18.4832 22.0225 18.5163 21.3955 18.5176C20.2967 18.5199 20.2924 18.5162 20.2939 17.4639C20.2946 17.0218 20.322 16.6194 20.3545 16.5693C20.4659 16.3994 20.8516 16.3174 21.5449 16.3174C22.0714 16.3174 22.2689 16.2887 22.3623 16.1982C22.471 16.0924 22.4854 15.6067 22.4844 12.0039C22.4837 9.57499 22.4524 7.88233 22.4082 7.81445C22.3519 7.72783 22.1167 7.69111 21.4248 7.66211C20.2777 7.61413 20.293 7.62979 20.293 6.51367C20.293 5.75638 20.3054 5.68867 20.4668 5.5791ZM12.4893 7.75781C9.2537 7.74301 8.31037 7.76001 8.15723 7.83594L7.96094 7.93262L7.94141 12.0615C7.92301 15.8225 7.93217 16.2029 8.05078 16.3301C8.17417 16.4623 8.404 16.4697 12.3848 16.4697C16.3578 16.4697 16.5953 16.4613 16.7178 16.3301C16.835 16.2046 16.8477 15.8024 16.8477 12.1309C16.8477 8.74504 16.8289 8.04674 16.7363 7.92383C16.6291 7.78167 16.481 7.77603 12.4893 7.75781ZM39.7432 8.12598C35.9718 8.12817 35.7721 8.13431 35.6211 8.25684L35.4629 8.38574V12.2891C35.4629 15.9839 35.4697 16.1993 35.5918 16.3066C35.7091 16.4091 36.1023 16.4199 39.7383 16.4199C43.6744 16.4199 43.7589 16.4171 43.8779 16.2822C43.9898 16.1552 43.999 15.839 43.999 12.3145C43.999 8.54395 43.9975 8.48157 43.8535 8.30371L43.707 8.12305L39.7432 8.12598ZM58.1328 12.3857C57.9491 12.2907 50.4063 12.2786 50.166 12.373C49.9016 12.4773 49.8456 12.8929 49.8691 14.5781C49.8888 15.9917 49.9031 16.1442 50.0254 16.2754C50.1589 16.4187 50.184 16.4199 54.165 16.4199H58.1709L58.3164 16.2393C58.4555 16.0674 58.4631 15.9761 58.4609 14.3711C58.4586 12.6015 58.4501 12.55 58.1328 12.3857ZM76.501 12.3789C76.2512 12.2891 68.8032 12.2854 68.5742 12.375C68.2939 12.4849 68.2705 12.6413 68.2705 14.3652C68.2705 15.8069 68.2862 16.0474 68.3916 16.2207L68.5127 16.4199H72.5381C76.4814 16.4199 76.5666 16.4171 76.6855 16.2822C76.7938 16.1594 76.8076 15.9506 76.8066 14.3789C76.806 13.4099 76.7812 12.5803 76.752 12.5332C76.7227 12.4884 76.6094 12.4189 76.501 12.3789ZM3.14844 2.31641C3.52143 2.15959 4.15217 2.16196 4.33398 2.32129C4.45542 2.42781 4.47754 2.56902 4.47754 3.24609C4.47754 4.3182 4.47329 4.32129 3.39453 4.32129C2.38059 4.32129 2.28521 4.26499 2.28516 3.66211C2.28516 3.01796 2.58214 2.55467 3.14844 2.31641ZM8.00879 0.0820312C8.39313 -0.0246896 16.3294 -0.0283096 16.7246 0.078125C16.9537 0.139854 17.2573 0.373901 17.917 0.999023C19.0312 2.05479 19.1182 2.21901 19.1182 3.25781C19.1182 4.31769 19.1135 4.32183 18.0293 4.32031C17.5732 4.31962 17.1585 4.29329 17.1074 4.26172C16.9321 4.15367 16.8477 3.77978 16.8477 3.10742C16.8477 2.59696 16.8179 2.40601 16.7246 2.31543C16.6158 2.2099 16.1163 2.19628 12.3994 2.19727C9.89572 2.19795 8.15057 2.22772 8.0791 2.27051C7.98977 2.3251 7.95178 2.5536 7.92188 3.22461C7.87242 4.33662 7.8884 4.32129 6.7373 4.32129C5.66583 4.32129 5.65137 4.30708 5.65137 3.22754C5.65138 2.62412 5.68331 2.40721 5.80957 2.1543C6.02754 1.71819 7.6613 0.178891 8.00879 0.0820312ZM20.9453 2.19629C21.8265 2.19629 22.4851 2.80803 22.4854 3.62793C22.4854 4.26629 22.3989 4.32129 21.4023 4.32129C20.2966 4.32129 20.293 4.31821 20.293 3.27246C20.293 2.63608 20.3196 2.44558 20.4229 2.33496C20.5156 2.23566 20.6637 2.19633 20.9453 2.19629Z" fill="var(--fill-0, #2F3037)"/>
</g>
</svg>
