<svg preserveAspectRatio="xMidYMid meet" overflow="visible" style="display: block;" viewBox="0 0 132 40" fill="none" xmlns="http://www.w3.org/2000/svg">
<g id="SVG Image 1 (9) 1" clip-path="url(#clip0_0_446)">
<path id="Vector" d="M0 16C0 10.3995 0 7.59921 1.08582 5.46009C2.04094 3.57848 3.56497 2.04867 5.43949 1.08993C7.57053 0 10.3603 0 15.9396 0H23.9094C29.4888 0 32.2785 0 34.4096 1.08993C36.2841 2.04867 37.8081 3.57848 38.7633 5.46009C39.8491 7.59921 39.8491 10.3995 39.8491 16V24C39.8491 29.6005 39.8491 32.4007 38.7633 34.5399C37.8081 36.4215 36.2841 37.9513 34.4096 38.9101C32.2785 40 29.4888 40 23.9094 40H15.9396C10.3603 40 7.57053 40 5.43949 38.9101C3.56497 37.9513 2.04094 36.4215 1.08582 34.5399C0 32.4007 0 29.6005 0 24V16Z" fill="var(--fill-0, #2F3037)"/>
<path id="Vector_2" d="M15.9396 0.3125H23.9094C26.7043 0.3125 28.7816 0.312743 30.4272 0.447704C32.0693 0.582367 33.2539 0.849592 34.2682 1.36837C36.0841 2.29715 37.5606 3.77915 38.4858 5.60197C39.0027 6.62013 39.2689 7.80927 39.4031 9.4575C39.5375 11.1093 39.5377 13.1946 39.5377 16V24C39.5377 26.8054 39.5375 28.8907 39.4031 30.5425C39.2689 32.1908 39.0027 33.3798 38.4858 34.398C37.5606 36.2208 36.0841 37.7028 34.2682 38.6316C33.2539 39.1504 32.0693 39.4177 30.4272 39.5523C28.7816 39.6872 26.7043 39.6875 23.9094 39.6875H15.9396C13.1448 39.6875 11.0674 39.6872 9.42181 39.5523C7.77981 39.4177 6.59515 39.1504 5.58083 38.6316C3.76489 37.7028 2.28848 36.2208 1.36321 34.398C0.846386 33.3798 0.580169 32.1908 0.446015 30.5425C0.311563 28.8907 0.311321 26.8054 0.311321 24V16C0.311321 13.1946 0.311563 11.1093 0.446015 9.4575C0.580169 7.80927 0.846386 6.62013 1.36321 5.60197C2.28848 3.77915 3.76489 2.29715 5.58083 1.36837C6.59515 0.849592 7.77981 0.582367 9.42181 0.447704C11.0674 0.312743 13.1448 0.3125 15.9396 0.3125Z" stroke="var(--stroke-0, white)" stroke-opacity="0.1" stroke-width="0.75"/>
<path id="Vector_3" d="M20.3503 27.9972H20.5194L33.871 14.3668L31.4809 12.0003L19.1388 24.6012H6.00653L5.99162 28.0003H20.3504L20.3503 27.9972Z" fill="var(--fill-0, white)"/>
<path id="Vector_4" d="M24.7487 16.3075L22.395 18.7109L19.1467 15.3994H6.02145L6.03636 12.0003H20.5242L24.7487 16.3075Z" fill="var(--fill-0, white)"/>
<path id="Vector_5" d="M29.6191 21.2933L27.2654 23.6967L31.4799 28.0003L33.8702 25.6338L29.6191 21.2933Z" fill="var(--fill-0, white)"/>
<path id="Vector_6" d="M17.2184 21.7706L17.2036 18.3714H5.99162L5.97671 21.7706H17.2184Z" fill="var(--fill-0, white)"/>
<path id="Union" d="M106.108 15.3467C107.68 15.3467 109.086 15.7157 110.327 16.4531C111.588 17.1702 112.581 18.1636 113.305 19.4336C114.029 20.6832 114.391 22.1171 114.391 23.7354C114.391 25.3537 114.029 26.7982 113.305 28.0684C112.581 29.318 111.588 30.3123 110.327 31.0498C109.086 31.7668 107.68 32.1249 106.108 32.125C104.516 32.125 103.089 31.7667 101.827 31.0498C100.586 30.3123 99.6038 29.318 98.8799 28.0684C98.156 26.7982 97.7939 25.3537 97.7939 23.7354C97.794 22.1171 98.156 20.6832 98.8799 19.4336C99.6038 18.1635 100.586 17.1702 101.827 16.4531C103.089 15.7157 104.516 15.3467 106.108 15.3467ZM65.9824 13.5029H55.6523V19.1875H64.2764V22.3838H55.6523V28.6221H65.9824V31.8174H52.3018V10.3066H65.9824V13.5029ZM73.8066 31.8174H70.6113V9.07812H73.8066V31.8174ZM82.0596 15.6846V31.8174H78.8643V15.6846H82.0596ZM95.1611 15.3467C95.5131 15.3467 95.8447 15.3771 96.1543 15.4385C96.4854 15.5 96.7438 15.5723 96.9297 15.6543L96.0918 19.0957C95.8444 18.9932 95.5645 18.911 95.2549 18.8496C94.9652 18.7676 94.6754 18.7266 94.3857 18.7266C93.8279 18.7266 93.2896 18.8391 92.7725 19.0645C92.276 19.2693 91.832 19.5668 91.4385 19.9561C91.0666 20.3248 90.7665 20.7652 90.5391 21.2773C90.3116 21.7691 90.1982 22.3121 90.1982 22.9062V31.8174H86.9717V15.6846H90.1982V18.7041C90.4149 18.2424 90.6941 17.8091 91.0361 17.4053C91.594 16.7703 92.2247 16.2681 92.9277 15.8994C93.6516 15.5307 94.3966 15.3467 95.1611 15.3467ZM123.932 21.377L127.657 15.6846H131.441L125.689 23.6445L132 31.8174H128.092L123.62 26.0596L119.312 31.8174H115.527L121.79 23.7246L115.497 15.6846H119.529L123.932 21.377ZM106.108 18.2354C105.136 18.2354 104.257 18.481 103.472 18.9727C102.706 19.4438 102.106 20.0996 101.672 20.9395C101.238 21.7589 101.031 22.6907 101.052 23.7354C101.031 24.7801 101.238 25.7225 101.672 26.5625C102.106 27.3819 102.706 28.0376 103.472 28.5293C104.257 29.0005 105.136 29.2363 106.108 29.2363C107.08 29.2363 107.949 29.0005 108.714 28.5293C109.478 28.0376 110.079 27.3819 110.513 26.5625C110.947 25.7226 111.154 24.7801 111.133 23.7354C111.154 22.6702 110.947 21.7276 110.513 20.9082C110.079 20.0685 109.478 19.4125 108.714 18.9414C107.949 18.4704 107.08 18.2354 106.108 18.2354ZM80.415 8.125C81.0975 8.12502 81.6248 8.29919 81.9971 8.64746C82.3692 8.99565 82.5556 9.48718 82.5557 10.1221C82.5557 10.7162 82.3587 11.1977 81.9658 11.5664C81.5936 11.9351 81.0767 12.1201 80.415 12.1201C79.7326 12.1201 79.2053 11.9458 78.833 11.5977C78.4608 11.2493 78.2744 10.7572 78.2744 10.1221C78.2745 9.52815 78.4608 9.04641 78.833 8.67773C79.2259 8.30913 79.7534 8.125 80.415 8.125Z" fill="var(--fill-0, #2F3037)"/>
</g>
<defs>
<clipPath id="clip0_0_446">
<rect width="132" height="40" fill="white"/>
</clipPath>
</defs>
</svg>
