<svg preserveAspectRatio="xMidYMid meet" overflow="visible" style="display: block;" viewBox="0 0 138 40" fill="none" xmlns="http://www.w3.org/2000/svg">
<g id="logo-summer-1 1" clip-path="url(#clip0_0_365)">
<path id="Vector" fill-rule="evenodd" clip-rule="evenodd" d="M21.3377 20.9038C21.8059 20.9038 22.3005 20.8431 22.8216 20.7121L22.9802 23.4425C22.0098 23.8489 21.0922 24.052 20.22 24.052C19.3478 24.052 18.653 23.9514 18.1319 23.7463C17.6127 23.5432 17.2351 23.3096 16.9991 23.0495C16.6423 22.6773 16.463 21.9804 16.463 20.9627C16.463 20.6475 16.5234 20.0608 16.648 19.2063L18.8021 5.09447H22.6045L20.422 19.4304C20.3861 19.6715 20.3672 19.8899 20.3672 20.0854C20.3672 20.2772 20.4126 20.4633 20.5051 20.6399C20.5938 20.8165 20.8713 20.9038 21.3377 20.9038ZM0 23.6894L8.5411 5.09637H12.6606L15.4661 23.6894H11.6392L11.0483 19.2955H5.84511L3.93261 23.6894H0ZM46.53 18.0689C46.8208 18.4886 46.9605 18.8645 46.9605 19.1854C46.9605 20.7899 46.3054 22.0735 44.9914 23.0324C43.9511 23.828 42.5408 24.2267 40.7623 24.2267C39.9505 24.2267 39.1217 24.1413 38.2721 23.9704C37.4131 23.8033 36.8014 23.6115 36.4238 23.3894L37.7718 20.8526C39.0632 21.295 40.2771 21.5133 41.4099 21.5133C42.5408 21.5133 43.1789 21.0956 43.3224 20.2715C43.3394 20.2203 43.3488 20.1576 43.3488 20.0912C43.3488 19.5842 42.739 19.062 41.5175 18.5189C40.9813 18.2645 40.4433 17.9949 39.9033 17.7101C39.3634 17.4214 38.9556 17.0493 38.678 16.5936C38.3967 16.1379 38.2589 15.7505 38.2589 15.4258C38.2589 13.7853 38.897 12.5377 40.1714 11.6738C41.1966 10.9845 42.5653 10.6371 44.2796 10.6371C45.9976 10.6371 47.2871 10.8972 48.148 11.4213L46.8548 13.9353C45.6521 13.5802 44.6534 13.3998 43.8643 13.3998C42.6239 13.3998 41.9499 13.7796 41.8441 14.5429C41.8253 14.6112 41.8158 14.6777 41.8158 14.746C41.8158 15.3404 42.4256 15.8701 43.6471 16.3448C44.2041 16.5442 44.7516 16.7778 45.2915 17.0417C45.8315 17.3018 46.2469 17.6455 46.53 18.0689ZM36.2638 12.4105C36.6962 13.1909 36.9095 14.1441 36.9095 15.2777C36.9095 15.853 36.8548 16.4796 36.749 17.1575C35.9429 21.8722 33.481 24.2324 29.3671 24.2324C28.7045 24.2324 27.9814 24.0824 27.213 23.7767L26.1595 29.8813H22.4006L25.6233 10.8896H28.8517L28.9895 11.9301C30.262 11.0852 31.51 10.6617 32.7333 10.6617C34.4061 10.6617 35.5804 11.2447 36.2638 12.4105ZM33.0044 17.2562C32.555 19.9981 31.2977 21.3614 29.2285 21.3614C28.6734 21.3614 28.1429 21.3064 27.6426 21.1886L28.8263 14.1878C29.6344 13.7682 30.3801 13.5517 31.0598 13.5517C32.4267 13.5517 33.1082 14.3568 33.1082 15.9632C33.1101 16.3505 33.0761 16.7796 33.0044 17.2562ZM7.14062 16.2613L9.99332 8.93953L10.6692 16.2613H7.14062ZM126.761 15.2777C126.761 14.1441 126.547 13.1909 126.113 12.4105C125.433 11.2447 124.255 10.6617 122.586 10.6617C121.365 10.6617 120.115 11.0852 118.839 11.9301L118.705 10.8896H115.471L112.246 29.8813H116.013L117.058 23.7767C117.831 24.0824 118.55 24.2324 119.216 24.2324C123.326 24.2324 125.788 21.8722 126.596 17.1575C126.706 16.4796 126.761 15.853 126.761 15.2777ZM119.082 21.3614C121.149 21.3614 122.405 19.9981 122.854 17.2562C122.928 16.7796 122.962 16.3505 122.962 15.9632C122.962 14.3568 122.28 13.5517 120.913 13.5517C120.233 13.5517 119.486 13.7682 118.676 14.1878L117.492 21.1886C117.996 21.3064 118.527 21.3614 119.082 21.3614ZM112.832 23.4425L112.669 20.7139C112.148 20.845 111.654 20.9057 111.189 20.9057C110.723 20.9057 110.442 20.8184 110.353 20.6418C110.264 20.4652 110.219 20.2791 110.219 20.0873C110.219 19.8918 110.234 19.6734 110.274 19.4323L112.456 5.09637H108.654L106.499 19.2082C106.375 20.0627 106.311 20.6494 106.311 20.9646C106.311 21.9823 106.49 22.6792 106.851 23.0514C107.083 23.3115 107.46 23.545 107.98 23.7482C108.503 23.9533 109.199 24.0539 110.068 24.0539C110.942 24.052 111.861 23.8489 112.832 23.4425ZM89.8477 23.6894L98.3888 5.09637H102.516L105.318 23.6894H101.491L100.9 19.2955H95.6966L93.7841 23.6894H89.8477ZM96.9922 16.2613L99.8449 8.93953L100.519 16.2613H96.9922ZM133.497 16.3429C134.056 16.5423 134.603 16.7758 135.143 17.0398C135.679 17.2999 136.093 17.6436 136.384 18.0613C136.671 18.481 136.814 18.8569 136.814 19.1778C136.814 20.7842 136.161 22.0678 134.849 23.0305C133.808 23.8261 132.396 24.2248 130.616 24.2248C129.812 24.2248 128.975 24.1394 128.126 23.9685C127.27 23.8014 126.657 23.6096 126.277 23.3874L127.623 20.8507C128.915 21.2931 130.129 21.5114 131.262 21.5114C132.396 21.5114 133.034 21.0937 133.174 20.2696C133.193 20.2184 133.202 20.1557 133.202 20.0892C133.202 19.5823 132.591 19.0601 131.371 18.517C130.833 18.2626 130.293 17.993 129.757 17.7082C129.217 17.4195 128.805 17.0474 128.528 16.5917C128.248 16.136 128.109 15.7486 128.109 15.4239C128.109 13.7833 128.749 12.5358 130.023 11.6719C131.048 10.9826 132.413 10.6351 134.131 10.6351C135.845 10.6351 137.135 10.8953 138 11.4193L136.705 13.9334C135.504 13.5783 134.505 13.3979 133.714 13.3979C132.475 13.3979 131.801 13.7777 131.694 14.541C131.673 14.6093 131.667 14.6758 131.667 14.7441C131.667 15.3385 132.277 15.8682 133.497 16.3429Z" fill="var(--fill-0, #2F3037)"/>
<path id="Vector_2" d="M85.4011 12.27C83.6679 12.3953 80.6359 12.7029 77.0412 13.7663C73.4503 14.822 71.7776 15.9423 70.2295 16.5005C68.6813 17.0626 66.329 18.8095 65.8305 18.3082C65.3359 17.8107 66.6386 16.7512 67.8771 15.3802C69.1156 14.0093 72.1514 10.8345 73.8241 8.90155C75.4931 6.97617 77.4754 3.98367 77.3508 2.24058C77.2262 0.497484 75.3081 0 73.8241 0C72.3364 0 67.0709 1.24561 64.9677 1.92918C62.8608 2.61654 57.9691 4.85712 57.0402 5.41916C56.1113 5.9774 54.3782 7.41669 54.3555 8.90914C54.3291 10.4794 56.4531 10.9959 57.6274 10.9959C58.8055 10.9959 61.8734 9.09143 64.0389 8.16102C66.2062 7.22301 67.879 5.9774 68.4378 6.60021C68.9929 7.22301 67.7544 8.46862 63.6046 12.6422C59.4549 16.8157 53.8854 22.233 53.1397 23.1672C52.3959 24.1014 51.837 24.2039 51.888 25.4628C51.9258 26.4483 53.2643 27.2154 54.1932 27.5268C55.1258 27.8382 55.9905 28.0889 57.4744 28.0243C58.9622 27.9635 61.2541 27.4015 65.1546 25.347C69.0552 23.2887 71.906 21.5456 74.1356 20.3C76.3634 19.0544 78.6554 17.9341 80.8228 16.9999C82.9864 16.0657 85.403 14.7593 86.396 14.3226C87.3853 13.8897 88.0046 13.2631 88.0046 13.0124C88.0027 12.7675 87.138 12.1447 85.4011 12.27Z" fill="var(--fill-0, #2F3037)"/>
<path id="Vector_3" d="M35.6546 33.4909L34.5445 39.8101H33.2569L34.3557 33.4909H32.1562L32.3545 32.3535H38.0316L37.8333 33.4909H35.6546Z" fill="var(--fill-0, #2F3037)"/>
<path id="Vector_4" fill-rule="evenodd" clip-rule="evenodd" d="M43.7497 39.812H45.2053L43.6666 36.4853C44.2613 36.3505 44.7333 36.0999 45.0863 35.7315C45.4394 35.3631 45.615 34.879 45.615 34.2827C45.615 33.6789 45.3941 33.2061 44.9504 32.8662C44.5067 32.5263 43.878 32.3555 43.0606 32.3555H40.8611L39.5527 39.812H40.8196L41.3633 36.6315H42.3469L43.7497 39.812ZM43.8219 35.2929C43.5161 35.4752 43.08 35.5663 42.5136 35.5663V35.5682H41.5488L41.9264 33.4511H42.8591C43.2914 33.4511 43.6369 33.5213 43.8956 33.6618C44.1542 33.8023 44.2826 34.0549 44.2826 34.4195C44.2826 34.8182 44.1297 35.1106 43.8219 35.2929Z" fill="var(--fill-0, #2F3037)"/>
<path id="Vector_5" fill-rule="evenodd" clip-rule="evenodd" d="M52.7035 38.0955L53.0075 39.812H54.38L52.9036 32.3555H51.7822L46.9434 39.812H48.4726L49.5299 38.0955H52.7035ZM50.1602 36.979L52.0349 33.8498L52.5277 36.979H50.1602Z" fill="var(--fill-0, #2F3037)"/>
<path id="Vector_6" d="M61.8984 39.812L59.4686 34.0188H59.4478L58.4321 39.812H57.1445L58.4529 32.3555H60.1294L62.5176 37.9702H62.5384L63.522 32.3555H64.8096L63.5013 39.812H61.8984Z" fill="var(--fill-0, #2F3037)"/>
<path id="Vector_7" d="M72.1 33.8916C71.9602 33.6675 71.7771 33.5023 71.5506 33.396C71.324 33.2897 71.0786 33.2384 70.8124 33.2384C70.6802 33.2384 70.533 33.2593 70.3725 33.3011C70.212 33.3428 70.0628 33.4074 69.9269 33.4966C69.791 33.584 69.6777 33.7017 69.5871 33.8498C69.4965 33.9979 69.4512 34.1764 69.4512 34.3872C69.4512 34.6549 69.5437 34.8619 69.7287 35.0081C69.9137 35.1562 70.1629 35.2891 70.4782 35.4087C71.1277 35.648 71.6261 35.9328 71.9753 36.267C72.3246 36.6012 72.4983 37.0512 72.4983 37.6208C72.4983 38.0499 72.4152 38.4145 72.2472 38.7164C72.0792 39.0183 71.8602 39.2633 71.5864 39.4531C71.3146 39.643 71.0068 39.7816 70.6651 39.869C70.3234 39.9563 69.9779 40 69.6286 40C69.3851 40 69.1378 39.9753 68.8904 39.9259C68.6431 39.8766 68.4071 39.8025 68.1843 39.7038C67.9616 39.605 67.7539 39.4816 67.5613 39.3297C67.3687 39.1797 67.2064 38.9974 67.0742 38.7867L68.122 38.0594C68.2617 38.3044 68.4732 38.5075 68.7564 38.6651C69.0396 38.8227 69.3511 38.9025 69.6928 38.9025C69.8665 38.9025 70.0402 38.8816 70.212 38.8398C70.3838 38.7981 70.5367 38.7297 70.6727 38.6348C70.8086 38.5398 70.92 38.4164 71.0087 38.2664C71.0956 38.1164 71.139 37.9284 71.139 37.7025C71.139 37.5335 71.1031 37.3854 71.0295 37.2543C70.9559 37.1252 70.8577 37.0113 70.7368 36.9126C70.6141 36.8138 70.4725 36.7265 70.3121 36.6486C70.1516 36.5708 69.9798 36.5005 69.7985 36.4379C69.5758 36.3543 69.3643 36.2594 69.1642 36.153C68.9641 36.0467 68.7885 35.9195 68.6356 35.7695C68.4826 35.6195 68.3618 35.4372 68.275 35.2264C68.1881 35.0157 68.1447 34.7669 68.1447 34.4783C68.1447 34.1061 68.224 33.7757 68.3807 33.489C68.5374 33.2023 68.7451 32.9593 69.0037 32.7618C69.2624 32.5643 69.5607 32.4162 69.8986 32.3137C70.2365 32.2111 70.5877 32.1618 70.9521 32.1618C71.1409 32.1618 71.3353 32.1827 71.5336 32.2244C71.7318 32.2662 71.9244 32.3289 72.1094 32.4086C72.2944 32.4903 72.4681 32.589 72.6324 32.7086C72.7966 32.8283 72.9344 32.9688 73.0458 33.1302L72.1 33.8916Z" fill="var(--fill-0, #2F3037)"/>
<path id="Vector_8" d="M77.8704 33.4909L77.5041 35.5549H80.6041L80.4153 36.6505H77.3153L76.7602 39.8101H75.4727L76.781 32.3535H81.3687L81.1705 33.4909H77.8704Z" fill="var(--fill-0, #2F3037)"/>
<path id="Vector_9" d="M83.3281 39.812L84.6365 32.3555H89.3073L89.109 33.4928H85.6956L85.3596 35.4201H88.6163L88.418 36.5157H85.1708L84.7932 38.6538H88.5011L88.3029 39.812H83.3281Z" fill="var(--fill-0, #2F3037)"/>
<path id="Vector_10" fill-rule="evenodd" clip-rule="evenodd" d="M95.6754 39.812H97.1311L95.5924 36.4853C96.1871 36.3505 96.6591 36.0999 97.0121 35.7315C97.3652 35.3631 97.5407 34.879 97.5407 34.2827C97.5407 33.6789 97.3198 33.2061 96.8762 32.8662C96.4325 32.5263 95.8038 32.3555 94.9863 32.3555H92.7869L91.4785 39.812H92.7453L93.2891 36.6315H94.2727L95.6754 39.812ZM95.7477 35.2929C95.4419 35.4752 95.0057 35.5663 94.4394 35.5663V35.5682H93.4746L93.8522 33.4511H94.7848C95.2172 33.4511 95.5627 33.5213 95.8213 33.6618C96.0781 33.8023 96.2084 34.0549 96.2084 34.4195C96.2084 34.8182 96.0554 35.1106 95.7477 35.2929Z" fill="var(--fill-0, #2F3037)"/>
<path id="Vector_11" d="M104.711 33.8916C104.572 33.6675 104.388 33.5023 104.162 33.396C103.935 33.2897 103.69 33.2384 103.424 33.2384C103.292 33.2384 103.144 33.2593 102.984 33.3011C102.823 33.3428 102.674 33.4074 102.538 33.4966C102.402 33.584 102.289 33.7017 102.198 33.8498C102.108 33.9979 102.062 34.1764 102.062 34.3872C102.062 34.6549 102.155 34.8619 102.34 35.0081C102.525 35.1562 102.774 35.2891 103.09 35.4087C103.739 35.648 104.237 35.9328 104.587 36.267C104.936 36.6012 105.11 37.0512 105.11 37.6208C105.11 38.0499 105.027 38.4145 104.859 38.7164C104.691 39.0183 104.472 39.2633 104.198 39.4531C103.926 39.643 103.618 39.7816 103.276 39.869C102.935 39.9563 102.589 40 102.24 40C101.996 40 101.749 39.9753 101.502 39.9259C101.254 39.8766 101.018 39.8025 100.796 39.7038C100.573 39.605 100.365 39.4816 100.173 39.3297C99.9801 39.1797 99.8177 38.9974 99.6855 38.7867L100.733 38.0594C100.873 38.3044 101.085 38.5075 101.368 38.6651C101.651 38.8227 101.962 38.9025 102.304 38.9025C102.478 38.9025 102.652 38.8816 102.823 38.8398C102.995 38.7981 103.148 38.7297 103.284 38.6348C103.42 38.5398 103.531 38.4164 103.62 38.2664C103.707 38.1164 103.75 37.9284 103.75 37.7025C103.75 37.5335 103.714 37.3854 103.641 37.2543C103.567 37.1252 103.469 37.0113 103.348 36.9126C103.225 36.8138 103.084 36.7265 102.923 36.6486C102.763 36.5708 102.591 36.5005 102.41 36.4379C102.187 36.3543 101.976 36.2594 101.776 36.153C101.575 36.0467 101.4 35.9195 101.247 35.7695C101.094 35.6195 100.973 35.4372 100.886 35.2264C100.799 35.0157 100.756 34.7669 100.756 34.4783C100.756 34.1061 100.835 33.7757 100.992 33.489C101.149 33.2023 101.356 32.9593 101.615 32.7618C101.874 32.5643 102.172 32.4162 102.51 32.3137C102.848 32.2111 103.199 32.1618 103.563 32.1618C103.752 32.1618 103.947 32.1827 104.145 32.2244C104.343 32.2662 104.536 32.3289 104.721 32.4086C104.906 32.4903 105.079 32.589 105.244 32.7086C105.408 32.8283 105.546 32.9688 105.657 33.1302L104.711 33.8916Z" fill="var(--fill-0, #2F3037)"/>
</g>
<defs>
<clipPath id="clip0_0_365">
<rect width="138" height="40" fill="white"/>
</clipPath>
</defs>
</svg>
