<svg preserveAspectRatio="xMidYMid meet" overflow="visible" style="display: block;" viewBox="0 0 93.8389 45.9999" fill="none" xmlns="http://www.w3.org/2000/svg">
<path id="Union" d="M38.1611 1.41018C43.8419 -0.470097 49.9959 -0.470022 55.6768 1.41018L85.166 11.1709C90.3491 12.8863 93.8387 17.6492 93.8389 23.0098C93.8389 28.1607 90.5061 32.7457 85.5381 34.4287L55.7256 44.5283C50.0181 46.4618 43.818 46.4907 38.0918 44.6113L8.80469 35C3.58082 33.2853 0.048734 28.5114 0.000976562 23.1211L0 23.0664V22.9541L0.000976562 22.8985C0.0494648 17.5834 3.52594 12.8745 8.67285 11.1709L38.1611 1.41018ZM55.1631 2.90139C49.8158 1.13153 44.023 1.13157 38.6758 2.90139L9.18652 12.6621C4.65682 14.1615 1.60702 18.3247 1.60645 23.0098C1.60645 27.7686 4.71064 31.9955 9.31543 33.5069L38.6025 43.1192C43.9924 44.8881 49.828 44.8599 55.2002 43.0401L85.0127 32.9405C89.333 31.4768 92.2314 27.4903 92.2314 23.0108C92.2314 18.3255 89.1825 14.1614 84.6523 12.6621L55.1631 2.90139ZM56.7578 19.3545C57.6939 17.8256 59.3744 16.8136 61.3906 16.8135C64.7032 16.8135 67.0565 19.4248 67.0566 23.2354C67.0566 27.0695 64.7272 29.7754 61.3906 29.7754C59.2304 29.7753 57.4784 28.6693 56.6143 26.9287L56.3984 29.5401H55.0781V11.8975H56.7578V19.3545ZM26.7871 16.8145C29.5716 16.8145 31.2997 18.5545 31.2998 21.3301V29.5401H29.6201V21.4004C29.6199 19.4954 28.4435 18.2959 26.4033 18.2959C24.0029 18.2959 22.443 19.919 22.4189 22.083V29.5401H20.7383V17.0723H22.082L22.251 19.2129C23.0912 17.7783 24.7951 16.8145 26.7871 16.8145ZM48.1846 16.8145C50.8011 16.8145 52.5059 18.5785 52.5059 21.1895V29.5401H50.8252V21.2598C50.8252 19.4486 49.7448 18.2959 47.8965 18.2959C45.4961 18.296 43.984 19.9192 43.96 22.0362V29.5401H42.3037V21.2598C42.3037 19.4486 41.2233 18.2959 39.375 18.2959C36.9745 18.2959 35.4625 19.9192 35.4385 22.0362V29.5401H33.7578V17.0733H35.1025L35.2705 19.2129C36.0868 17.7548 37.767 16.8145 39.6631 16.8145C41.6073 16.8145 43.0713 17.802 43.6475 19.4248C44.4396 17.8724 46.1922 16.8145 48.1846 16.8145ZM75.3926 18.6719H75.0322C72.3197 18.6719 70.7109 20.2716 70.7109 22.9297V29.5391H69.0312V17.0723H70.375L70.5908 19.6602C71.359 17.9195 72.8478 17.002 75.0322 17.002H75.3926V18.6719ZM61.127 18.2725C58.5825 18.2725 56.7578 20.2718 56.7578 23.1651C56.7578 26.2465 58.5825 28.3164 61.127 28.3164C63.5994 28.3164 65.3037 26.2228 65.3037 23.2354C65.3036 20.3187 63.5993 18.2725 61.127 18.2725Z" fill="var(--fill-0, #2F3037)"/>
</svg>
