<svg preserveAspectRatio="xMidYMid meet" overflow="visible" style="display: block;" viewBox="0 0 129.796 39.9848" fill="none" xmlns="http://www.w3.org/2000/svg">
<g id="Group">
<g id="Group_2" opacity="0.9">
<path id="Vector" fill-rule="evenodd" clip-rule="evenodd" d="M4.61463 17.8592C7.79555 23.1793 15.5309 24.6365 21.8928 21.1438C28.2546 17.6511 30.8331 10.5037 27.6281 5.18365C24.4471 -0.136374 16.7117 -1.5936 10.3499 1.89913C3.98808 5.39185 1.4096 12.5392 4.61463 17.8592ZM41.9185 15.5703C40.1836 16.8193 36.1351 14.4832 32.882 10.3428C29.6287 6.20243 28.3997 1.83071 30.1589 0.581667C31.8939 -0.667387 35.9423 1.6688 39.1955 5.80917C42.4247 9.94957 43.6536 14.3213 41.9185 15.5703ZM44.0387 22.9936C43.5568 25.8618 42.352 28.0361 41.3399 27.8973C40.3278 27.7354 39.8699 25.2835 40.352 22.4384C40.8338 19.5703 42.0387 17.3959 43.051 17.5348C44.0873 17.6968 44.5208 20.1485 44.0387 22.9936ZM3.57842 30.1874C2.30125 30.3724 0.807184 27.828 0.228835 24.4509C-0.349513 21.097 0.204737 18.1826 1.48191 17.9744C2.75911 17.7894 4.25315 20.3338 4.8315 23.7108C5.40987 27.0878 4.85563 29.9792 3.57842 30.1874ZM25.9419 36.6184C26.9058 33.5652 23.3153 29.7949 17.8933 28.1989C12.4712 26.626 7.29012 27.8057 6.32625 30.8589C5.36232 33.9122 8.9529 37.6825 14.375 39.2785C19.7728 40.8744 24.9539 39.6717 25.9419 36.6184ZM25.6049 21.7447C28.0146 17.8357 32.6896 16.1933 36.0152 18.0669C39.3648 19.9405 40.0877 24.6591 37.6779 28.5683C35.2681 32.4773 30.593 34.1196 27.2675 32.246C23.9421 30.3724 23.1951 25.6769 25.6049 21.7447ZM40.9063 30.2572C40.5208 29.8641 38.2556 31.3907 35.7254 33.6112C33.2191 35.8086 31.4119 37.821 31.7974 38.2142C32.183 38.6305 34.5927 37.289 37.123 35.0684C39.6292 32.848 41.2919 30.6504 40.9063 30.2572Z" fill="var(--fill-0, #2F3037)"/>
<path id="Vector_2" fill-rule="evenodd" clip-rule="evenodd" d="M4.61463 17.8592C7.79555 23.1793 15.5309 24.6365 21.8928 21.1438C28.2546 17.6511 30.8331 10.5037 27.6281 5.18365C24.4471 -0.136374 16.7117 -1.5936 10.3499 1.89913C3.98808 5.39185 1.4096 12.5392 4.61463 17.8592ZM41.9185 15.5703C40.1836 16.8193 36.1351 14.4832 32.882 10.3428C29.6287 6.20243 28.3997 1.83071 30.1589 0.581667C31.8939 -0.667387 35.9423 1.6688 39.1955 5.80917C42.4247 9.94957 43.6536 14.3213 41.9185 15.5703ZM44.0387 22.9936C43.5568 25.8618 42.352 28.0361 41.3399 27.8973C40.3278 27.7354 39.8699 25.2835 40.352 22.4384C40.8338 19.5703 42.0387 17.3959 43.051 17.5348C44.0873 17.6968 44.5208 20.1485 44.0387 22.9936ZM3.57842 30.1874C2.30125 30.3724 0.807184 27.828 0.228835 24.4509C-0.349513 21.097 0.204737 18.1826 1.48191 17.9744C2.75911 17.7894 4.25315 20.3338 4.8315 23.7108C5.40987 27.0878 4.85563 29.9792 3.57842 30.1874ZM25.9419 36.6184C26.9058 33.5652 23.3153 29.7949 17.8933 28.1989C12.4712 26.626 7.29012 27.8057 6.32625 30.8589C5.36232 33.9122 8.9529 37.6825 14.375 39.2785C19.7728 40.8744 24.9539 39.6717 25.9419 36.6184ZM25.6049 21.7447C28.0146 17.8357 32.6896 16.1933 36.0152 18.0669C39.3648 19.9405 40.0877 24.6591 37.6779 28.5683C35.2681 32.4773 30.593 34.1196 27.2675 32.246C23.9421 30.3724 23.1951 25.6769 25.6049 21.7447ZM40.9063 30.2572C40.5208 29.8641 38.2556 31.3907 35.7254 33.6112C33.2191 35.8086 31.4119 37.821 31.7974 38.2142C32.183 38.6305 34.5927 37.289 37.123 35.0684C39.6292 32.848 41.2919 30.6504 40.9063 30.2572Z" fill="var(--fill-0, #2F3037)"/>
<path id="Vector_3" fill-rule="evenodd" clip-rule="evenodd" d="M4.61463 17.8592C7.79555 23.1793 15.5309 24.6365 21.8928 21.1438C28.2546 17.6511 30.8331 10.5037 27.6281 5.18365C24.4471 -0.136374 16.7117 -1.5936 10.3499 1.89913C3.98808 5.39185 1.4096 12.5392 4.61463 17.8592ZM41.9185 15.5703C40.1836 16.8193 36.1351 14.4832 32.882 10.3428C29.6287 6.20243 28.3997 1.83071 30.1589 0.581667C31.8939 -0.667387 35.9423 1.6688 39.1955 5.80917C42.4247 9.94957 43.6536 14.3213 41.9185 15.5703ZM44.0387 22.9936C43.5568 25.8618 42.352 28.0361 41.3399 27.8973C40.3278 27.7354 39.8699 25.2835 40.352 22.4384C40.8338 19.5703 42.0387 17.3959 43.051 17.5348C44.0873 17.6968 44.5208 20.1485 44.0387 22.9936ZM3.57842 30.1874C2.30125 30.3724 0.807184 27.828 0.228835 24.4509C-0.349513 21.097 0.204737 18.1826 1.48191 17.9744C2.75911 17.7894 4.25315 20.3338 4.8315 23.7108C5.40987 27.0878 4.85563 29.9792 3.57842 30.1874ZM25.9419 36.6184C26.9058 33.5652 23.3153 29.7949 17.8933 28.1989C12.4712 26.626 7.29012 27.8057 6.32625 30.8589C5.36232 33.9122 8.9529 37.6825 14.375 39.2785C19.7728 40.8744 24.9539 39.6717 25.9419 36.6184ZM25.6049 21.7447C28.0146 17.8357 32.6896 16.1933 36.0152 18.0669C39.3648 19.9405 40.0877 24.6591 37.6779 28.5683C35.2681 32.4773 30.593 34.1196 27.2675 32.246C23.9421 30.3724 23.1951 25.6769 25.6049 21.7447ZM40.9063 30.2572C40.5208 29.8641 38.2556 31.3907 35.7254 33.6112C33.2191 35.8086 31.4119 37.821 31.7974 38.2142C32.183 38.6305 34.5927 37.289 37.123 35.0684C39.6292 32.848 41.2919 30.6504 40.9063 30.2572Z" fill="var(--fill-0, #2F3037)"/>
</g>
<path id="Vector_4" fill-rule="evenodd" clip-rule="evenodd" d="M51.8017 3.33218H58.7863V23.3245H51.8017V3.33218ZM75.0854 3.33218V11.2458L69.2652 3.33218H62.2806V23.3245H69.2652V15.3831L75.0854 23.2968V23.3245H82.0684L82.07 23.3225V23.3245H91.3809L94.8732 19.5759L98.3655 23.3245H107.678L98.3655 13.3283L105.815 5.33144L112.335 13.3283L113.499 14.8833V23.3245H120.483V14.8833L121.647 13.3283L129.796 3.33218H120.483L116.991 7.6083L113.499 3.33218H98.3655L94.8732 7.08076L91.3809 3.33218H82.07V3.33423L82.0684 3.33218H75.0854ZM82.07 3.33423L91.3809 13.3283L82.07 23.3225V3.33423Z" fill="var(--fill-0, #2F3037)"/>
<path id="Vector_5" d="M52.3839 36.5138V26.1012H56.7478C56.8525 26.1012 56.9825 26.106 57.1378 26.1156C57.2926 26.1204 57.4398 26.1349 57.5799 26.159C58.1798 26.2506 58.6796 26.4483 59.0797 26.7521C59.4844 27.0557 59.7868 27.4389 59.9866 27.9017C60.187 28.3644 60.2871 28.8755 60.2871 29.4346C60.2871 29.9987 60.187 30.5121 59.9866 30.9749C59.7868 31.4378 59.4844 31.821 59.0797 32.1246C58.6796 32.4284 58.1798 32.6259 57.5799 32.7176C57.4398 32.7369 57.29 32.7512 57.1302 32.761C56.9749 32.7706 56.8479 32.7754 56.7478 32.7754H53.951V36.5138H52.3839ZM53.951 31.3436H56.6876C56.7877 31.3436 56.8975 31.3388 57.0174 31.3293C57.1428 31.3195 57.2602 31.3027 57.37 31.2786C57.6896 31.2063 57.9471 31.0738 58.1424 30.881C58.3371 30.6833 58.4772 30.4566 58.5622 30.2012C58.6472 29.9457 58.6897 29.6902 58.6897 29.4346C58.6897 29.1791 58.6472 28.9261 58.5622 28.6754C58.4772 28.4199 58.3371 28.1957 58.1424 28.0029C57.9471 27.8053 57.6896 27.6703 57.37 27.598C57.2602 27.5691 57.1428 27.5497 57.0174 27.5401C56.8975 27.5305 56.7877 27.5258 56.6876 27.5258H53.951V31.3436ZM63.8234 36.7309C63.224 36.7309 62.7217 36.6248 62.3165 36.4126C61.9114 36.1957 61.6043 35.9113 61.3944 35.5594C61.189 35.2027 61.0868 34.8122 61.0868 34.388C61.0868 33.9927 61.1592 33.6455 61.3044 33.3466C61.449 33.0477 61.664 32.7947 61.9493 32.5874C62.2341 32.3753 62.5836 32.2042 62.9984 32.074C63.3591 31.9728 63.7663 31.8836 64.221 31.8065C64.6763 31.7293 65.1533 31.6571 65.6525 31.5896C66.1579 31.5221 66.6581 31.4546 67.1528 31.387L66.5828 31.6908C66.5929 31.0785 66.4578 30.6254 66.1776 30.3313C65.9029 30.0324 65.4279 29.883 64.7537 29.883C64.3288 29.883 63.9388 29.9794 63.5837 30.1723C63.2286 30.3603 62.9812 30.6736 62.8416 31.1123L61.3792 30.6784C61.579 30.0083 61.9589 29.4756 62.5189 29.0804C63.0839 28.6851 63.8335 28.4875 64.7678 28.4875C65.4932 28.4875 66.123 28.6079 66.6581 28.849C67.1974 29.0852 67.5924 29.4611 67.8423 29.9771C67.9723 30.2325 68.0527 30.5025 68.0821 30.7869C68.1124 31.0714 68.1276 31.3774 68.1276 31.7052V36.5138H66.7401V34.7279L67.0102 34.9592C66.6753 35.557 66.2479 36.0029 65.7279 36.2969C65.2135 36.5862 64.5781 36.7309 63.8234 36.7309ZM64.1011 35.4943C64.5458 35.4943 64.9282 35.4196 65.2484 35.2702C65.5686 35.1158 65.8255 34.9207 66.0208 34.6844C66.2155 34.4483 66.343 34.2023 66.4032 33.9468C66.4882 33.7154 66.5352 33.4551 66.5448 33.166C66.56 32.8767 66.5676 32.6453 66.5676 32.4717L67.0775 32.6526C66.5828 32.7248 66.1331 32.7899 65.7279 32.8477C65.3232 32.9056 64.9555 32.9634 64.6262 33.0213C64.3009 33.0743 64.0106 33.1393 63.7556 33.2166C63.5412 33.2888 63.3484 33.3756 63.1785 33.4769C63.0136 33.5781 62.881 33.701 62.7814 33.8456C62.6868 33.9903 62.6388 34.1662 62.6388 34.3735C62.6388 34.576 62.6914 34.764 62.7961 34.9376C62.9013 35.1062 63.0616 35.2412 63.2761 35.3424C63.4911 35.4437 63.7663 35.4943 64.1011 35.4943ZM70.7149 39.9848L72.2825 35.8703L72.3043 37.0851L68.773 28.7043H70.4074L73.0468 35.1761H72.5668L75.0859 28.7043H76.6757L72.2072 39.9848H70.7149ZM87.5527 36.5138L87.5603 31.6474C87.5603 31.0834 87.4101 30.6447 87.1101 30.3313C86.8107 30.0132 86.4156 29.8541 85.9254 29.8541C85.6255 29.8541 85.3508 29.9216 85.1004 30.0566C84.8561 30.1867 84.6558 30.3844 84.501 30.6496C84.3508 30.9098 84.2759 31.2376 84.2759 31.6329L83.5187 31.2642C83.5086 30.7145 83.6284 30.2325 83.8788 29.8179C84.1338 29.4034 84.4782 29.0828 84.9133 28.8563C85.3483 28.6248 85.8359 28.5091 86.3751 28.5091C87.2502 28.5091 87.9275 28.7623 88.4071 29.2684C88.8871 29.7745 89.1269 30.447 89.1269 31.2858L89.1193 36.5138H87.5527ZM77.8432 36.5138V28.7043H79.2378V30.9605H79.4173V36.5138H77.8432ZM82.7012 36.5138L82.7088 31.6763C82.7088 31.1075 82.5586 30.6616 82.2591 30.3385C81.9637 30.0155 81.5672 29.8541 81.0669 29.8541C80.5722 29.8541 80.1726 30.018 79.8675 30.3458C79.5676 30.6736 79.4173 31.1026 79.4173 31.6329L78.6677 31.1701C78.6677 30.6592 78.7952 30.2036 79.0501 29.8035C79.3051 29.4034 79.6495 29.0876 80.0845 28.8563C80.5201 28.6248 81.0117 28.5091 81.5616 28.5091C82.1367 28.5091 82.6264 28.6272 83.0316 28.8635C83.4362 29.0948 83.7438 29.4203 83.9537 29.8396C84.1687 30.2591 84.2759 30.7459 84.2759 31.3003L84.2688 36.5138H82.7012ZM94.5626 36.7309C93.7583 36.7309 93.0512 36.5621 92.4411 36.2247C91.8366 35.8823 91.3637 35.4075 91.0238 34.8001C90.6894 34.1878 90.5215 33.4792 90.5215 32.6742C90.5215 31.821 90.6869 31.0809 91.0162 30.4543C91.3516 29.8276 91.8159 29.343 92.4108 29.0008C93.0056 28.6586 93.6986 28.4875 94.4882 28.4875C95.3133 28.4875 96.0149 28.6731 96.5946 29.0442C97.1753 29.4105 97.6077 29.9336 97.892 30.6133C98.1819 31.2931 98.2972 32.1005 98.2375 33.0358H96.6699V32.4862C96.6598 31.5798 96.4802 30.9098 96.1302 30.476C95.7852 30.0422 95.2576 29.8251 94.5484 29.8251C93.7629 29.8251 93.1736 30.0638 92.779 30.5411C92.3835 31.0183 92.1862 31.7076 92.1862 32.6091C92.1862 33.4672 92.3835 34.1325 92.779 34.6049C93.1736 35.0725 93.7431 35.3063 94.4882 35.3063C94.9779 35.3063 95.4003 35.2003 95.7554 34.9882C96.115 34.7712 96.3953 34.4626 96.5946 34.0625L98.1318 34.5326C97.8172 35.2315 97.3396 35.7739 96.7003 36.1596C96.0604 36.5403 95.3482 36.7309 94.5626 36.7309ZM91.6763 33.0358V31.8571H97.4575V33.0358H91.6763ZM105.383 36.5138V32.6742C105.383 32.3705 105.356 32.0595 105.301 31.7414C105.25 31.4184 105.151 31.1195 105.001 30.8447C104.856 30.57 104.648 30.3482 104.378 30.1795C104.113 30.0108 103.766 29.9263 103.336 29.9263C103.056 29.9263 102.791 29.9722 102.542 30.0638C102.291 30.1506 102.071 30.2927 101.882 30.4904C101.696 30.6881 101.549 30.9485 101.439 31.2713C101.334 31.5943 101.281 31.9873 101.281 32.45L100.307 32.0957C100.307 31.387 100.444 30.7628 100.719 30.2228C100.994 29.6782 101.389 29.254 101.904 28.9502C102.419 28.6464 103.041 28.4946 103.771 28.4946C104.331 28.4946 104.8 28.5814 105.181 28.7549C105.561 28.9285 105.868 29.1575 106.103 29.4419C106.343 29.7215 106.525 30.0276 106.65 30.3603C106.775 30.6929 106.86 31.0183 106.905 31.3364C106.95 31.6547 106.972 31.9342 106.972 32.1752V36.5138H105.383ZM99.6918 36.5138V28.7043H101.094V30.9605H101.281V36.5138H99.6918ZM113.559 36.5138C113.049 36.6103 112.549 36.6513 112.059 36.6368C111.569 36.6223 111.132 36.5308 110.747 36.362C110.362 36.1933 110.073 35.9282 109.877 35.5667C109.702 35.2437 109.608 34.9158 109.593 34.5832C109.582 34.2457 109.578 33.8648 109.578 33.4406V26.5351H111.152V33.3684C111.152 33.6818 111.155 33.954 111.16 34.1855C111.17 34.4169 111.222 34.6121 111.317 34.7712C111.497 35.0701 111.782 35.2412 112.172 35.2847C112.566 35.3231 113.029 35.3063 113.559 35.2339V36.5138ZM108.025 29.9192V28.7043H113.559V29.9192H108.025ZM118.363 36.7236C117.378 36.7236 116.576 36.5138 115.956 36.0945C115.336 35.6751 114.956 35.0845 114.817 34.3229L116.421 34.0843C116.521 34.4892 116.751 34.8097 117.111 35.046C117.475 35.2773 117.928 35.3931 118.468 35.3931C118.958 35.3931 119.341 35.2967 119.615 35.1038C119.895 34.9109 120.035 34.6459 120.035 34.3084C120.035 34.1107 119.985 33.9517 119.885 33.8312C119.79 33.7059 119.588 33.5877 119.277 33.4769C118.968 33.366 118.495 33.2286 117.861 33.0647C117.166 32.8912 116.614 32.7055 116.204 32.5079C115.799 32.3054 115.509 32.0716 115.334 31.8065C115.164 31.5365 115.079 31.2111 115.079 30.8302C115.079 30.3578 115.209 29.9457 115.469 29.5938C115.729 29.2418 116.094 28.9695 116.563 28.7767C117.038 28.5838 117.593 28.4875 118.228 28.4875C118.848 28.4875 119.4 28.5814 119.885 28.7694C120.37 28.9575 120.762 29.225 121.062 29.5721C121.362 29.9143 121.542 30.3168 121.602 30.7796L119.998 31.0617C119.942 30.6857 119.76 30.3892 119.45 30.1723C119.14 29.9553 118.738 29.8373 118.243 29.8179C117.768 29.7986 117.383 29.8758 117.089 30.0494C116.794 30.2181 116.646 30.4519 116.646 30.7508C116.646 30.9243 116.701 31.0714 116.811 31.1918C116.926 31.3123 117.146 31.428 117.471 31.539C117.796 31.6498 118.275 31.7824 118.91 31.9366C119.59 32.1054 120.13 32.2934 120.53 32.5006C120.93 32.7031 121.215 32.9466 121.385 33.2309C121.56 33.5106 121.647 33.8505 121.647 34.2506C121.647 35.0219 121.355 35.6269 120.77 36.0656C120.19 36.5042 119.388 36.7236 118.363 36.7236Z" fill="var(--fill-0, #2F3037)"/>
</g>
</svg>
