<svg preserveAspectRatio="xMidYMid meet" overflow="visible" style="display: block;" viewBox="0 0 76.0125 32" fill="none" xmlns="http://www.w3.org/2000/svg">
<g id="Union">
<path fill-rule="evenodd" clip-rule="evenodd" d="M5.35369 12.6401C6.78112 11.8722 8.41231 11.4358 10.1436 11.4358C15.7367 11.4358 20.287 15.9864 20.287 21.5794C20.287 27.1725 15.7367 31.7233 10.1436 31.7233C8.41229 31.7233 6.78113 31.2867 5.35369 30.5188V32H0V0H5.35369V12.6401ZM10.1436 16.79C7.50238 16.79 5.35374 18.9384 5.35369 21.5792C5.35369 24.2207 7.50235 26.3691 10.1436 26.3691C12.7847 26.3691 14.9333 24.2207 14.9333 21.5794C14.9333 18.9384 12.7846 16.79 10.1436 16.79Z" fill="var(--fill-0, #2F3037)"/>
<path fill-rule="evenodd" clip-rule="evenodd" d="M65.8687 11.4358C67.6 11.4358 69.2312 11.8721 70.6586 12.6401V11.5569H76.0125V32H70.6586V30.5188C69.2312 31.2868 67.6 31.7233 65.8687 31.7233C60.2754 31.7232 55.7249 27.1725 55.7249 21.5794C55.7249 15.9862 60.2754 11.4358 65.8687 11.4358ZM65.8687 16.79C63.2275 16.79 61.0788 18.9384 61.0788 21.5792C61.0788 24.2207 63.2274 26.3691 65.8687 26.3691C68.5097 26.3691 70.6582 24.2207 70.6582 21.5794C70.6581 18.9384 68.5097 16.79 65.8687 16.79Z" fill="var(--fill-0, #2F3037)"/>
<path d="M44.9221 11.7869C47.41 11.7869 49.5496 12.6371 51.1099 14.2452C52.2609 15.4319 53.6325 17.6341 53.6325 21.3898V31.8103H48.2788V21.3898C48.2788 17.1408 45.7522 17.1408 44.9221 17.1408C42.6949 17.1408 41.5656 18.5702 41.5656 21.3898V31.8103H36.2117V21.3762C36.2064 17.1408 33.6844 17.1408 32.855 17.1408V11.7869C35.2736 11.7869 37.3631 12.5903 38.911 14.1126C40.4513 12.6109 42.5743 11.7869 44.9221 11.7869Z" fill="var(--fill-0, #2F3037)"/>
<path d="M28.1014 22.2075C28.1015 26.4561 30.628 26.4562 31.4584 26.4562V31.8101C28.9705 31.8101 26.8307 30.9599 25.2706 29.3518C24.1196 28.1653 22.748 25.9628 22.748 22.2077V11.7867H28.1014V22.2075Z" fill="var(--fill-0, #2F3037)"/>
<path d="M25.3855 3.18897C27.0937 3.18901 28.4786 4.57387 28.4786 6.28212C28.4786 7.9904 27.0937 9.37544 25.3855 9.37548C23.6769 9.37548 22.2919 7.99043 22.2919 6.28212C22.2919 4.57384 23.6769 3.18897 25.3855 3.18897Z" fill="var(--fill-0, #2F3037)"/>
</g>
</svg>
