<svg preserveAspectRatio="xMidYMid meet" overflow="visible" style="display: block;" viewBox="0 0 102.688 34" fill="none" xmlns="http://www.w3.org/2000/svg">
<g id="Group 1321318277">
<g id="Mysellf">
<path d="M48.9398 5.77624C50.2013 5.77624 51.2464 5.89863 52.0748 6.14341C52.9222 6.36936 53.5812 6.66122 54.0519 7.01897C54.5415 7.37673 54.871 7.76273 55.0405 8.17697C55.2099 8.59122 55.2476 8.97722 55.1534 9.33497C55.0781 9.69273 54.8898 9.994 54.5886 10.2388C54.3061 10.4647 53.9484 10.5777 53.5153 10.5777C52.9504 10.5777 52.5079 10.4836 52.1878 10.2953C51.8677 10.107 51.6229 9.87161 51.4535 9.58917C51.284 9.30673 51.1428 9.00546 51.0298 8.68536C50.9357 8.34644 50.8133 8.03575 50.6626 7.75331C50.5308 7.45205 50.3331 7.19785 50.0695 6.99073C49.8059 6.78361 49.4293 6.66122 48.9398 6.62356C48.2996 6.5859 47.7912 6.68946 47.4146 6.93424C47.038 7.16019 46.765 7.45205 46.5955 7.8098C46.4449 8.16756 46.3978 8.54414 46.4543 8.93956C46.5296 9.31614 46.6897 9.63624 46.9344 9.89985C47.4052 10.3706 47.9606 10.7754 48.6008 11.1143C49.2599 11.4344 49.9377 11.7357 50.6344 12.0181C51.3311 12.3006 52.0089 12.5924 52.668 12.8937C53.3458 13.195 53.9389 13.5527 54.4473 13.967C54.9746 14.3812 55.3794 14.8802 55.6618 15.4639C55.9631 16.0288 56.0855 16.7349 56.029 17.5822C55.9913 18.1283 55.8501 18.7025 55.6053 19.3051C55.3606 19.8888 54.9557 20.4254 54.3908 20.915C53.826 21.4045 53.0634 21.8094 52.1031 22.1295C51.1616 22.4496 49.966 22.6096 48.5161 22.6096C47.2357 22.6096 46.153 22.4778 45.2681 22.2142C44.4019 21.9318 43.6958 21.5928 43.1498 21.1974C42.6225 20.7832 42.246 20.3407 42.02 19.87C41.8129 19.3804 41.7376 18.9285 41.7941 18.5143C41.8505 18.1 42.02 17.7517 42.3024 17.4692C42.6037 17.1868 42.9991 17.0362 43.4887 17.0173C44.0347 16.9985 44.449 17.1021 44.7314 17.328C45.0327 17.554 45.2681 17.8458 45.4375 18.2036C45.6258 18.5613 45.7764 18.9473 45.8894 19.3616C46.0212 19.7758 46.1813 20.1618 46.3696 20.5196C46.5579 20.8773 46.8121 21.1786 47.1322 21.4234C47.4711 21.6682 47.9324 21.7905 48.5161 21.7905C49.0622 21.7905 49.5141 21.6776 49.8718 21.4516C50.2484 21.2257 50.5308 20.9432 50.7191 20.6043C50.9074 20.2654 51.0016 19.8982 51.0016 19.5028C51.0204 19.1074 50.9357 18.7402 50.7474 18.4013C50.5026 17.9494 50.1072 17.5728 49.5611 17.2715C49.0339 16.9514 48.4502 16.6596 47.81 16.396C47.1698 16.1135 46.5014 15.8311 45.8047 15.5486C45.1268 15.2474 44.5055 14.899 43.9406 14.5036C43.3945 14.0894 42.9426 13.5904 42.5849 13.0067C42.2271 12.423 42.0482 11.698 42.0482 10.8319C42.0482 10.0787 42.2177 9.39146 42.5566 8.7701C42.8956 8.14873 43.3663 7.62151 43.9688 7.18844C44.5902 6.73653 45.3151 6.38819 46.1436 6.14341C46.9909 5.89863 47.923 5.77624 48.9398 5.77624Z" fill="var(--fill-0, #2F3037)"/>
<path d="M65.1758 5.77624C66.1926 5.75741 67.0776 5.87038 67.8308 6.11517C68.5839 6.35995 69.2335 6.68946 69.7796 7.1037C70.3256 7.49912 70.7681 7.95102 71.1071 8.45941C71.4648 8.94897 71.7378 9.45736 71.9261 9.98458C72.1144 10.493 72.2274 10.992 72.2651 11.4815C72.3215 11.9522 72.3215 12.3571 72.2651 12.696C72.2086 13.0349 72.0203 13.2044 71.7002 13.2044H62.4927C62.5303 13.3927 62.5586 13.581 62.5774 13.7693C62.615 13.9387 62.6527 14.1176 62.6904 14.3059C63.0481 16.0005 63.7354 17.2903 64.7522 18.1753C65.7878 19.0415 67.0211 19.4745 68.4521 19.4745C69.3183 19.4745 70.2315 19.3051 71.1918 18.9662C71.5119 18.8532 71.7378 18.8626 71.8696 18.9944C72.0203 19.1827 72.0014 19.4086 71.8132 19.6723C71.6437 19.8982 71.3895 20.1806 71.0506 20.5196C70.7305 20.8397 70.3162 21.1598 69.8078 21.4799C69.3183 21.7811 68.7251 22.0447 68.0285 22.2707C67.3318 22.4966 66.5315 22.6096 65.6277 22.6096C64.4791 22.6096 63.4059 22.4213 62.4079 22.0447C61.4288 21.6493 60.5627 21.1127 59.8095 20.4348C59.0751 19.7382 58.482 18.9097 58.0301 17.9494C57.597 16.9891 57.3334 15.9346 57.2393 14.7861C57.1451 13.5621 57.2675 12.4136 57.6065 11.3403C57.9642 10.2482 58.4914 9.29732 59.1881 8.48766C59.9036 7.65917 60.7698 7.00956 61.7866 6.53882C62.8033 6.04926 63.9331 5.79507 65.1758 5.77624ZM65.4865 11.8769C65.9196 11.8769 66.2679 11.8675 66.5315 11.8487C66.814 11.811 67.0305 11.7451 67.1812 11.651C67.3318 11.538 67.4259 11.3874 67.4636 11.1991C67.5201 10.992 67.5483 10.7095 67.5483 10.3518C67.5483 9.95634 67.4918 9.5421 67.3789 9.10902C67.2847 8.65712 67.1341 8.25229 66.927 7.89453C66.7387 7.51795 66.4939 7.20727 66.1926 6.96249C65.9102 6.7177 65.5712 6.59531 65.1758 6.59531C64.7616 6.59531 64.385 6.74595 64.0461 7.04722C63.726 7.32966 63.4435 7.71566 63.1988 8.20522C62.954 8.67595 62.7657 9.23141 62.6339 9.87161C62.5021 10.5118 62.4362 11.1802 62.4362 11.8769H65.4865Z" fill="var(--fill-0, #2F3037)"/>
<path d="M80.6374 21.3951C80.9763 21.5081 81.1458 21.6682 81.1458 21.8753C81.1458 22.1577 80.9575 22.2801 80.5809 22.2424C80.2985 22.2048 79.8842 22.1765 79.3382 22.1577C78.7921 22.1389 78.0954 22.1295 77.2481 22.1295C76.4008 22.1295 75.7041 22.1389 75.1581 22.1577C74.612 22.1765 74.1884 22.2048 73.8871 22.2424C73.5105 22.2801 73.3222 22.1577 73.3222 21.8753C73.3222 21.6682 73.5011 21.5081 73.8588 21.3951C74.1601 21.301 74.3484 21.1127 74.4237 20.8303C74.499 20.529 74.5367 20.1147 74.5367 19.5875V6.03044C74.5367 5.50321 74.499 5.08897 74.4237 4.7877C74.3484 4.48643 74.1601 4.28873 73.8588 4.19458C73.5011 4.10043 73.3222 3.94038 73.3222 3.71443C73.3222 3.45082 73.4917 3.28136 73.8306 3.20604C74.0754 3.16838 74.3955 3.11189 74.7909 3.03658C75.2052 2.94243 75.657 2.82946 76.1466 2.69765C76.6362 2.54702 77.154 2.37755 77.7 2.18926C78.2461 1.98214 78.7827 1.74677 79.3099 1.48316C79.4982 1.38902 79.6489 1.3796 79.7618 1.45492C79.8748 1.51141 79.9313 1.64321 79.9313 1.85033V19.5875C79.9313 20.1147 79.969 20.529 80.0443 20.8303C80.1196 21.1127 80.3173 21.301 80.6374 21.3951Z" fill="var(--fill-0, #2F3037)"/>
<path d="M89.6843 21.3951C90.0232 21.5081 90.1927 21.6682 90.1927 21.8753C90.1927 22.1577 90.0044 22.2801 89.6278 22.2424C89.3454 22.2048 88.9311 22.1765 88.3851 22.1577C87.839 22.1389 87.1423 22.1295 86.295 22.1295C85.4477 22.1295 84.751 22.1389 84.205 22.1577C83.6589 22.1765 83.2353 22.2048 82.934 22.2424C82.5574 22.2801 82.3691 22.1577 82.3691 21.8753C82.3691 21.6682 82.548 21.5081 82.9057 21.3951C83.207 21.301 83.3953 21.1127 83.4706 20.8303C83.5459 20.529 83.5836 20.1147 83.5836 19.5875V6.03044C83.5836 5.50321 83.5459 5.08897 83.4706 4.7877C83.3953 4.48643 83.207 4.28873 82.9057 4.19458C82.548 4.10043 82.3691 3.94038 82.3691 3.71443C82.3691 3.45082 82.5386 3.28136 82.8775 3.20604C83.1223 3.16838 83.4424 3.11189 83.8378 3.03658C84.252 2.94243 84.7039 2.82946 85.1935 2.69765C85.6831 2.54702 86.2009 2.37755 86.7469 2.18926C87.293 1.98214 87.8296 1.74677 88.3568 1.48316C88.5451 1.38902 88.6957 1.3796 88.8087 1.45492C88.9217 1.51141 88.9782 1.64321 88.9782 1.85033V19.5875C88.9782 20.1147 89.0158 20.529 89.0912 20.8303C89.1665 21.1127 89.3642 21.301 89.6843 21.3951Z" fill="var(--fill-0, #2F3037)"/>
</g>
<g id="Mysellf_2">
<path d="M23.8944 21.3329C24.045 21.3893 24.1674 21.4552 24.2615 21.5306C24.3557 21.5871 24.4028 21.6812 24.4028 21.813C24.4028 22.0766 24.2145 22.199 23.8379 22.1802C23.5178 22.1425 23.0659 22.1143 22.4822 22.0954C21.8985 22.0766 21.1641 22.0672 20.2791 22.0672C19.413 22.0672 18.6881 22.0766 18.1044 22.0954C17.5395 22.1143 17.097 22.1425 16.7769 22.1802C16.3815 22.2178 16.1838 22.0954 16.1838 21.813C16.1838 21.6059 16.3626 21.4458 16.7204 21.3329C17.0405 21.2387 17.2382 21.0504 17.3135 20.768C17.3888 20.4667 17.4265 20.0525 17.4265 19.5252V6.02465L11.3258 21.8412C11.2505 22.0672 11.0999 22.1802 10.8739 22.1802H10.3373C10.2243 22.1802 10.1396 22.1519 10.0831 22.0954C10.0266 22.039 9.97952 21.9636 9.94186 21.8695L3.16332 5.93992V18.3955C3.16332 18.9604 3.20098 19.4217 3.2763 19.7794C3.35161 20.1184 3.45517 20.4008 3.58698 20.6268C3.73761 20.8339 3.90708 20.9939 4.09537 21.1069C4.28366 21.2011 4.49078 21.2764 4.71674 21.3329C4.8862 21.3893 5.018 21.4552 5.11215 21.5306C5.22513 21.5871 5.28161 21.6812 5.28161 21.813C5.28161 22.0954 5.08391 22.2178 4.68849 22.1802C4.40605 22.1613 4.08595 22.1425 3.7282 22.1237C3.37044 22.1049 3.00327 22.0954 2.62669 22.0954C2.23127 22.0954 1.85468 22.1049 1.49693 22.1237C1.13917 22.1425 0.828489 22.1613 0.564879 22.1802C0.188293 22.199 0 22.0766 0 21.813C0 21.6812 0.0470732 21.5871 0.14122 21.5306C0.235366 21.4552 0.357756 21.3893 0.508391 21.3329C0.941464 21.1822 1.24273 20.881 1.4122 20.4291C1.60049 19.9583 1.69464 19.2805 1.69464 18.3955V2.86133C1.60049 2.76718 1.49693 2.70128 1.38395 2.66362C1.27098 2.60713 1.13917 2.56006 0.988538 2.5224C0.819074 2.48474 0.677854 2.43767 0.564879 2.38118C0.451903 2.30586 0.395415 2.19289 0.395415 2.04225C0.395415 1.77864 0.593123 1.66567 0.988538 1.70333C1.30864 1.74098 1.75112 1.76923 2.316 1.78806C2.89971 1.80689 3.63405 1.8163 4.51903 1.8163C5.12157 1.8163 5.62054 1.80689 6.01596 1.78806C6.41137 1.76923 6.71264 1.74098 6.91976 1.70333C7.23986 1.6845 7.46581 1.8163 7.59762 2.09874L12.7098 14.3001L17.4547 1.90103H17.483C17.5583 1.73157 17.7184 1.66567 17.9631 1.70333C18.2079 1.72216 18.5186 1.74098 18.8952 1.75981C19.2718 1.77864 19.7519 1.79747 20.3356 1.8163C21.2206 1.83513 21.9455 1.83513 22.5104 1.8163C23.0941 1.77864 23.546 1.74098 23.8661 1.70333C24.2427 1.6845 24.431 1.79747 24.431 2.04225C24.431 2.24938 24.2804 2.40001 23.9791 2.49416C23.6213 2.5883 23.3954 2.78601 23.3012 3.08728C23.2259 3.38855 23.1883 3.81221 23.1883 4.35826V19.5252C23.1883 20.0525 23.2259 20.4667 23.3012 20.768C23.3766 21.0504 23.5743 21.2387 23.8944 21.3329Z" fill="var(--fill-0, #2F3037)"/>
<path d="M41.5349 6.08114C41.9115 6.06231 42.0998 6.17528 42.0998 6.42006C42.0998 6.68367 41.9586 6.84372 41.6761 6.90021C41.2054 6.93787 40.8006 7.21089 40.4616 7.71928C40.1415 8.20884 39.8591 8.77372 39.6143 9.41392C39.5767 9.48924 39.4449 9.81875 39.2189 10.4025C38.9929 10.9673 38.7105 11.6734 38.3716 12.5208C38.0515 13.3492 37.6937 14.2625 37.2983 15.2604C36.9029 16.2395 36.5263 17.1904 36.1686 18.1131C35.8108 19.0169 35.4907 19.8359 35.2083 20.5703C34.9258 21.2858 34.7187 21.7942 34.5869 22.0954C34.3421 22.7168 34.0691 23.3382 33.7678 23.9595C33.4854 24.5997 33.137 25.174 32.7228 25.6824C32.3274 26.2096 31.8566 26.6521 31.3106 27.0099C30.7834 27.3676 30.1338 27.5748 29.3618 27.6313C28.345 27.7254 27.5165 27.603 26.8763 27.2641C26.2549 26.9252 25.8219 26.5109 25.5771 26.0214C25.3323 25.5318 25.2852 25.0328 25.4359 24.5244C25.5865 24.0349 25.9254 23.6677 26.4526 23.4229C26.8481 23.2534 27.1964 23.1687 27.4977 23.1687C27.7801 23.1687 28.0437 23.2158 28.2885 23.3099C28.5333 23.4229 28.7592 23.5453 28.9664 23.6771C29.1735 23.8089 29.3806 23.9313 29.5877 24.0443C29.7948 24.1573 30.0114 24.2232 30.2373 24.242C30.934 24.2985 31.4801 24.129 31.8755 23.7336C32.2709 23.3382 32.5722 22.8957 32.7793 22.4061L26.5939 8.73607C26.3303 8.1147 26.1325 7.68163 26.0007 7.43684C25.8689 7.19206 25.6524 7.0226 25.3511 6.92845C25.1817 6.85314 25.0499 6.78723 24.9557 6.73075C24.8616 6.65543 24.8145 6.55187 24.8145 6.42006C24.8145 6.17528 25.0028 6.06231 25.3794 6.08114C25.6995 6.11879 26.1514 6.14704 26.7351 6.16587C27.3188 6.1847 28.0531 6.19411 28.9381 6.19411C29.8231 6.19411 30.5574 6.1847 31.1411 6.16587C31.7248 6.14704 32.1767 6.11879 32.4968 6.08114C32.8734 6.06231 33.0617 6.17528 33.0617 6.42006C33.0617 6.5707 33.0147 6.68367 32.9205 6.75899C32.8264 6.81548 32.704 6.87197 32.5533 6.92845C32.2332 7.0226 32.0638 7.21089 32.0449 7.49333C32.0449 7.75694 32.1579 8.17119 32.3839 8.73607L35.18 16.2772C35.5001 15.4675 35.8202 14.6673 36.1403 13.8765C36.4604 13.0856 36.7428 12.3701 36.9876 11.7299C37.2512 11.0897 37.4678 10.5625 37.6372 10.1483C37.8255 9.71519 37.9291 9.47041 37.9479 9.41392C38.0609 9.11265 38.155 8.8208 38.2304 8.53836C38.3057 8.25592 38.3245 8.00172 38.2869 7.77577C38.268 7.54982 38.1833 7.36153 38.0327 7.21089C37.9009 7.04143 37.6937 6.94728 37.4113 6.92845C37.0347 6.87197 36.8464 6.71192 36.8464 6.44831C36.8464 6.20353 37.0441 6.08114 37.4395 6.08114C37.722 6.11879 38.0703 6.14704 38.4846 6.16587C38.9176 6.1847 39.2942 6.19411 39.6143 6.19411C40.0097 6.19411 40.3675 6.1847 40.6876 6.16587C41.0077 6.12821 41.2901 6.09997 41.5349 6.08114Z" fill="var(--fill-0, #2F3037)"/>
<path d="M97.8837 0.00869069C98.8629 -0.0289685 99.6725 0.0557633 100.313 0.262886C100.972 0.470008 101.48 0.743032 101.838 1.08196C102.214 1.40206 102.459 1.76923 102.572 2.18347C102.704 2.57889 102.723 2.94606 102.629 3.28499C102.535 3.62391 102.337 3.91577 102.036 4.16055C101.753 4.3865 101.395 4.49947 100.962 4.49947C100.435 4.49947 100.03 4.41474 99.7478 4.24528C99.4842 4.05699 99.2865 3.83104 99.1547 3.56743C99.0417 3.28499 98.9664 2.98372 98.9288 2.66362C98.9099 2.34352 98.8723 2.05167 98.8158 1.78806C98.7593 1.50562 98.6652 1.27967 98.5334 1.1102C98.4204 0.921911 98.2038 0.827764 97.8837 0.827764C97.3753 0.827764 96.9799 1.06313 96.6975 1.53386C96.4339 1.98577 96.3021 2.51299 96.3021 3.11552C96.3021 3.62391 96.4433 4.16996 96.7257 4.75367C97.027 5.31855 97.526 5.76104 98.2227 6.08114H99.9173C100.275 6.08114 100.454 6.29767 100.454 6.73075C100.454 7.18265 100.275 7.4086 99.9173 7.4086H98.3639V19.5252C98.3639 20.0525 98.4015 20.4667 98.4769 20.768C98.5522 21.0504 98.7499 21.2387 99.07 21.3329C99.4277 21.4458 99.6066 21.6059 99.6066 21.813C99.6066 22.0954 99.4089 22.2178 99.0135 22.1802C98.7311 22.1425 98.3168 22.1143 97.7708 22.0954C97.2247 22.0766 96.528 22.0672 95.6807 22.0672C94.8334 22.0672 94.1367 22.0766 93.5907 22.0954C93.0446 22.1143 92.621 22.1425 92.3197 22.1802C91.9431 22.2178 91.7548 22.0954 91.7548 21.813C91.7548 21.6059 91.9337 21.4458 92.2914 21.3329C92.5927 21.2387 92.781 21.0504 92.8563 20.768C92.9316 20.4667 92.9693 20.0525 92.9693 19.5252V7.4086H92.1502C91.9431 7.4086 91.8019 7.36153 91.7266 7.26738C91.6701 7.15441 91.6418 6.97553 91.6418 6.73075C91.6418 6.48597 91.6701 6.3165 91.7266 6.22236C91.8019 6.12821 91.9431 6.08114 92.1502 6.08114H92.9693V5.91167C92.9693 5.17733 93.0164 4.47123 93.1105 3.79338C93.2235 3.09669 93.4494 2.47533 93.7884 1.92928C94.1461 1.38323 94.6451 0.94074 95.2853 0.601812C95.9443 0.244056 96.8105 0.0463488 97.8837 0.00869069Z" fill="var(--fill-0, #2F3037)"/>
</g>
<path id="Union" d="M40.7861 28.9866C39.8142 29.2999 39.1005 29.7382 38.6452 30.3016C38.2072 30.8575 37.9719 31.4087 37.9393 31.9551C37.9068 32.5015 38.0597 32.9788 38.3981 33.387C38.7291 33.7778 39.1851 33.9822 39.7661 33.9999C40.1963 34.0002 40.5499 33.9411 40.8269 33.8227C41.0866 33.7116 41.3105 33.5647 41.4985 33.3819C41.6792 33.1817 41.8388 32.9803 41.9774 32.7777C42.116 32.5751 42.2583 32.3811 42.4043 32.1958C42.5503 32.0105 42.7235 31.8647 42.9239 31.7585C49.7333 29.98 66.1289 27.6367 87.5473 30.9218C87.6445 31.2788 87.8061 31.4563 88.032 31.4544C88.2956 31.4522 88.4636 31.2813 88.5361 30.9417C88.5717 30.6966 88.6255 30.3761 88.6974 29.98C88.7881 29.565 88.8972 29.1122 89.0249 28.6215C89.1714 28.1307 89.3365 27.6115 89.5201 27.0639C89.7226 26.5161 89.9535 25.9775 90.2126 25.4481C90.3052 25.259 90.3133 25.1083 90.2371 24.9959C90.1796 24.8834 90.0473 24.8281 89.8402 24.8298C68.4711 25.7629 56.2915 25.7629 40.7861 28.9866Z" fill="var(--fill-0, #2F3037)"/>
</g>
</svg>
