<svg preserveAspectRatio="xMidYMid meet" overflow="visible" style="display: block;" viewBox="0 0 95.0157 40" fill="none" xmlns="http://www.w3.org/2000/svg">
<g id="Frame 2131330954">
<g id="Union">
<path fill-rule="evenodd" clip-rule="evenodd" d="M6.69211 15.8001C8.4764 14.8402 10.5154 14.2948 12.6795 14.2948C19.6709 14.2948 25.3587 19.983 25.3588 26.9743C25.3588 33.9657 19.6709 39.6541 12.6795 39.6541C10.5154 39.6541 8.47642 39.1084 6.69211 38.1485V40H0V0H6.69211V15.8001ZM12.6795 20.9874C9.37798 20.9875 6.69217 23.6731 6.69211 26.974C6.69211 30.2759 9.37794 32.9614 12.6795 32.9614C15.9808 32.9614 18.6666 30.2759 18.6666 26.9743C18.6666 23.673 15.9808 20.9874 12.6795 20.9874Z" fill="var(--fill-0, #2F3037)"/>
<path fill-rule="evenodd" clip-rule="evenodd" d="M82.3359 14.2948C84.4999 14.2948 86.539 14.8402 88.3233 15.8001V14.4461H95.0157V40H88.3233V38.1485C86.539 39.1084 84.5 39.6541 82.3359 39.6541C75.3442 39.6541 69.6561 33.9657 69.6561 26.9743C69.6561 19.9827 75.3443 14.2948 82.3359 14.2948ZM82.3359 20.9874C79.0343 20.9875 76.3485 23.6731 76.3485 26.974C76.3485 30.2759 79.0343 32.9614 82.3359 32.9614C85.6372 32.9614 88.3227 30.2759 88.3227 26.9743C88.3227 23.673 85.6371 20.9874 82.3359 20.9874Z" fill="var(--fill-0, #2F3037)"/>
<path d="M56.1526 14.7336C59.2625 14.7336 61.937 15.7963 63.8874 17.8065C65.3261 19.2899 67.0406 22.0426 67.0406 26.7372V39.7629H60.3485V26.7372C60.3485 21.426 57.1903 21.426 56.1526 21.426C53.3686 21.426 51.957 23.2128 51.957 26.7372V39.7629H45.2646V26.7202C45.258 21.426 42.1056 21.426 41.0687 21.426V14.7336C44.092 14.7336 46.7039 15.7379 48.6388 17.6407C50.5641 15.7637 53.2179 14.7336 56.1526 14.7336Z" fill="var(--fill-0, #2F3037)"/>
<path d="M35.1268 27.7593C35.1269 33.0702 38.285 33.0702 39.323 33.0702V39.7626C36.2131 39.7626 33.5383 38.6999 31.5882 36.6897C30.1495 35.2066 28.435 32.4536 28.435 27.7596V14.7333H35.1268V27.7593Z" fill="var(--fill-0, #2F3037)"/>
<path d="M31.7318 3.98621C33.8671 3.98626 35.5982 5.71734 35.5983 7.85264C35.5983 9.988 33.8672 11.7193 31.7318 11.7194C29.5962 11.7194 27.8648 9.98803 27.8648 7.85264C27.8649 5.7173 29.5962 3.98621 31.7318 3.98621Z" fill="var(--fill-0, #2F3037)"/>
</g>
</g>
</svg>
