<svg preserveAspectRatio="xMidYMid meet" overflow="visible" style="display: block;" viewBox="0 0 164.177 32.0003" fill="none" xmlns="http://www.w3.org/2000/svg">
<g id="Group">
<path id="Union" d="M4.66309 4.68945C8.75928 0.587632 14.6695 -0.960365 20.2979 0.591797C23.6212 1.50431 26.6458 3.58415 28.7676 6.41113C31.5503 10.1102 32.5731 14.8696 31.5771 19.4678C30.7016 23.5204 28.1953 27.1438 24.6709 29.4385C22.6206 30.7759 20.2887 31.6175 17.8408 31.9082C17.1126 31.9976 15.3703 32.0288 14.6914 31.9707C10.8321 31.6352 7.36104 30.0294 4.66309 27.3232C2.04548 24.7065 0.478068 21.4095 0.0537109 17.6387C-0.0177587 16.999 -0.0177597 15.0037 0.0537109 14.373C0.487033 10.5891 2.04575 7.31055 4.66309 4.68945ZM15.3574 2.0459L14.7412 2.25977L14.1465 4.4248C13.8204 5.61465 13.5034 6.76478 13.4453 6.97949L13.3379 7.37305L13.6152 7.45801C13.8832 7.5385 13.8878 7.54741 13.8789 7.69043C13.8389 8.27379 13.6743 10.156 13.6641 10.1816C13.6373 10.2129 13.193 10.1332 13.1377 10.084C13.102 10.0571 12.8876 9.56433 12.6553 8.9873L12.2354 7.94141L12.2217 8.93359L12.2129 9.92285H10.5371L8.6748 10.5176L6.81641 11.1084L5.12402 13.2373L3.43066 15.3711L2.97461 17.8848C2.72069 19.2676 2.53407 20.4145 2.55078 20.4385C2.63988 20.5188 9.95372 25.5962 10.0234 25.623C10.0413 25.623 10.8994 25.3596 11.9268 25.042L13.7939 24.4561L14.8926 24.5449C15.9735 24.6299 16.0006 24.6299 17.0859 24.5449L18.1846 24.4561L20.0566 25.0459C21.7988 25.5916 21.9373 25.6275 22.04 25.5693C22.1659 25.4941 29.3056 20.5033 29.3789 20.4346C29.4146 20.4033 28.5404 15.4615 28.4814 15.3486C28.4636 15.3218 27.6994 14.3557 26.7793 13.1973L25.1084 11.0986L23.25 10.5088L21.3926 9.92285H19.7617V8.91211C19.7617 8.35745 19.7435 7.91432 19.7256 7.92773C19.7054 7.9428 19.5013 8.42815 19.2705 9.00586C19.0386 9.58647 18.8199 10.0779 18.7793 10.1016C18.7436 10.1195 18.6046 10.1511 18.4795 10.1689C18.252 10.2002 18.2432 10.1952 18.2432 10.0879C18.2431 10.0286 18.2028 9.51891 18.1582 8.95605C18.1091 8.39273 18.0646 7.8429 18.0557 7.73535L18.0469 7.53809L18.3232 7.45312C18.5776 7.37717 18.5999 7.35971 18.5732 7.27051C18.5554 7.21683 18.2389 6.06669 17.8682 4.71582L17.1934 2.25977L16.5811 2.0459L15.9697 1.83105L15.3574 2.0459Z" fill="var(--fill-0, #2F3037)"/>
<path id="Union_2" d="M5.84734 22.1427C5.86634 22.145 6.48193 22.4197 7.2321 22.7599L8.60808 23.3869L9.86784 23.051C10.5644 22.8676 11.1588 22.716 11.1901 22.716C11.2682 22.724 13.2017 24.0304 13.2311 24.0929C13.2397 24.1198 10.2603 25.0804 10.154 25.0861C10.1406 25.0861 9.16128 24.4283 7.9821 23.6232C6.80305 22.8137 5.8384 22.1517 5.84734 22.1427ZM26.1696 22.1301C26.0041 22.2762 21.8327 25.0742 21.7653 25.0822C21.7332 25.0775 21.0362 24.8629 20.2194 24.6037C19.4065 24.3398 18.7413 24.1108 18.7458 24.0929C18.7802 24.0271 20.7134 22.7207 20.7868 22.716C20.8221 22.7171 21.4154 22.8682 22.1051 23.051L23.3649 23.3869L24.7897 22.7385C25.5683 22.3865 26.1869 22.1101 26.1696 22.1301ZM14.318 22.9172C15.4112 24.1772 15.323 24.0576 15.1803 24.0529C15.1089 24.0484 14.7739 24.0217 14.4391 23.9904C14.1056 23.9548 13.8023 23.9152 13.7643 23.8927C13.5379 23.7594 11.9705 22.6184 11.9684 22.591C12.0155 22.5501 13.7959 22.3182 13.8268 22.3488C13.841 22.3676 14.0595 22.6225 14.318 22.9172ZM18.2809 22.3312C18.3454 22.3449 18.7112 22.3984 19.0895 22.4474C19.4689 22.4966 19.8355 22.5502 19.9069 22.5636C20.0176 22.5861 19.9405 22.6502 19.0895 23.257L18.151 23.9279L17.445 23.9904C16.5971 24.0708 16.6636 24.071 16.7038 24.0041C16.7277 23.9709 17.0618 23.5776 17.4538 23.1271C18.0924 22.3893 18.1782 22.3133 18.2809 22.3312ZM15.987 19.5842C16.0205 19.6 17.7054 21.94 17.7292 22.009C17.7467 22.0541 16.8627 23.0646 16.0143 23.9767C16.0009 23.9946 15.5938 23.5787 15.1159 23.051C14.6381 22.5233 14.2497 22.0623 14.2497 22.0265C14.2633 21.956 15.9456 19.5925 15.987 19.5842ZM21.5495 20.2101C21.7937 20.717 22.7526 22.8679 22.7467 22.8898C22.7378 22.8898 22.3536 22.7602 21.8893 22.6037C21.4271 22.4435 21.0436 22.3092 21.0309 22.299C21.0262 22.2863 21.1317 22.0436 21.2634 21.758L21.5046 21.2258L21.4821 20.6174L21.4557 20.009L21.5495 20.2101ZM10.4538 20.1437C10.5117 20.0233 10.5113 20.0727 10.4889 20.6135L10.4665 21.217L10.6325 21.5754C10.7217 21.7718 10.8329 22.0173 10.8776 22.1203L10.9587 22.3088L10.1452 22.5773C9.28324 22.868 9.2653 22.8718 9.2653 22.8136C9.27333 22.7647 10.2091 20.6649 10.4538 20.1437ZM3.77409 16.3097C3.81277 16.3564 7.81752 22.2151 7.94694 22.4162C7.98593 22.4813 8.01602 22.5335 8.00944 22.5363C8.00051 22.5318 6.90534 22.0309 5.57878 21.4181C4.25527 20.8068 3.14464 20.2888 3.10417 20.2687C3.05104 20.2363 3.10091 19.8942 3.39519 18.2511C3.5856 17.1737 3.75383 16.3069 3.77409 16.3097ZM28.2028 16.3508C28.2449 16.4064 28.9674 20.1991 28.944 20.2424C28.8921 20.2825 24.0092 22.5134 23.9284 22.5363C23.915 22.5363 23.9553 22.4698 24.0134 22.3937C24.0744 22.3088 25.0333 20.9103 26.1481 19.2804C27.2603 17.6479 28.1849 16.3329 28.2028 16.3508ZM12.2096 11.5236C12.2096 12.5121 12.219 12.6288 12.3395 13.2638L12.4733 13.9484L10.7087 18.0949C9.74464 20.3637 8.94828 22.2255 8.93523 22.2502C8.92462 22.2167 8.53004 19.8201 8.05144 16.8869C7.45875 13.2277 7.19446 11.5093 7.22429 11.4836C7.25627 11.4642 8.00525 11.2281 8.8864 10.9562L10.4987 10.4592H12.2096V11.5236ZM23.0846 10.9689C23.9811 11.2444 24.719 11.4806 24.737 11.4924C24.7448 11.5081 24.3656 13.8987 23.8884 16.8107C23.4165 19.7168 23.025 22.1351 23.0134 22.1965C23.0044 22.2412 22.2 20.4028 21.2262 18.1037L19.4528 13.926L19.6091 13.2101C19.7564 12.5173 19.7614 12.4632 19.7614 11.4797V10.4592H21.4499L23.0846 10.9689ZM18.6901 19.8078C19.4047 20.2595 19.9947 20.6175 20.0036 20.6086C20.0166 20.5907 20.1889 20.2317 20.3962 19.799L20.776 19.0119L20.8698 19.8215C21.0484 21.2974 21.0485 21.1238 20.8298 21.6603C20.7231 21.9184 20.616 22.1281 20.5885 22.1301C20.5662 22.1256 20.0526 22.0495 19.4499 21.9601L18.3551 21.799L17.4079 20.4797C16.8877 19.7584 16.4651 19.1519 16.4567 19.133C16.4584 19.1194 16.6675 19.0792 16.9255 19.048L17.3952 18.9943L18.6901 19.8078ZM15.0231 19.0607C15.3645 19.0918 15.5084 19.1191 15.4928 19.1545C15.2878 19.4893 13.6313 21.7543 13.5671 21.7853C13.525 21.8034 13.0567 21.8794 12.5309 21.9552C12.0056 22.031 11.5199 22.1026 11.4548 22.1164C11.3476 22.1387 11.3246 22.1117 11.1237 21.7004C10.9675 21.3786 10.9094 21.2128 10.9137 21.0832C10.9227 20.8419 11.1315 19.1476 11.155 19.1105C11.1709 19.1073 11.3443 19.4358 11.5436 19.8527C11.7439 20.2671 11.9221 20.6109 11.9411 20.6135C11.9691 20.6098 12.552 20.2526 13.2497 19.8166L14.528 19.0158L15.0231 19.0607ZM25.2614 12.0383C25.3044 12.0622 27.9468 15.4112 28.027 15.5451C28.0757 15.617 27.7973 16.026 25.86 18.7795C24.6475 20.5051 23.6424 21.9259 23.6178 21.9552C23.6045 21.9686 23.5997 21.9197 23.613 21.8439C23.6269 21.7689 23.9978 19.5286 24.4352 16.8693C24.8765 14.2093 25.2465 12.0389 25.2614 12.0383ZM6.72526 12.0607C6.75873 12.1104 8.37688 21.8774 8.36101 21.9377C8.35207 21.9466 7.35124 20.542 6.1364 18.8156C4.92585 17.089 3.92937 15.6483 3.92937 15.6125C3.93292 15.5278 6.67575 12.0387 6.72526 12.0607ZM13.5358 17.7951C13.5577 17.8079 14.0238 18.4815 14.1432 18.672C14.1646 18.7083 13.8465 18.9322 13.1999 19.3342C12.6649 19.6662 12.2129 19.9372 12.1823 19.9426C12.16 19.9426 12.0303 19.7097 11.8874 19.4279C11.7502 19.1486 11.6345 18.9091 11.6325 18.8918C11.6343 18.8784 11.8524 18.8693 12.1237 18.8693H12.611L13.0661 18.3322C13.3161 18.0371 13.5269 17.7951 13.5358 17.7951ZM18.4255 17.7951C18.4479 17.801 18.6647 18.0454 18.9118 18.3371L19.3717 18.8781L19.8591 18.8469C20.1262 18.829 20.3444 18.8335 20.3454 18.8469C20.3438 18.9028 19.7992 19.9275 19.7653 19.9377C19.7519 19.9377 19.314 19.6699 18.7917 19.339C18.2718 19.0142 17.831 18.7332 17.8132 18.717C17.7864 18.6901 18.3808 17.7951 18.4255 17.7951ZM16.4479 18.0148C16.6943 18.2967 16.8842 18.531 16.8727 18.5422C16.7745 18.5645 15.8412 18.5737 15.4967 18.5558L15.0856 18.5334L15.5368 18.0148L15.988 17.4953L16.4479 18.0148ZM17.9948 16.5519C18.0929 16.7757 18.1103 17.3612 18.0212 17.5314C17.9676 17.6295 17.4568 18.3219 17.4274 18.3322C17.4229 18.3322 17.2169 18.0863 16.9714 17.7912C16.726 17.4963 16.481 17.1918 16.4225 17.1242L16.3239 16.9992L17.1149 16.6818L17.9098 16.3635L17.9948 16.5519ZM12.5778 17.6838L12.7028 17.9826L12.5641 18.1574C12.4347 18.3228 12.412 18.3318 12.1979 18.3273C12.0687 18.3229 11.9083 18.309 11.8366 18.2912L11.7067 18.2648L12.0778 17.8263L12.4479 17.3879L12.5778 17.6838ZM14.0602 16.4084C14.1591 16.4108 15.6018 17.0049 15.6012 17.0392C15.5791 17.1014 14.5755 18.3087 14.5339 18.3273C14.516 18.3318 14.3641 18.1482 14.1989 17.9201L13.8952 17.5138L13.8903 17.1515C13.8903 16.7937 13.9754 16.4084 14.0602 16.4084ZM19.4665 17.4064C19.4788 17.4017 19.6519 17.5874 19.8551 17.8263L20.2214 18.2648L20.0915 18.2922C20.02 18.31 19.8594 18.3228 19.7301 18.3273C19.5113 18.3318 19.4929 18.323 19.3678 18.1486L19.2341 17.9699L19.3415 17.6974C19.3995 17.5455 19.4575 17.4154 19.4665 17.4064ZM19.2712 14.8293C19.2877 14.8238 19.5145 15.3264 19.776 15.9523C20.0439 16.587 20.3167 17.235 20.3884 17.4054C20.4578 17.5662 20.5098 17.6979 20.5046 17.7052C20.5001 17.7052 20.2408 17.4059 19.9372 17.0392C19.6363 16.6759 19.3745 16.3919 19.3522 16.3996C19.3388 16.4175 19.2218 16.6811 19.1012 16.9806C18.8869 17.5217 18.883 17.5307 18.8161 17.4279C18.7492 17.3295 18.7621 17.2352 18.9987 16.0861C19.1368 15.4082 19.2572 14.8411 19.2712 14.8293ZM12.7018 14.8254C12.7168 14.8471 12.8418 15.4071 12.9792 16.0773C13.2202 17.2481 13.2287 17.3122 13.153 17.4015C13.0816 17.4954 13.0723 17.4818 12.8669 16.9631C12.751 16.673 12.6395 16.4185 12.6257 16.3996C12.6077 16.3818 12.3758 16.6277 12.1081 16.9494C11.6212 17.5264 11.4688 17.6874 11.5046 17.589C11.6303 17.2342 12.684 14.8075 12.7018 14.8254ZM16.985 11.8195L17.9811 12.3156L17.9587 12.5392C17.9453 12.6645 17.9228 13.4561 17.905 14.3058L17.8776 15.8498L17.1813 16.1174C16.7975 16.2648 16.3729 16.4303 16.2341 16.4797L15.9889 16.5744L15.0456 16.2121L14.1032 15.8537L14.0719 14.3957C14.0541 13.5954 14.0316 12.804 14.0182 12.6291L13.9919 12.3156L14.9928 11.8195L15.9889 11.3224L16.985 11.8195ZM13.5719 14.7844C13.5586 15.6103 13.5404 16.2916 13.5358 16.3058C13.53 16.3028 13.4103 15.6924 13.2682 14.9455C13.1208 14.1806 13.0267 13.563 13.0446 13.5451C13.068 13.5223 13.2022 13.4511 13.3444 13.3888L13.6032 13.2775L13.5719 14.7844ZM18.3971 13.2775C18.4088 13.2787 18.5376 13.3313 18.6745 13.3976C18.8145 13.4634 18.9333 13.5204 18.9421 13.5226C18.9493 13.5359 18.585 15.4788 18.4557 16.1174C18.4468 16.1666 18.4238 16.046 18.4059 15.8537C18.3703 15.4613 18.3619 13.2937 18.3971 13.2775ZM12.6413 10.1994C12.6653 10.2174 13.5223 12.6557 13.53 12.7355C13.5344 12.7713 13.4004 12.8615 13.2175 12.9465L12.9001 13.089L12.8024 12.7453C12.722 12.4635 12.6989 12.2213 12.6676 11.3088C12.6498 10.705 12.6368 10.2083 12.6413 10.1994ZM18.9176 11.3761C19.2524 10.4375 19.3593 10.1827 19.3415 10.3478C19.3325 10.4735 19.3109 10.9964 19.2975 11.5148C19.2752 12.3149 19.2572 12.5036 19.1725 12.7717L19.069 13.0851L18.7428 12.9377C18.484 12.817 18.4262 12.7718 18.444 12.7092C18.4586 12.6612 18.6727 12.0629 18.9176 11.3761ZM16.6979 7.27459L17.4176 7.6281L17.6589 9.64959C17.7877 10.757 17.8809 11.6748 17.8688 11.6984C17.8554 11.7118 17.4307 11.5282 16.9216 11.2912C16.0424 10.8711 16.0011 10.8578 15.863 10.9113C15.7826 10.9426 15.394 11.1259 14.9967 11.3136C14.1625 11.7112 14.0897 11.7385 14.0895 11.6584C14.0898 11.6249 14.1926 10.7036 14.3219 9.61345L14.5544 7.63201L15.2643 7.27459L15.9792 6.92107L16.6979 7.27459ZM14.2126 5.60173C14.2384 5.63229 13.9925 7.12981 13.9587 7.14959C13.9453 7.14959 13.9094 7.13086 13.8737 7.10857C13.8201 7.07279 13.8419 6.94791 14.0026 6.32634C14.1093 5.91678 14.2029 5.5958 14.2126 5.60173ZM17.7624 5.60173C17.7734 5.60109 17.8709 5.92436 17.9723 6.32634C18.1327 6.94209 18.1548 7.07686 18.1061 7.10857C18.0707 7.13073 18.0349 7.14924 18.0212 7.14959C18.0073 7.14592 17.9409 6.80218 17.8698 6.38396C17.8031 5.96517 17.7539 5.61749 17.7624 5.60173ZM15.5319 2.5197C16.0362 2.33199 15.9343 2.32715 16.6354 2.59099L16.9704 2.72087L17.1403 4.80974C17.2338 5.96048 17.3093 6.92461 17.3053 6.96111C17.3053 6.9924 17.0326 6.88093 16.6354 6.67986L15.9655 6.34392L15.2946 6.67986C14.9285 6.86313 14.6247 7.00145 14.6247 6.98357C14.6115 6.7813 15.007 2.7559 15.0446 2.71209C15.0687 2.69801 15.2874 2.60874 15.5319 2.5197ZM17.7087 5.46794C17.7087 5.41874 17.7226 5.40482 17.736 5.4406C17.7494 5.47191 17.7445 5.51214 17.7311 5.52556C17.7178 5.54323 17.7043 5.51676 17.7087 5.46794Z" fill="var(--fill-0, #2F3037)"/>
<path id="Union_3" d="M44.464 13.4521H49.295L50.2853 10.4004H53.3175L48.7042 23.7822H45.0587L40.4386 10.4004H43.4708L44.464 13.4521ZM67.753 13.585L68.5069 14.4473L71.2423 10.4004H74.503L70.5899 16.0889L74.3136 20.4365H71.1183L67.9034 16.6269H67.753V23.7822H64.9698V10.4004H67.753V13.585ZM83.296 13.4521H88.1271L89.1173 10.4004H92.1495L87.5362 23.7822H83.8907L79.2706 10.4004H82.3028L83.296 13.4521ZM147.666 10.2373C148.206 10.2374 148.664 10.3264 149.038 10.5049C149.417 10.6834 149.724 10.9078 149.959 11.1777C150.199 11.4521 150.384 11.729 150.515 12.0078H150.632V10.4004H153.376V23.7822H150.6V18.751H150.515C150.393 19.0209 150.214 19.2955 149.979 19.5742C149.748 19.8572 149.442 20.093 149.064 20.2803C148.689 20.4717 148.221 20.5674 147.659 20.5674C146.923 20.5673 146.246 20.3755 145.627 19.9922C145.013 19.6133 144.521 19.0407 144.15 18.2744C143.78 17.5122 143.595 16.5551 143.595 15.4053C143.595 14.286 143.774 13.3403 144.131 12.5693C144.492 11.8031 144.98 11.2215 145.594 10.8252C146.212 10.4332 146.904 10.2373 147.666 10.2373ZM46.8292 20.7246H46.9337L48.5782 15.6602H45.1817L46.8292 20.7246ZM85.6612 20.7246H85.7657L87.4103 15.6602H84.0138L85.6612 20.7246ZM117.46 16.0781C117.46 16.4874 117.552 16.8496 117.734 17.1631C117.922 17.4766 118.175 17.7203 118.493 17.8945C118.816 18.073 119.182 18.163 119.591 18.1631C119.782 18.1631 119.994 18.1476 120.225 18.1172C120.455 18.0867 120.636 18.0518 120.767 18.0127V20.4824C120.645 20.5129 120.503 20.5373 120.342 20.5547C120.181 20.5721 120.03 20.5801 119.891 20.5801C119.329 20.58 118.833 20.4189 118.401 20.0967C117.97 19.7787 117.663 19.3083 117.48 18.6855H117.375V20.4365H114.677V10.4004H117.46V16.0781ZM58.7511 10.2041C59.6221 10.2041 60.3913 10.3418 61.0577 10.6162C61.7284 10.895 62.2555 11.2828 62.6388 11.7793C63.0263 12.2758 63.2198 12.8531 63.2198 13.5107C63.2197 14.2336 62.9802 14.8175 62.5011 15.2617C62.0219 15.7058 61.294 16.0282 60.3185 16.2285L58.5021 16.5947C58.0363 16.6949 57.7073 16.8277 57.5157 16.9932C57.3243 17.1586 57.2287 17.3612 57.2286 17.6006C57.2287 17.901 57.3768 18.1408 57.673 18.3193C57.9691 18.5022 58.3327 18.5937 58.7638 18.5937C59.086 18.5937 59.363 18.5395 59.5939 18.4307C59.8289 18.3262 60.0185 18.1843 60.1622 18.0059C60.3058 17.8317 60.3999 17.6356 60.4435 17.418L62.9913 17.5752C62.8692 18.4982 62.4426 19.228 61.711 19.7637C60.9836 20.2993 59.9854 20.5674 58.7179 20.5674C57.8599 20.5673 57.1101 20.4411 56.4698 20.1885C55.8342 19.9359 55.3402 19.5762 54.9874 19.1103C54.639 18.6444 54.4641 18.0888 54.464 17.4443C54.464 16.6952 54.7022 16.0782 55.1769 15.5947C55.656 15.1114 56.3856 14.7712 57.3653 14.5752L59.1036 14.2295C59.5389 14.1424 59.8613 14.0159 60.0704 13.8506C60.2794 13.6895 60.3863 13.482 60.3907 13.2295C60.3863 12.929 60.2341 12.6828 59.9337 12.4912C59.6375 12.3039 59.2448 12.21 58.7569 12.21C58.2607 12.21 57.8531 12.3145 57.5353 12.5234C57.2174 12.7369 57.0174 13.0471 56.9347 13.4521L54.1964 13.3076C54.3315 12.3496 54.7915 11.5917 55.5753 11.0342C56.3637 10.481 57.4226 10.2041 58.7511 10.2041ZM137.543 10.2041C138.37 10.2041 139.1 10.3305 139.732 10.583C140.368 10.84 140.886 11.1979 141.287 11.6553C141.692 12.1169 141.96 12.657 142.091 13.2754L139.516 13.4453C139.42 13.1927 139.281 12.9789 139.098 12.8047C138.915 12.6305 138.695 12.5002 138.438 12.4131C138.181 12.326 137.897 12.2822 137.588 12.2822C137.122 12.2823 136.72 12.3804 136.38 12.5762C136.04 12.7721 135.776 13.0508 135.589 13.4121C135.406 13.7736 135.315 14.2037 135.315 14.7002V14.706H142.15V15.4707C142.149 16.3242 142.03 17.0692 141.79 17.7051C141.551 18.3453 141.214 18.8773 140.783 19.2998C140.356 19.7221 139.855 20.038 139.28 20.2471C138.71 20.4604 138.094 20.5674 137.432 20.5674C136.448 20.5673 135.589 20.3495 134.858 19.9141C134.13 19.4785 133.566 18.8704 133.165 18.0908C132.764 17.3112 132.564 16.4052 132.564 15.373C132.564 14.3147 132.764 13.3974 133.165 12.6221C133.566 11.8512 134.137 11.2545 134.877 10.832C135.622 10.4139 136.511 10.2041 137.543 10.2041ZM158.525 10.2109C159.021 10.2109 159.459 10.2766 159.838 10.4072C160.217 10.5422 160.542 10.7268 160.812 10.9619C161.082 11.2015 161.298 11.4784 161.459 11.792H161.537V10.4004H164.177V17.1699C164.177 17.7663 164.062 18.2784 163.831 18.7051C163.6 19.1362 163.284 19.4893 162.883 19.7637C162.487 20.0379 162.031 20.2405 161.518 20.3711C161.008 20.5017 160.474 20.5673 159.917 20.5674C159.116 20.5674 158.41 20.445 157.8 20.2012C157.194 19.9616 156.7 19.6176 156.317 19.1689C155.933 18.7247 155.676 18.1976 155.545 17.5879L158.12 17.3789C158.216 17.7098 158.412 17.9844 158.708 18.2021C159.004 18.4241 159.403 18.5351 159.903 18.5352C160.378 18.5352 160.744 18.4216 161.001 18.1953C161.262 17.9689 161.394 17.6489 161.394 17.2353V17.1953C161.394 16.9821 161.313 16.8207 161.151 16.7119C160.99 16.6031 160.731 16.5205 160.374 16.4639C160.017 16.4116 159.547 16.3549 158.963 16.2939C158.466 16.246 157.991 16.1635 157.538 16.0459C157.09 15.9283 156.689 15.7542 156.336 15.5234C155.983 15.2926 155.704 14.9873 155.499 14.6084C155.294 14.2295 155.193 13.7605 155.192 13.2031C155.193 12.5413 155.337 11.9881 155.624 11.5439C155.916 11.1042 156.312 10.7704 156.813 10.5439C157.313 10.3219 157.884 10.211 158.525 10.2109ZM94.169 6.63671C94.8573 6.63671 95.4458 6.74758 95.9337 6.96972C96.4214 7.18748 96.8238 7.49935 97.1417 7.90429C97.464 8.30495 97.7191 8.77544 97.9064 9.31542L101.808 20.4365H98.8605L96.7628 13.0664H96.6583L94.5812 20.4365H91.6534L95.254 10.1133L95.0899 9.68847C94.968 9.37483 94.8094 9.15216 94.6134 9.02148C94.4217 8.89085 94.1925 8.83015 93.9269 8.83886C93.6657 8.84765 93.3714 8.90185 93.045 9.00195L92.4181 6.92382C92.6184 6.84113 92.8712 6.77392 93.1759 6.72167C93.4851 6.66506 93.8163 6.63673 94.169 6.63671ZM106.629 10.2695C107.383 10.2695 108.021 10.4485 108.544 10.8057C109.071 11.1628 109.447 11.6356 109.674 12.2236H109.778V10.4004H112.451V20.4365H109.668V14.6738C109.672 14.2252 109.582 13.8479 109.4 13.543C109.221 13.2383 108.986 13.0073 108.694 12.8506C108.403 12.6981 108.088 12.6221 107.753 12.6221C107.226 12.6222 106.806 12.7939 106.492 13.1377C106.179 13.4818 106.019 13.9507 106.015 14.543V20.4365H103.232V14.0459C103.236 13.2621 103.38 12.5891 103.663 12.0273C103.951 11.4656 104.349 11.0314 104.859 10.7266C105.368 10.4218 105.958 10.2696 106.629 10.2695ZM131.87 20.4365H128.923L126.845 13.2559H126.74L124.656 20.4365H121.716L125.225 10.4004H128.361L131.87 20.4365ZM135.318 16.4316C135.335 16.7918 135.427 17.1208 135.596 17.418C135.779 17.7445 136.031 18.0037 136.354 18.1953C136.68 18.3913 137.055 18.4892 137.478 18.4893C137.882 18.4892 138.237 18.4 138.542 18.2217C138.851 18.0475 139.093 17.8052 139.268 17.4961C139.442 17.187 139.529 16.8321 139.529 16.4316H135.318ZM148.548 12.4521C148.091 12.4522 147.704 12.576 147.391 12.8242C147.082 13.0768 146.844 13.426 146.679 13.8701C146.518 14.3187 146.438 14.8355 146.438 15.4189C146.438 15.9979 146.518 16.5075 146.679 16.9473C146.84 17.3869 147.077 17.7313 147.391 17.9795C147.704 18.2277 148.091 18.3525 148.548 18.3525C148.996 18.3525 149.378 18.2326 149.692 17.9932C150.005 17.7536 150.245 17.4134 150.41 16.9736C150.576 16.5339 150.658 16.0154 150.658 15.4189C150.658 14.8222 150.573 14.3007 150.403 13.8564C150.238 13.4124 149.998 13.0666 149.685 12.8184C149.375 12.5744 148.997 12.4522 148.548 12.4521ZM159.322 12.1318C158.896 12.1319 158.542 12.2299 158.264 12.4258C157.99 12.6261 157.852 12.9161 157.852 13.2949C157.852 13.5562 157.92 13.7741 158.055 13.9482C158.19 14.1267 158.379 14.2685 158.623 14.373C158.867 14.4775 159.152 14.5536 159.479 14.6016C159.631 14.6233 159.801 14.6477 159.988 14.6738C160.176 14.7043 160.364 14.7366 160.551 14.7715C160.738 14.8107 160.906 14.852 161.054 14.8955C161.206 14.9434 161.326 14.9961 161.413 15.0527V13.9873C161.413 13.6347 161.324 13.3187 161.146 13.04C160.967 12.7612 160.72 12.5395 160.406 12.374C160.093 12.213 159.732 12.1319 159.322 12.1318Z" fill="var(--fill-0, #2F3037)"/>
</g>
</svg>
