<svg preserveAspectRatio="xMidYMid meet" overflow="visible" style="display: block;" viewBox="0 0 197 36" fill="none" xmlns="http://www.w3.org/2000/svg">
<path id="Vector" fill-rule="evenodd" clip-rule="evenodd" d="M6.58327 2.69072C4.17853 6.12037 2.46911 9.69588 1.2157 13.9175C0.414614 16.6153 0.189379 18.2568 0.0451388 22.4536C-0.145332 27.9724 0.230801 30.3996 1.8707 34.2371C2.5845 35.9072 2.69989 36 4.05796 36C4.84647 36 5.49185 35.9525 5.49185 35.8942C5.49185 35.8363 5.15714 34.8328 4.74809 33.6648C3.55719 30.2652 3.06123 24.7702 3.55978 20.5048C4.31168 14.0749 7.02006 6.50041 10.1109 2.18301C10.825 1.1854 11.4094 0.286144 11.4094 0.184825C11.4094 0.0831341 10.7481 0 9.93962 0C8.53531 0 8.38627 0.119505 6.58327 2.69072ZM191.698 0.835052C193.171 5.56515 193.443 7.69064 193.278 13.1753C193.155 17.2169 192.901 19.5049 192.348 21.5258C191.259 25.5099 189.059 30.5614 187.205 33.3356C186.326 34.6509 185.607 35.7981 185.607 35.8849C185.607 35.9718 186.308 35.9915 187.165 35.9284C188.67 35.8185 188.797 35.7061 190.851 32.6609C194.734 26.9042 196.633 21.0667 196.949 13.9175C197.162 9.11282 196.725 6.11629 195.23 2.13402C194.437 0.0204123 194.416 0 192.934 0C191.552 0 191.458 0.063835 191.698 0.835052ZM152.563 4.36082C152.465 4.71786 152.28 5.63678 152.151 6.40206L151.917 7.79381L153.691 7.79085C155.367 7.78825 155.51 7.70771 156.296 6.32561C157.621 3.99823 157.471 3.71134 154.934 3.71134C153.159 3.71134 152.706 3.8353 152.563 4.36082ZM63.1911 8.57282C58.1457 9.56412 55.4554 12.9611 55.4299 18.3737C55.4062 23.3391 57.6841 26.1315 62.7299 27.3229C67.5294 28.456 73.0286 27.3359 75.6671 24.6882C76.5333 23.819 77.2419 22.8678 77.2419 22.5742C77.2419 22.2807 76.1098 21.4909 74.7262 20.8191L72.2102 19.5977L70.8798 20.9327C69.646 22.1708 69.3864 22.268 67.3171 22.268C64.4537 22.268 63.3642 21.8338 62.4496 20.3289C60.9358 17.8374 62.0845 14.7236 64.855 13.8073C66.8045 13.1626 69.6186 13.8188 71.0455 15.2506L72.0744 16.2831L74.6582 15.1378C76.0791 14.508 77.2419 13.8444 77.2419 13.6637C77.2419 12.9351 75.9304 11.4012 74.4085 10.3506C71.7893 8.54202 67.1159 7.80161 63.1911 8.57282ZM12.5115 9C12.5075 9.05122 12.4657 13.2265 12.4191 18.2784L12.334 27.4643L15.3852 27.4639H18.4365V24.3093V21.1546H24.9087H31.381V18.7423V16.3299H24.9087H18.4365V15.0309V13.732H25.2786H32.1207V11.3196V8.90722H22.3198C16.9293 8.90722 12.5156 8.94878 12.5115 9ZM38.6563 9.18557C38.3693 9.66841 31.7509 26.9447 31.7509 27.2104C31.7509 27.35 33.2195 27.4639 35.0144 27.4639H38.2783L38.8238 25.701L39.3693 23.9381H43.4088H47.4482L48.0622 25.6082L48.6761 27.2783L52.0935 27.3856C54.7645 27.4695 55.4709 27.3886 55.3263 27.0145C55.2246 26.7513 53.8717 23.2378 52.3195 19.2062C50.7676 15.1749 49.2313 11.2086 48.9054 10.3918L48.3137 8.90722H43.5675C40.9575 8.90722 38.7473 9.03229 38.6563 9.18557ZM79.4691 15.3093C79.4761 20.7167 79.5827 21.9444 80.1563 23.2111C81.4544 26.0788 83.6565 27.2835 88.3865 27.7129C93.2007 28.1498 97.5106 26.6767 99.3653 23.9608C100.675 22.042 100.912 20.605 100.912 14.5696V8.90722H97.5834H94.2548V14.8183V20.7297L93.2803 21.4987C91.9403 22.5568 88.0795 22.5928 86.8065 21.5595C85.9643 20.8759 85.9292 20.6388 85.8153 14.8791L85.6973 8.90722H82.5791H79.461L79.4691 15.3093ZM102.761 18.1856V27.4639H111.822H120.884V25.8402C120.884 24.9473 120.993 23.6676 121.127 22.9966L121.37 21.777L115.209 22.0305L109.049 22.2836V15.5954V8.90722H105.905H102.761V18.1856ZM119.774 11.6299V14.3525L123.658 14.1792L127.541 14.0059V20.7349V27.4639H130.87H134.198V20.7349V14.0059L138.082 14.1792L141.965 14.3525V11.6299V8.90722H130.87H119.774V11.6299ZM143.814 18.1856V27.4639H153.8H163.786V24.8816V22.2988L156.944 22.5275L150.101 22.7557V21.351V19.9462L156.019 20.2153L161.937 20.4844V18.1147V15.7454L156.019 15.8964L150.101 16.0475V14.8981V13.7487L156.851 13.6477L163.601 13.5464L163.711 11.2268L163.821 8.90722H153.818H143.814V18.1856ZM165.711 11.5979L165.82 14.2887L169.611 14.1599L173.402 14.0307V20.7475V27.4639H176.73H180.059V20.7349V14.0059L183.942 14.1792L187.826 14.3525V11.6299V8.90722H176.714H165.602L165.711 11.5979ZM42.3814 15.8285C41.8599 17.2269 41.3169 18.6636 41.1753 19.0206C40.9456 19.5996 41.1827 19.6701 43.3615 19.6701C44.7055 19.6701 45.805 19.6278 45.805 19.5758C45.805 19.3227 43.9573 14.4108 43.6647 13.8867C43.4055 13.4217 43.1148 13.8615 42.3814 15.8285Z" fill="var(--fill-0, #2F3037)"/>
</svg>
