<svg preserveAspectRatio="xMidYMid meet" overflow="visible" style="display: block;" viewBox="0 0 108.002 16" fill="none" xmlns="http://www.w3.org/2000/svg">
<g id="Frame 2131330103">
<g id="Vector">
<path d="M37.9685 0.00694397H34.162L30.1451 5.32775L26.1218 0.00694397H22.2898L28.2387 7.83814L22.0539 15.9938H25.8859L30.1451 10.3546L34.3979 15.9938H38.2043L32.0452 7.83814" fill="var(--fill-0, #2F3037)"/>
<path d="M47.7471 9.32598H55.5258V6.49111H47.7471V2.83572H56.8329V0.00694397H44.5591V15.9938H56.9477V13.1651H47.7471" fill="var(--fill-0, #2F3037)"/>
<path d="M88.8913 0.00694397H85.7029V16H88.8913V0.00694397Z" fill="var(--fill-0, #2F3037)"/>
<path d="M99.6044 0.00694397H96.4168V15.9938H108.002V13.1651H99.6044" fill="var(--fill-0, #2F3037)"/>
<path d="M0.00195312 15.9869H3.34936L5.89339 11.0641L8.43741 6.15352L12.1993 13.4398L13.5 15.9808H16.8601L8.43103 0L0.00195312 15.9869ZM8.7371 2.41855L8.76263 2.46754H8.71158L8.7371 2.41855Z" fill="var(--fill-0, #2F3037)"/>
<path d="M71.0313 9.83418L67.2694 2.54795L65.9687 0.00694397H62.6085L71.044 15.9938L79.4795 0.00694397H76.1321L71.0313 9.83418ZM70.7444 13.5753L70.7125 13.5263H70.7635L70.7444 13.5753Z" fill="var(--fill-0, #2F3037)"/>
<path d="M104.768 1.80013H105.068V0.269408H105.725V0H104.111V0.269408H104.768" fill="var(--fill-0, #2F3037)"/>
<path d="M107.696 0L106.988 1.20009L106.28 0H105.98V1.80013H106.28V0.544939L106.892 1.58584H107.09L107.696 0.544939V1.80013H108.002V0" fill="var(--fill-0, #2F3037)"/>
</g>
</g>
</svg>
