<svg preserveAspectRatio="xMidYMid meet" overflow="visible" style="display: block;" viewBox="0 0 105.522 31.9439" fill="none" xmlns="http://www.w3.org/2000/svg">
<g id="Group">
<path id="Vector" d="M78.5007 21.0415C77.9245 20.1988 77.2008 19.5165 76.3164 19.0216C75.432 18.5267 74.4939 18.1655 73.4889 17.9381C72.4839 17.7107 71.5459 17.4966 70.6615 17.296C69.777 17.0953 69.0533 16.868 68.4771 16.6004C67.9009 16.3328 67.6195 15.9316 67.6195 15.3698C67.6195 14.6876 67.9009 14.2193 68.4503 13.9384C69.0132 13.6575 69.576 13.5237 70.1656 13.5237C70.7284 13.5237 71.251 13.5906 71.7335 13.7378C72.3365 13.9116 73.1673 14.4601 73.3951 14.5939C73.6229 14.7276 74.0383 15.0219 74.4538 15.1156C76.102 15.5303 77.3215 14.6741 77.9513 13.0422C78.3398 12.0389 78.4872 11.2229 78.4872 11.2229C78.4337 11.1694 77.8173 10.5006 76.8122 9.87188C76.0886 9.41706 75.3382 9.08264 74.6145 8.88199C73.1003 8.45393 71.5995 8.23991 70.112 8.23991C68.9328 8.23991 67.7804 8.38705 66.6413 8.68133C65.5022 8.97563 64.4839 9.43044 63.5995 10.0458C62.715 10.6611 62.0048 11.4504 61.4687 12.4001C60.9328 13.3632 60.6513 14.5003 60.6513 15.8246C60.6513 17.2425 60.9328 18.3795 61.509 19.2356C62.0852 20.0917 62.8088 20.7338 63.6932 21.202C64.5776 21.6702 65.5157 22.018 66.5207 22.2454C67.5257 22.4728 68.4638 22.7002 69.3482 22.8875C70.2326 23.0882 70.9562 23.3423 71.5324 23.6232C72.1087 23.9175 72.3901 24.3589 72.3901 24.9475C72.3901 25.5629 72.0685 25.9909 71.4119 26.2183C70.7552 26.4457 70.0316 26.5661 69.2276 26.5661C68.169 26.5661 67.2578 26.3521 66.4671 25.9374C65.6765 25.5227 64.9528 24.9074 64.3097 24.1047L60.0885 28.7866C61.2008 29.9236 62.5676 30.7263 64.1757 31.1678C65.7837 31.6225 67.3783 31.8366 68.9462 31.8366C70.1522 31.8366 71.3717 31.7162 72.6045 31.4888C73.8373 31.2613 74.9496 30.8601 75.9412 30.2848C76.9329 29.7096 77.7368 28.9606 78.3801 28.0108C79.0099 27.0744 79.3315 25.8706 79.3315 24.4259C79.3582 23.0212 79.0769 21.8842 78.5007 21.0415Z" fill="var(--fill-0, #2F3037)"/>
<path id="Vector_2" d="M56.5043 14.7678C56.129 13.2963 55.526 12.0657 54.7219 11.0892C53.918 10.1127 52.8593 9.41706 51.5594 8.9355C50.2865 8.45393 48.6784 8.23991 46.7889 8.23991C44.9531 8.23991 43.3585 8.57433 41.9917 9.08264C38.8425 10.2598 37.1139 11.758 37.0736 11.8115C37.0736 11.8115 37.2881 12.9218 37.7437 13.8849C38.4941 15.4366 39.7671 16.1723 41.3617 15.6373C41.7638 15.5035 42.206 15.1958 42.4338 15.0487C44.1759 13.9251 45.2211 13.7378 46.3199 13.7378C47.2981 13.7378 48.1692 13.9786 48.9465 14.5136C49.7236 15.0353 50.1257 15.8646 50.1257 16.9616V17.3093C48.4908 17.3093 46.8425 17.403 45.1407 17.5903C43.4389 17.7642 41.8844 18.112 40.5042 18.6605C39.0971 19.1821 37.9715 19.958 37.0871 20.9345C36.2026 21.911 35.7604 23.2085 35.7604 24.8405C35.7604 26.1648 36.015 27.2751 36.5109 28.1713C37.0067 29.0676 37.6633 29.7766 38.4673 30.325C39.2713 30.8735 40.1424 31.248 41.1072 31.5021C42.0586 31.7295 42.9832 31.85 43.8944 31.85C45.2211 31.85 46.4807 31.5958 47.6331 31.1008C48.7856 30.6059 49.6432 29.8701 50.2194 28.9471H50.3401V31.3283H57.067V20.065C57.0537 18.005 56.8795 16.2526 56.5043 14.7678ZM50.3534 22.3257C50.3534 23.757 49.9782 24.8539 49.1742 25.6832C48.3701 26.5126 47.2445 26.9139 45.7437 26.9139C45.3685 26.9139 45.0201 26.8871 44.6181 26.8203C44.2429 26.7401 43.8944 26.6196 43.5863 26.4457C43.2914 26.2718 43.0368 26.0177 42.8359 25.7234C42.6348 25.4291 42.5411 25.0679 42.5411 24.6532C42.5411 23.971 42.742 23.4494 43.1709 23.048C43.5997 22.6467 44.1223 22.3257 44.7789 22.125C45.4355 21.9244 46.1591 21.7772 46.99 21.697C47.7939 21.6167 48.6248 21.6033 49.4288 21.6033H50.3802V22.3257H50.3534Z" fill="var(--fill-0, #2F3037)"/>
<path id="Vector_3" d="M31.8662 25.2821C31.8662 25.2821 30.7942 25.8975 29.4675 25.6567C29.2129 25.6166 28.9717 25.5229 28.7305 25.4026C30.7137 22.7539 31.893 19.4766 31.893 15.9183C31.893 7.12983 24.7505 0 15.9465 0C7.14241 0 0 7.12983 0 15.9183C0 24.7069 7.14241 31.8368 15.9465 31.8368C18.7337 31.8368 21.3468 31.1145 23.6249 29.8703C24.3753 30.6596 25.4206 31.489 26.6936 31.7432C29.0922 32.198 30.8343 31.101 31.5445 29.6296C32.1475 28.3455 32.1878 26.8205 31.8662 25.2821ZM15.9331 25.1083C10.8677 25.1083 6.74041 20.9882 6.74041 15.9318C6.74041 10.8753 10.8677 6.75528 15.9331 6.75528C20.9984 6.75528 25.1391 10.8619 25.1391 15.9183C25.1391 17.47 24.7505 18.9415 24.0537 20.2257C23.8527 19.9715 23.6785 19.7307 23.5579 19.5702C23.0889 18.9282 22.6064 18.2727 22.1374 17.6039C21.5211 16.7343 20.1007 14.9953 18.1442 14.6208C15.7455 14.166 14.0034 15.263 13.2932 16.7343C12.6902 18.0185 12.65 19.5435 12.9582 21.0684C12.9582 21.0684 14.0302 20.4531 15.3569 20.6939C16.3217 20.8677 17.2329 21.6035 18.3987 23.0482C18.4926 23.1686 18.8945 23.7037 19.4306 24.3993C18.3586 24.8541 17.1793 25.1083 15.9331 25.1083Z" fill="var(--fill-0, #2F3037)"/>
<path id="Vector_4" d="M104.691 15.1827C104.142 13.7113 103.364 12.4271 102.386 11.3836C101.408 10.3269 100.229 9.5243 98.8487 8.97586C97.4684 8.4274 95.9675 8.14648 94.3059 8.14648C92.6041 8.14648 90.996 8.4274 89.5353 9.00261C88.0747 9.5778 86.8017 10.3804 85.7297 11.4104C84.6576 12.4672 83.8 13.7113 83.1702 15.196C82.5404 16.6675 82.2188 18.3262 82.2188 20.1589C82.2188 22.0316 82.5136 23.7171 83.1702 25.1885C83.8268 26.66 84.6978 27.8906 85.8234 28.8939C86.949 29.8972 88.2624 30.6462 89.7632 31.168C91.264 31.6897 92.8453 31.9438 94.5338 31.9438C96.785 31.9438 98.7951 31.5157 100.497 30.7132C102.198 29.8838 103.579 28.7066 104.638 27.1817L104.624 27.1683L104.638 27.155C104.638 27.155 104.356 26.3523 103.82 25.4026C102.949 23.8643 101.596 23.182 100.001 23.8374C99.599 23.998 99.2372 24.3458 99.0228 24.5196C98.862 24.6534 98.2054 25.2421 97.5488 25.6166C96.7582 26.058 95.7666 26.2721 94.5874 26.2721C93.9306 26.2721 93.2875 26.1516 92.6845 25.951C92.0815 25.7503 91.532 25.4561 91.0228 25.0681C90.5404 24.6936 90.1383 24.2388 89.8168 23.7438C89.522 23.2489 89.3209 22.6737 89.2673 22.0449H105.469C105.495 21.7641 105.522 21.4966 105.522 21.1889V20.2926C105.522 18.3931 105.24 16.6809 104.691 15.1827ZM89.2673 17.4567C89.2941 16.9083 89.4416 16.3598 89.7229 15.8248C90.0043 15.303 90.3528 14.8483 90.795 14.447C91.2506 14.0457 91.7732 13.7513 92.3762 13.524C92.9793 13.2965 93.6359 13.203 94.3595 13.203C95.8202 13.203 96.919 13.631 97.6426 14.4603C98.3662 15.2897 98.7414 16.293 98.7414 17.4702H89.2673V17.4567Z" fill="var(--fill-0, #2F3037)"/>
</g>
</svg>
