<svg preserveAspectRatio="xMidYMid meet" overflow="visible" style="display: block;" viewBox="0 0 180.001 23.9996" fill="none" xmlns="http://www.w3.org/2000/svg">
<path id="Union" d="M18.7232 9.36069e-05C29.2171 0.00553671 31.0032 0.177462 33.7222 1.45029C35.5984 2.32868 37.8744 4.64297 38.9117 6.72666C39.7099 8.33036 39.768 8.66675 39.772 11.7403C39.7763 14.8332 39.7215 15.1502 38.8853 16.9112C37.1226 20.6245 33.5704 23.1557 29.1831 23.8253C23.8538 24.6383 15.1585 22.5331 9.44682 19.047C7.71855 17.9923 6.26725 16.7484 6.26616 16.3214C6.26616 16.1741 7.9759 16.0188 10.0777 15.9747C12.8973 15.9157 13.8888 15.801 13.8892 15.5352C13.8892 15.3379 12.3692 14.3442 10.5122 13.3272C4.63546 10.1094 -0.278176 6.51424 0.0122497 5.64462C0.0996921 5.38307 2.07056 5.27585 7.80034 5.21884C13.6489 5.16044 15.4674 5.05838 15.4664 4.78916C15.4638 4.59464 14.2017 3.82773 12.6617 3.08603C9.4916 1.55894 8.3931 0.79451 8.68705 0.320406C8.83299 0.0873409 11.6832 -0.00333897 18.7232 9.36069e-05ZM52.0552 4.00888C53.9154 3.62042 58.2026 3.96531 60.3423 4.6749L62.2124 5.29502L62.2984 7.12119C62.3775 8.78657 62.3396 8.92871 61.8677 8.72959C57.6921 6.96831 50.8501 6.97585 50.8501 8.74228C50.8503 9.53796 52.1754 9.95676 55.7398 10.2882C61.6491 10.8376 63.5145 12.1761 63.1187 15.5811C62.9769 16.7995 62.7634 17.2137 61.8238 18.0929C61.1375 18.7352 60.1027 19.323 59.1734 19.5977C56.2568 20.4605 51.2688 19.9976 48.5406 18.6114L47.399 18.0313V14.3087L48.8316 15.0323C52.9554 17.1134 59.4798 17.1302 59.48 15.0597C59.48 14.6632 59.2528 14.2222 58.9761 14.0792C58.6994 13.9363 56.7904 13.6642 54.7339 13.4757C48.9414 12.9451 47.2544 11.9075 47.2544 8.87314C47.2545 7.6241 47.4079 6.993 47.856 6.38974C48.6042 5.38259 50.4265 4.34898 52.0552 4.00888ZM150.083 4.10752C152.873 3.50858 156.206 3.79323 159.125 4.88095L160.729 5.47861V7.21103C160.729 8.73125 160.667 8.92262 160.225 8.77939C156.92 7.70884 155.476 7.44345 152.96 7.44345C150.133 7.44347 148.935 7.82986 148.935 8.74228C148.935 9.52509 150.258 9.95554 153.681 10.2852C157.984 10.6998 159.142 11.0392 160.348 12.2403C161.221 13.11 161.304 13.3421 161.304 14.9386C161.304 16.6125 161.252 16.7365 160.079 17.9054C159.228 18.7527 158.378 19.2664 157.294 19.587C154.343 20.4599 149.368 20.0048 146.626 18.6114L145.484 18.0313V14.3087L146.917 15.0323C151.06 17.1232 157.565 17.1295 157.565 15.0431C157.565 14.0528 156.958 13.8452 152.962 13.464C147.802 12.9712 146.427 12.4018 145.592 10.4122C145.05 9.1189 145.095 8.19113 145.762 6.88779C146.453 5.53819 147.974 4.55987 150.083 4.10752ZM142.895 8.81064C142.895 14.2772 142.543 15.7851 140.835 17.63C139.176 19.4227 137.134 20.1392 134.119 19.9874C130.423 19.8012 128.032 18.1901 126.884 15.1114C126.565 14.2546 126.386 12.4553 126.284 9.09091L126.138 4.29209H130.239V8.90439C130.239 14.3016 130.485 15.1392 132.342 16.0831C133.796 16.8215 136.198 16.7073 137.37 15.8438C138.787 14.7993 138.991 13.9856 139.079 9.01865L139.16 4.43564L141.027 4.35068L142.895 4.26572V8.81064ZM31.4497 4.56845C29.9411 3.92158 28.0154 3.71184 26.4429 4.02353C22.6409 4.77766 20.0729 7.99093 20.0728 11.9942C20.0728 18.8273 28.2834 22.5111 33.439 17.9913C37.8655 14.1104 36.7909 6.86007 31.4497 4.56845ZM89.5533 4.29209L91.4869 10.2364C92.5508 13.5057 93.4214 16.3423 93.4214 16.5392C93.421 17.3689 93.9988 16.8033 94.2994 15.6798C94.4783 15.01 95.1874 12.7218 95.8746 10.5948C96.5616 8.46814 97.2817 6.18016 97.4751 5.50986L97.8267 4.29209H104.351V19.4034C104.351 19.5214 103.542 19.6183 102.553 19.6183H100.755L100.612 13.5431L100.468 7.46689L98.4703 13.6241L96.4722 19.7804L93.5826 19.6993L90.6939 19.6183L90.1734 18.0431C89.8872 17.1765 88.9531 14.3401 88.0982 11.7403L86.5435 7.01377L86.5181 19.7618H82.7779V4.29209H89.5533ZM79.9019 4.29209V7.44345H69.2593V10.3077H79.9322L79.8453 11.8116L79.7583 13.3165L74.5083 13.3946L69.2593 13.4718V16.3243H79.9019V19.7618H65.5201V4.29209H79.9019ZM114.14 4.29209C121.081 4.29209 121.69 4.40434 123.153 5.9542C124.143 7.00329 124.593 8.98724 124.217 10.6505C123.926 11.9437 122.804 13.266 121.372 14.004L120.416 14.4962L122.429 16.9054C123.536 18.2303 124.38 19.4153 124.303 19.5382C124.227 19.6614 123.275 19.7618 122.188 19.7618H120.211L118.15 17.255L116.089 14.7481L113.815 14.6056L111.542 14.462V17.1114L111.543 19.7618H107.803V4.29209H114.14ZM167.344 4.29209V10.0216H176.548V4.29209H180.001V19.7618H176.548V13.7462H167.344V19.7618H163.605V4.29209H167.344ZM27.3824 6.43955C27.6306 5.45592 28.9844 5.48264 31.022 6.51181C33.0187 7.52022 34.1946 9.13995 34.3882 11.1476L34.5279 12.5997H33.3316C32.1058 12.5997 32.0645 12.5589 31.73 11.0499C31.4647 9.85447 29.8756 8.38623 28.5865 8.1456C27.3957 7.92299 27.1106 7.51831 27.3824 6.43955ZM111.543 11.1671H115.569C119.212 11.1671 119.651 11.1132 120.171 10.5948C120.894 9.8752 120.902 9.13051 120.198 8.26279C119.675 7.61907 119.453 7.58207 115.595 7.49326L111.543 7.39951V11.1671Z" fill="var(--fill-0, #2F3037)"/>
</svg>
