<svg preserveAspectRatio="xMidYMid meet" overflow="visible" style="display: block;" viewBox="0 0 176.821 23.999" fill="none" xmlns="http://www.w3.org/2000/svg">
<path id="Union" d="M73.4365 1.16211C71.4322 3.45524 70.012 6.91705 69.1748 11.5469H69.4023C70.0612 11.5469 70.8829 11.2477 71.8643 10.6494C71.6604 12.2831 70.8441 13.0996 69.416 13.0996H68.8584C68.5995 14.4675 68.4722 15.8578 68.4775 17.25C68.4776 19.6705 69.2266 20.8808 70.7236 20.8809C71.3412 20.8809 72.0259 20.62 72.7793 20.0986C72.653 21.7656 71.5526 22.5993 69.4795 22.5986C67.0528 22.5986 65.8369 20.7566 65.8369 17.0732C65.8454 15.738 65.9879 14.4066 66.2627 13.0996L59.6035 13.0986L58.0068 21.0459C57.8371 21.8193 57.752 22.3708 57.752 22.6992C57.7626 22.9253 57.8151 23.1478 57.9053 23.3555C57.0534 23.7841 56.28 23.9984 55.583 23.999C55.1332 23.999 54.9102 23.8224 54.9102 23.4697C54.9102 23.2937 54.9943 22.7722 55.1641 21.9053L56.9316 13.0986H56.4111C55.1687 13.0986 53.8821 13.4434 52.5537 14.1328C52.9081 13.115 53.3793 12.4292 53.9629 12.0752C54.5476 11.7214 55.4954 11.5452 56.8047 11.5459H57.251L58.5586 4.9873C57.87 5.094 57.1737 5.1493 56.4766 5.15332C55.1407 5.15332 54.3485 4.27318 54.1045 2.5127C54.7136 3.0185 55.5358 3.27114 56.5703 3.27051C57.9188 3.27048 59.6131 3.14054 61.6543 2.87988L59.9121 11.5459H66.5791C67.3823 7.94322 68.2281 5.27009 69.1162 3.52734C69.6064 2.57363 70.0513 1.97091 70.4492 1.71875C70.8471 1.4666 71.6281 1.29737 72.791 1.21191C72.9342 1.19503 73.1504 1.17899 73.4365 1.16211ZM5.15527 1.54883C5.67839 1.54883 5.94141 1.84892 5.94141 2.44727C5.94111 2.59952 5.80221 3.34096 5.52344 4.67188L3.31934 15.752C2.99793 17.3431 2.83699 18.4501 2.83691 19.0732C2.83691 20.1265 4.00787 20.6533 6.34863 20.6533C8.43992 20.6533 10.5941 20.2285 12.8096 19.3779C12.5306 20.2021 12.2001 20.8021 11.8203 21.1787C11.4384 21.5552 10.4771 21.8873 8.93555 22.1748C7.32172 22.4632 5.68421 22.6051 4.04492 22.5986C1.3487 22.5986 0 21.6805 0 19.8438C4.59717e-05 19.3294 0.144347 18.3567 0.431641 16.9258L2.90039 4.52246C3.04151 3.80615 3.11328 3.29199 3.11328 2.98047C3.11002 2.68754 3.00164 2.40475 2.80859 2.18457C3.93187 1.76091 4.71489 1.54894 5.15527 1.54883ZM31.8008 7.40527C32.7313 7.40527 33.6732 8.61964 34.625 11.0488C35.5757 13.4782 36.259 16.4147 36.6729 19.8564C38.1032 18.0663 39.3328 16.1257 40.3408 14.0703C41.3053 12.0824 41.8503 10.3684 41.9766 8.92871C43.2444 9.43372 43.8807 10.0065 43.8809 10.6465C43.8809 11.2194 43.2735 12.5171 42.0596 14.5381C40.8659 16.5333 39.5451 18.4515 38.1074 20.2803C37.4146 21.1562 36.8297 21.7213 36.3555 21.9756C35.8822 22.2298 35.0954 22.3961 33.9951 22.4746C34.1659 21.8481 34.2595 21.2034 34.2754 20.5547C34.2754 18.475 33.8314 16.1756 32.9443 13.6572C32.9229 13.5965 32.8995 13.5366 32.8779 13.4766C31.3828 15.8035 29.565 17.7844 27.4199 19.417C24.7684 21.4358 22.2547 22.4457 19.8779 22.4463C18.3553 22.4463 17.1535 21.9577 16.2686 20.9814C15.3847 20.0051 14.9414 18.6708 14.9414 16.9775C14.9414 14.5346 15.7444 12.4462 17.3467 10.7119C18.9499 8.97775 20.8808 8.11012 23.1387 8.10938C24.2305 8.10938 25.1041 8.38313 25.7588 8.93066C26.4133 9.47802 26.7412 10.2103 26.7412 11.127C26.7412 12.6338 25.8308 13.9686 24.0078 15.1299C22.1849 16.2912 20.0889 16.8711 17.7217 16.8711C17.7217 19.3338 18.7704 20.5651 20.8682 20.5645C22.6867 20.5644 24.6921 19.7034 26.8809 17.9814C28.8588 16.4259 30.6599 14.4234 32.2881 11.9766C31.5547 10.2767 30.7331 8.93803 29.8223 7.96094C30.5574 7.59012 31.2173 7.40462 31.8008 7.40527ZM118.01 15.1963C117.748 16.56 117.617 17.499 117.617 18.0127C117.617 19.4353 118.141 20.1476 119.189 20.1484C120.205 20.1484 121.227 19.5771 122.254 18.4355C122.927 17.6878 123.881 16.386 125.118 14.5312C125.518 13.3059 126.137 12.1666 126.979 11.1152C128.584 9.11123 130.441 8.10951 132.549 8.10938C133.825 8.10938 135.209 8.50495 136.7 9.29688C136.919 8.51372 137.815 8.12215 139.39 8.12207C139.49 8.12207 139.656 8.12631 139.885 8.13477C139.402 8.86657 139.035 9.86846 138.781 11.1406L138.567 12.2139C138.322 13.4098 138.2 14.8082 138.199 16.4082C138.199 18.2534 138.63 19.1754 139.494 19.1748C140.408 19.1748 141.658 18.4147 143.244 16.8945C144.743 15.4574 146.215 13.648 147.665 11.4697C147.599 10.7476 147.403 10.1967 147.072 9.81738C148.052 9.46436 148.746 9.28721 149.151 9.28711C149.897 9.28711 150.269 9.72433 150.268 10.5986C150.268 10.9102 150.167 12.068 149.965 14.0713L149.605 17.6904C152.653 11.3029 155.343 8.10938 157.677 8.10938C158.701 8.10951 159.213 8.84484 159.213 10.3154C159.213 10.9458 158.992 12.3663 158.553 14.5762L157.791 18.3906C159.271 15.2945 160.815 12.8064 162.423 10.9258C164.03 9.04546 165.416 8.10443 166.584 8.10352C167.869 8.10352 168.513 8.8523 168.513 10.3496C168.513 10.8879 168.322 12.1206 167.94 14.0469L167.549 16.0156C167.31 17.2016 167.192 18.0812 167.192 18.6533C167.192 19.6621 167.552 20.1672 168.271 20.168C169.895 20.1678 172.391 17.1686 175.758 11.1719L176.821 11.7646C173.151 18.8825 169.946 22.4411 167.204 22.4404C165.453 22.4404 164.577 21.3036 164.577 19.0303C164.577 18.2715 164.747 17.0543 165.085 15.3789L165.44 13.6357C165.677 12.4578 165.796 11.7254 165.796 11.4385C165.796 11.0768 165.61 10.8955 165.236 10.8955C164.324 10.896 162.688 12.7021 160.327 16.3135C158.188 19.6062 157.117 21.4888 157.117 21.96C157.125 22.0499 157.142 22.1391 157.167 22.2256C157.049 22.2503 156.841 22.3049 156.545 22.3896C156.36 22.4392 156.168 22.4607 155.976 22.4531C155.188 22.4531 154.796 22.079 154.796 21.3301C154.796 21.1033 154.922 20.4179 155.177 19.2734C155.269 18.8625 155.363 18.421 155.456 17.9492L155.987 15.2744C156.376 13.3479 156.571 12.1909 156.571 11.8037C156.571 11.2387 156.364 10.9561 155.949 10.9561C155.036 10.9561 153.691 12.5838 151.914 15.8389C150.146 19.0686 149.263 20.9946 149.263 21.6162C149.268 21.8071 149.34 21.9906 149.465 22.1348C149.065 22.3221 148.631 22.4252 148.188 22.4385C147.309 22.4385 146.868 21.9665 146.868 21.0234C146.868 20.9038 146.996 19.6784 147.249 17.3477L147.54 14.6572C147.569 14.4015 147.592 14.1451 147.612 13.8887C146.375 15.75 145.019 17.3632 143.541 18.7266C141.529 20.5831 139.802 21.5122 138.357 21.5137C136.529 21.5135 135.616 19.9979 135.616 16.9668C135.615 16.3353 135.641 15.4845 135.69 14.415C134.607 16.6466 133.271 18.5436 131.683 20.1055C130.094 21.6674 128.711 22.4482 127.531 22.4482C126.635 22.4482 125.918 22.0503 125.379 21.2549C124.84 20.4594 124.571 19.4001 124.572 18.0762C124.572 17.9866 124.574 17.8974 124.576 17.8086C124.066 18.4729 123.557 19.0793 123.045 19.624C121.277 21.506 119.713 22.4463 118.353 22.4463C117.891 22.4586 117.432 22.362 117.015 22.1631C116.598 21.9643 116.234 21.67 115.954 21.3037C115.345 20.5416 115.041 19.5455 115.041 18.3164C115.041 17.6263 115.168 16.6485 115.422 15.3848L115.899 12.9883C115.157 13.26 114.406 13.3984 113.646 13.3984C112.701 13.4005 111.632 13.2074 110.439 12.8203C110.463 13.0002 110.474 13.1818 110.477 13.3633C110.477 15.7975 109.648 17.9196 107.99 19.7295C106.333 21.5394 104.391 22.4446 102.166 22.4453C100.463 22.4453 99.0789 21.9048 98.0146 20.8232C97.0918 19.8854 96.5675 18.7045 96.4414 17.2812C95.9755 17.7906 95.4961 18.2724 95.0029 18.7266C92.9871 20.5829 91.2565 21.5115 89.8135 21.5117C87.9874 21.5117 87.0723 19.996 87.0723 16.9648C87.0744 16.3347 87.1004 15.4845 87.1514 14.415C86.067 16.6466 84.7318 18.5436 83.1445 20.1055C81.5572 21.6673 80.1731 22.4482 78.9922 22.4482C78.0945 22.4482 77.3758 22.0504 76.8389 21.2549C76.3021 20.4595 76.0322 19.4 76.0322 18.0762C76.0322 15.4398 76.8351 13.1193 78.4395 11.1152C80.0437 9.11123 81.9005 8.1094 84.0088 8.10938C85.2863 8.10938 86.6704 8.50489 88.1602 9.29688C88.381 8.51374 89.2774 8.1221 90.8506 8.12207C90.9514 8.12207 91.1176 8.12631 91.3457 8.13477C90.864 8.86656 90.4958 9.86848 90.2422 11.1406L90.0293 12.2139C89.7831 13.4098 89.6611 14.8082 89.6611 16.4082C89.6611 18.2534 90.0924 19.1754 90.9551 19.1748C91.8686 19.1746 93.1179 18.4145 94.7051 16.8945C95.3463 16.2799 95.981 15.5958 96.6133 14.8457C96.9103 13.6092 97.5341 12.4964 98.4844 11.5068C99.8669 10.0671 101.5 9.34645 103.381 9.3457C103.688 9.34824 103.995 9.38652 104.293 9.45996C104.081 9.08083 103.974 8.7605 103.974 8.5C103.979 8.0761 104.127 7.66625 104.393 7.33496C106.457 7.50316 108.174 8.55536 109.544 10.4922C110.948 11.4438 112.411 11.9199 113.935 11.9199C114.654 11.9199 115.415 11.7421 116.219 11.3906L117.947 2.72852C117.662 2.77468 117.373 2.79991 117.083 2.80371C115.139 2.80358 114.165 1.9956 114.165 0.378906V0.0878906C115.216 0.669967 116.401 0.966386 117.604 0.947266C118.881 0.94726 119.998 0.63151 120.953 0L118.01 15.1963ZM104.537 10.6006C103.101 10.6007 101.827 11.245 100.715 12.5332C99.6028 13.8217 99.046 15.2912 99.0449 16.9414C99.0449 18.1367 99.382 19.1197 100.055 19.8896C100.727 20.6595 101.592 21.0454 102.647 21.0469C104.078 21.0469 105.308 20.3285 106.339 18.8926C107.37 17.4565 107.887 15.745 107.89 13.7588C107.889 13.0747 107.777 12.3948 107.56 11.7461C106.854 11.5357 106.195 11.1937 105.618 10.7393C105.264 10.6576 104.901 10.6111 104.537 10.6006ZM83.3135 9.66504C82.0361 9.6652 80.9307 10.4379 79.9971 11.9834C79.0644 13.5289 78.5985 15.3622 78.6006 17.4834C78.6006 19.1853 79.16 20.0358 80.2773 20.0352C81.4892 20.0347 83.8059 17.3913 87.2275 12.1035C87.2753 12.0368 87.4436 11.8022 87.748 11.3965C85.9697 10.2423 84.4902 9.66504 83.3135 9.66504ZM131.853 9.66504C130.575 9.66504 129.47 10.4378 128.536 11.9834C127.604 13.5289 127.137 15.3623 127.138 17.4834C127.138 19.1853 127.697 20.0358 128.815 20.0352C130.027 20.035 132.344 17.3915 135.766 12.1035C135.808 12.0368 135.982 11.8022 136.285 11.3965C134.507 10.2424 133.029 9.66517 131.853 9.66504ZM22.8281 9.35547C21.6758 9.35547 20.6145 9.96894 19.6426 11.1953C18.6707 12.4216 18.0631 13.9094 17.8223 15.6592H17.8281C19.5958 15.5659 21.1122 15.0622 22.377 14.1475C23.6416 13.2327 24.2743 12.173 24.2744 10.9688C24.2744 9.89431 23.7914 9.35623 22.8281 9.35547Z" fill="var(--fill-0, #2F3037)"/>
</svg>
