<svg preserveAspectRatio="xMidYMid meet" overflow="visible" style="display: block;" viewBox="0 0 45.793 32.0005" fill="none" xmlns="http://www.w3.org/2000/svg">
<path id="Union" d="M6.58984 24.6929L2.61328 30.1548H6.66211V32.0005H0V30.6783L3.9668 25.2154H0.0615234V23.3706H6.58984V24.6929ZM17.127 32.0005H15.1074L14.3389 30.1763H10.7617L9.99316 32.0005H7.97363L11.6738 23.3706H13.4268L17.127 32.0005ZM20.8057 26.7525H24.2803V23.3706H26.2178V32.0005H24.2803V28.5874H20.8057V32.0005H18.8691V23.3706H20.8057V26.7525ZM37.1123 32.0005H35.0938L34.3252 30.1763H30.748L29.9795 32.0005H27.96L31.6602 23.3706H33.4131L37.1123 32.0005ZM41.335 29.1206L43.6211 23.3706H45.7529L42.2168 32.0005H40.4746L36.9385 23.3706H39.0391L41.335 29.1206ZM11.459 28.5054H13.6318L12.5498 25.9253L11.459 28.5054ZM31.4551 28.5054H33.6279L32.5518 25.9126L31.4551 28.5054ZM2.16211 15.3453H5.63574V11.9624H7.57324V20.5923H5.63574V17.1792H2.16211V20.5923H0.224609V11.9624H2.16211V15.3453ZM18.8369 20.5923H16.8184L16.0498 18.7681H12.4727L11.7041 20.5923H9.68457L13.3848 11.9624H15.1377L18.8369 20.5923ZM24.3613 11.9624C24.7713 11.9624 25.1407 12.0342 25.4688 12.1675C25.7964 12.3109 26.073 12.4955 26.3086 12.731C26.534 12.9667 26.7188 13.2444 26.8418 13.562C26.9645 13.869 27.0264 14.013 27.0264 14.566C27.0263 15.1192 26.8826 15.5808 26.5957 15.9497C26.3087 16.3185 25.8882 16.5959 25.335 16.7906L28.3896 20.5923H26.0625L23.1826 17.0259H22.875V20.5923H20.9277L20.959 11.9624H24.3613ZM35.6768 13.8072H32.1406V15.355H34.9492V17.1997H32.1406V18.7476H35.6768V20.5923H30.2041V11.9624H35.6768V13.8072ZM41.6621 15.0679L43.5479 11.9527H45.793L42.6465 16.9644V20.5923H40.6992V16.9536L37.5527 11.9527H39.7969L41.6621 15.0679ZM13.1689 17.0972H15.3418L14.2656 14.5044L13.1689 17.0972ZM22.875 15.396H24.1152C24.4021 15.396 24.6388 15.3241 24.8232 15.1704C25.0073 15.0169 25.0995 14.8218 25.0996 14.566C25.0996 14.31 25.0073 14.1049 24.8232 13.9615C24.6388 13.8179 24.4022 13.7456 24.1152 13.7456H22.875V15.396ZM34.2324 0.012243C36.2765 0.457985 37.3759 0.983909 38.0312 1.34037L38.5371 1.62064C38.742 1.73334 38.8242 1.83673 38.7627 2.18509C38.6601 2.38941 38.434 2.37933 38.3213 2.33841C38.203 2.30526 35.5227 1.181 34.3965 1.29349C33.2792 1.40631 27.4575 4.37849 26.3711 4.46049C25.4588 4.53215 20.8469 2.92297 19.9756 2.95365C16.2142 3.09715 6.98957 7.97522 6.65137 8.11869C6.46703 8.20061 6.28208 8.26189 6.13867 8.11869C5.98552 7.9653 6.00604 7.82179 6.13867 7.64799C6.56913 7.09459 16.3879 1.64122 19.5244 1.39506C21.0309 1.27207 26.2372 4.02936 26.5146 3.98881C27.089 3.91677 33.0333 -0.254228 34.2324 0.012243Z" fill="var(--fill-0, #2F3037)"/>
</svg>
