<svg preserveAspectRatio="xMidYMid meet" overflow="visible" style="display: block;" viewBox="0 0 42.0002 32.0004" fill="none" xmlns="http://www.w3.org/2000/svg">
<path id="Union" d="M25.6063 30.1161C26.2009 30.1299 26.625 30.505 26.6395 31.0292C26.6536 31.5433 26.2379 31.9422 25.6453 31.9843C25.036 32.0271 25.036 32.0268 25.036 31.4218V30.6581C25.036 30.1037 25.0364 30.1029 25.6063 30.1161ZM16.703 30.121C16.8137 30.1143 16.8299 30.1907 16.8299 30.2763V30.7167L16.8309 30.7187C16.8309 30.8361 16.8257 30.9542 16.8309 31.0712C16.8524 31.477 17.1691 31.816 17.5272 31.8192C17.9085 31.8226 18.2184 31.5271 18.2528 31.1054C18.2721 30.8522 18.2573 30.5955 18.2625 30.3407C18.2644 30.2499 18.229 30.1195 18.3836 30.1239C18.5383 30.1284 18.4944 30.2609 18.494 30.3485C18.494 30.623 18.5029 30.9005 18.4686 31.1718C18.4428 31.3932 18.337 31.5981 18.1707 31.748C18.0042 31.8978 17.788 31.9833 17.5633 31.9872C17.3335 31.9904 17.1095 31.9095 16.9354 31.7606C16.7614 31.6118 16.6479 31.4046 16.617 31.1786C16.5791 30.879 16.6009 30.5715 16.5965 30.2675C16.5965 30.1927 16.6129 30.1263 16.703 30.121ZM0.384598 30.3271C0.723004 30.0845 1.35284 30.0602 1.70979 30.2792C1.77066 30.3114 1.82438 30.3563 1.86702 30.4101C1.92083 30.49 2.04522 30.5931 1.90315 30.6806C1.77864 30.757 1.75454 30.6228 1.701 30.5419C1.51394 30.2643 0.733516 30.2408 0.505692 30.4989C0.381973 30.6398 0.433126 30.8214 0.642411 30.8798C0.916933 30.9566 1.2017 31 1.48225 31.0536C1.71587 31.0984 1.94773 31.1676 1.96565 31.4433C1.9881 31.7449 1.73338 31.8195 1.5096 31.9052C1.37588 31.9539 1.23776 31.9473 1.10042 31.9589C0.798399 31.9509 0.506324 31.913 0.293778 31.6649C0.236536 31.5977 0.169729 31.5049 0.259598 31.4345C0.349396 31.3643 0.4065 31.4455 0.4637 31.5263C0.68328 31.8343 1.3603 31.8989 1.64339 31.6464C1.7814 31.5236 1.75502 31.3538 1.57503 31.2714C1.42924 31.2109 1.27385 31.1761 1.11604 31.1679C0.849712 31.1435 0.583493 31.1069 0.36702 30.9276C0.150503 30.748 0.164985 30.4872 0.384598 30.3271ZM8.53206 30.2079C8.53207 30.0163 8.78817 30.1336 8.92659 30.1278C9.26212 30.1082 9.60025 30.1198 9.93538 30.121C10.0015 30.121 10.0934 30.1051 10.0994 30.2011C10.1051 30.2963 10.0148 30.2844 9.94807 30.2919C9.78481 30.3103 9.55465 30.2124 9.47347 30.3398C9.39247 30.4675 9.44797 30.6816 9.44515 30.8573V31.7968C9.44511 31.885 9.42447 31.9567 9.32015 31.9569C9.20529 31.9597 9.20296 31.8768 9.20296 31.7968C9.20295 31.3844 9.18934 30.971 9.20784 30.5595C9.21752 30.3422 9.16353 30.268 8.93538 30.2812C8.79749 30.2888 8.53228 30.3778 8.53206 30.2079ZM40.9959 30.1171C41.5065 30.1172 41.9486 30.5479 41.9491 31.0458C41.9479 31.5499 41.5039 31.9583 40.952 31.956C40.4008 31.9535 39.9641 31.5449 39.9676 31.0351C39.9715 30.5253 40.4226 30.1172 40.9959 30.1171ZM33.3377 30.1171C33.4613 30.122 33.4352 30.221 33.4364 30.2939V31.8476C33.4338 31.9043 33.4174 31.9537 33.327 31.9521C33.2194 31.9497 33.2001 31.8783 33.2 31.7919V30.2968C33.2 30.2024 33.2141 30.1124 33.3377 30.1171ZM25.6405 30.2646C25.5323 30.2604 25.4241 30.2778 25.3231 30.3163C25.2022 30.3671 25.2911 30.5853 25.2791 30.7274C25.2691 30.8342 25.2762 30.9447 25.2762 31.0507H25.2782V31.4325C25.2782 31.8692 25.2781 31.8692 25.7166 31.8192C26.0742 31.7792 26.3424 31.5194 26.4022 31.1562C26.455 30.8397 26.2556 30.4758 25.953 30.3407C25.8552 30.2946 25.7486 30.2687 25.6405 30.2646ZM40.95 30.2724C40.7449 30.2745 40.5487 30.3574 40.4051 30.5028C40.2617 30.6482 40.1824 30.8443 40.1844 31.0478C40.1894 31.4643 40.5536 31.8216 40.9657 31.8153C41.3777 31.8088 41.7394 31.4411 41.7323 31.0321C41.73 30.8287 41.6462 30.6346 41.4998 30.4921C41.3532 30.3495 41.1552 30.2703 40.95 30.2724ZM41.8182 29.2314C41.9076 29.2301 41.9965 29.2148 41.992 29.3583C41.988 29.4524 41.9421 29.4665 41.8875 29.4677H0.107255C0.0519608 29.4658 0.00427922 29.451 0.00178591 29.3573C-0.000537247 29.2427 0.0621267 29.229 0.1512 29.2314H41.8182ZM21.3944 14.5751C23.6245 14.7382 25.1584 15.8633 26.0545 17.873C26.5929 19.0802 26.8608 20.3555 26.9285 21.6689C26.989 22.834 26.8937 23.9819 26.4715 25.0898C25.8665 26.6792 24.8353 27.828 23.1532 28.3231C22.2131 28.6001 21.2519 28.6545 20.2772 28.5829C18.603 28.4592 17.2377 27.7777 16.2459 26.412C15.3036 25.114 14.998 23.6349 15.0028 21.8427C15.0217 20.8768 15.161 19.6965 15.5135 18.5536C15.9334 17.1908 16.6296 16.0113 17.9012 15.2636C18.9776 14.6308 20.1627 14.485 21.3944 14.5751ZM27.908 14.5429C29.2953 14.5545 30.6823 14.5679 32.0692 14.5907C32.6529 14.6003 32.674 14.6435 32.7078 15.2216C32.7966 16.7426 32.9016 18.2641 32.9823 19.7851C32.9948 20.0206 33.0805 20.0488 33.2821 20.0448C33.8568 20.0312 34.4324 20.0272 35.0067 20.0448C35.251 20.0523 35.3172 19.9778 35.3289 19.7382C35.4027 18.1954 35.4925 16.6534 35.5828 15.1122C35.6115 14.6242 35.6458 14.5985 36.1297 14.5985H38.2401V14.6386C38.9926 14.6386 39.746 14.6425 40.4989 14.6356C40.772 14.6333 40.8763 14.7555 40.8494 15.0165C40.7821 15.6618 40.7177 16.3084 40.6532 16.954C40.4652 18.8628 40.2754 20.7714 40.0828 22.6786C39.9074 24.4178 39.7251 26.1595 39.5496 27.9003C39.525 28.1419 39.4038 28.243 39.1619 28.2431C37.8836 28.2363 36.6054 28.2384 35.327 28.2284C34.9445 28.2252 34.869 28.1244 34.8895 27.7362C34.9592 26.401 35.0207 25.0643 35.1014 23.7294C35.1155 23.4957 35.0451 23.4474 34.827 23.455C34.3718 23.4698 33.915 23.4666 33.4598 23.455C33.2607 23.4498 33.1988 23.4845 33.2117 23.7118C33.2912 25.1054 33.4195 26.4968 33.4324 27.8944C33.4348 28.1408 33.338 28.2313 33.1043 28.2314C31.7564 28.2298 30.408 28.2298 29.0604 28.2314C28.8018 28.2316 28.6854 28.0993 28.6619 27.8554C28.5837 27.0433 28.5043 26.2313 28.4237 25.4198C28.2535 23.6986 28.0815 21.9797 27.9129 20.2558C27.7443 18.5318 27.5752 16.81 27.4139 15.0888C27.3707 14.6276 27.4543 14.5393 27.908 14.5429ZM3.8387 14.539C4.05599 14.5374 4.16348 14.6362 4.18929 14.8495C4.23042 15.1904 4.28268 15.5309 4.33186 15.871C4.40767 16.3941 4.48474 16.9177 4.56136 17.4403C4.78439 16.5845 4.97321 15.7336 5.15511 14.8817C5.20435 14.6529 5.33876 14.5399 5.56819 14.5399C7.07367 14.5407 8.57932 14.5424 10.0848 14.5448C10.3213 14.5453 10.4263 14.6594 10.4666 14.8993C10.6167 15.7799 10.7904 16.6572 10.9549 17.5351L11.0155 17.5312C11.0473 17.3219 11.0753 17.1112 11.1112 16.9023C11.2289 16.2158 11.2676 15.5164 11.4559 14.8407C11.5091 14.6511 11.6177 14.5479 11.8094 14.5478C12.9492 14.5438 14.0899 14.5386 15.2293 14.5478C15.5141 14.5479 15.6339 14.6989 15.6239 14.9882C15.6167 15.1844 15.5954 15.3801 15.5594 15.5731C14.8154 19.5613 14.0693 23.549 13.3221 27.5351C13.2302 28.0258 13.1579 28.0857 12.6561 28.0829C11.4571 28.0757 10.2581 28.0668 9.0594 28.0556C8.64367 28.0516 8.54809 27.9694 8.49202 27.5458C8.30892 26.1624 8.13659 24.7774 7.94905 23.3944C7.90833 23.0951 7.91019 22.7838 7.79573 22.4872C7.68725 22.5408 7.7186 22.6198 7.71175 22.6806C7.53268 24.3518 7.35509 26.0237 7.17952 27.6952C7.14124 28.0618 7.11907 28.0878 6.74397 28.0878C5.42752 28.085 4.10891 28.0768 2.79085 28.08C2.52128 28.0807 2.40658 27.9767 2.36018 27.7128C2.14482 26.4843 1.91163 25.2586 1.68538 24.0321C1.12801 21.0095 0.571214 17.9862 0.0154578 14.9628C-0.0373791 14.675 0.039921 14.5627 0.329911 14.5595C1.49945 14.5467 2.66916 14.5466 3.8387 14.539ZM21.3914 18.1542C21.0612 17.7677 20.714 17.7688 20.3914 18.1523C19.7418 18.922 19.3603 19.8091 19.4998 20.8222C19.611 21.6284 20.2889 22.0619 21.117 21.9628C21.8744 21.8723 22.3567 21.3143 22.3543 20.3485C22.2886 19.6373 21.9733 18.8367 21.3914 18.1542ZM18.0711 0.619048C19.1811 0.0322059 20.3802 -0.080116 21.618 0.0467823C23.6723 0.257894 25.103 1.32699 25.9774 3.15225C26.4516 4.14214 26.7244 5.19792 26.8514 6.28506C27.0066 7.61221 27.0028 8.93246 26.5799 10.2216C26.029 11.9011 25.0307 13.1719 23.2772 13.7323C22.2048 14.075 21.1051 14.1251 19.9891 14.0019C18.474 13.8341 17.2453 13.1757 16.3221 11.9638C15.3147 10.6405 14.9999 9.11677 14.9998 7.34561C15.0244 6.24805 15.1746 5.0127 15.5701 3.81827C16.0231 2.46041 16.7639 1.31039 18.0711 0.619048ZM15.161 0.241118C15.5058 0.242463 15.6268 0.366166 15.6268 0.703032C15.6265 0.82054 15.6157 0.937997 15.5946 1.05362C14.8379 5.11809 14.0802 9.18304 13.3211 13.247C13.2345 13.7121 13.165 13.7704 12.6981 13.7704C11.4986 13.7672 10.2984 13.7633 9.09944 13.7577C8.64791 13.7557 8.54895 13.6704 8.49007 13.2216C8.3102 11.8383 8.13624 10.4527 7.9471 9.07022C7.90517 8.76415 7.91171 8.44352 7.77522 8.10147C7.75396 8.1425 7.73599 8.18525 7.72249 8.2294C7.5406 9.95058 7.35621 11.6723 7.1844 13.3935C7.15696 13.6667 7.07506 13.7845 6.77034 13.7802C5.44228 13.7618 4.11403 13.7624 2.78597 13.7704C2.51139 13.772 2.40602 13.6646 2.35921 13.4042C2.01963 11.5197 1.66537 9.6371 1.32015 7.75381C0.884569 5.37732 0.455237 2.99962 0.0164343 0.623931C-0.0298939 0.374216 0.0732294 0.250884 0.298661 0.250884C1.49769 0.241278 2.69688 0.241118 3.89632 0.241118C4.06067 0.241172 4.15124 0.321 4.17268 0.485259C4.20132 0.708959 4.23768 0.932858 4.27034 1.15616C4.36659 1.81578 4.46244 2.47602 4.55843 3.13565L4.60042 3.12588C4.78473 2.28208 4.97149 1.43827 5.15218 0.593657C5.19939 0.373479 5.30811 0.240309 5.54964 0.240142H10.0994C10.3099 0.240188 10.4312 0.327515 10.4598 0.544829C10.4892 0.768398 10.5377 0.989852 10.578 1.21182C10.7043 1.8858 10.8312 2.56031 10.9578 3.23428C11.0476 3.02356 11.0771 2.81352 11.1121 2.6044C11.2283 1.91768 11.2713 1.2188 11.4559 0.542876C11.5135 0.326824 11.6384 0.238285 11.8592 0.238189C12.9595 0.24099 14.0607 0.237516 15.161 0.241118ZM31.9979 0.234282C33.4652 0.243488 34.9333 0.242192 36.4002 0.238189C36.6822 0.237533 36.8363 0.341343 36.8875 0.631743C37.038 1.50075 37.2106 2.36728 37.3719 3.23428L37.4246 3.22549C37.4371 3.17089 37.4537 3.11643 37.4617 3.06143C37.5791 2.26406 37.6913 1.46582 37.8123 0.668853C37.8684 0.291586 37.9289 0.241138 38.3094 0.241118C39.3298 0.239517 40.3512 0.239165 41.3729 0.239165C41.939 0.239198 42.0721 0.405356 41.9676 0.965728C41.2002 5.07968 40.4342 9.1934 39.6698 13.3065C39.6048 13.6562 39.5017 13.7665 39.1688 13.7665C37.8995 13.7693 36.63 13.7596 35.3612 13.7636C35.0752 13.7634 34.9462 13.6271 34.9139 13.3632C34.8357 12.7194 34.7548 12.0757 34.6717 11.4325C34.5303 10.3481 34.3887 9.25953 34.2459 8.16788C34.1 8.22749 34.1393 8.34168 34.1297 8.43252C33.9507 10.0845 33.772 11.7368 33.6014 13.3896C33.5723 13.6655 33.4573 13.7819 33.1688 13.7792C31.8209 13.7693 30.4723 13.7664 29.1239 13.7704C28.8773 13.7712 28.761 13.6632 28.7205 13.4355C28.6584 13.0773 28.59 12.7196 28.5242 12.3622C27.8112 8.4882 27.0991 4.61371 26.3885 0.739165C26.3179 0.354462 26.4042 0.244048 26.785 0.244048C27.9167 0.239646 29.0463 0.245266 30.1756 0.235259C30.4476 0.232961 30.5757 0.352052 30.6092 0.607329C30.6511 0.929783 30.6978 1.25017 30.7449 1.57022C30.8232 2.09722 30.9022 2.62498 30.9813 3.15225C31.195 2.31169 31.3621 1.47523 31.5174 0.634673C31.5682 0.360535 31.702 0.234354 31.9979 0.234282ZM21.2977 3.47061C21.0186 3.22805 20.7656 3.20686 20.4832 3.46866C19.9869 3.93136 19.7265 4.53438 19.5623 5.17471C19.474 5.52294 19.3974 5.87754 19.4813 6.24698C19.658 7.02326 20.2793 7.46556 21.0946 7.37686C21.8511 7.29395 22.3466 6.73672 22.3543 5.95987V5.87198C22.3386 5.21515 22.0733 4.63971 21.741 4.08975C21.6121 3.87094 21.4943 3.64345 21.2977 3.47061Z" fill="var(--fill-0, #2F3037)"/>
</svg>
