<svg preserveAspectRatio="none" width="100%" height="100%" overflow="visible" style="display: block;" viewBox="0 0 43.0346 42.6505" fill="none" xmlns="http://www.w3.org/2000/svg">
<g id="Group">
<path id="Vector" d="M16.5057 15.5247V11.4729C16.5057 11.1316 16.6338 10.8756 16.9322 10.7052L25.0787 6.01369C26.1876 5.37396 27.5098 5.07556 28.8744 5.07556C33.9924 5.07556 37.234 9.04213 37.234 13.2644C37.234 13.5628 37.234 13.9041 37.1913 14.2453L28.7464 9.29778C28.2347 8.99938 27.7227 8.99938 27.2109 9.29778L16.5057 15.5247ZM35.5278 31.3055V21.6236C35.5278 21.0264 35.2717 20.5999 34.7601 20.3014L24.0548 14.0745L27.5522 12.0698C27.8507 11.8994 28.1067 11.8994 28.4052 12.0698L36.5516 16.7613C38.8975 18.1263 40.4754 21.0264 40.4754 23.8412C40.4754 27.0825 38.5563 30.0682 35.5278 31.3052V31.3055ZM13.9893 22.7755L10.492 20.7284C10.1936 20.558 10.0655 20.3019 10.0655 19.9606V10.5776C10.0655 6.01413 13.5628 2.5592 18.2972 2.5592C20.0887 2.5592 21.7517 3.15644 23.1596 4.22267L14.7574 9.08498C14.2458 9.38338 13.9898 9.80987 13.9898 10.4072V22.7758L13.9893 22.7755ZM21.5172 27.1257L16.5057 24.3108V18.34L21.5172 15.5252L26.5284 18.34V24.3108L21.5172 27.1257ZM24.7373 40.0916C22.9459 40.0916 21.2828 39.4944 19.875 38.4283L28.2771 33.5659C28.7888 33.2675 29.0448 32.841 29.0448 32.2436V19.875L32.585 21.9221C32.8834 22.0925 33.0115 22.3485 33.0115 22.6899V32.0729C33.0115 36.6364 29.4713 40.0913 24.7373 40.0913V40.0916ZM14.6291 30.5806L6.48258 25.8892C4.13662 24.5241 2.55876 21.6241 2.55876 18.8092C2.55876 15.5252 4.52071 12.5823 7.54871 11.3453V21.0696C7.54871 21.6668 7.8048 22.0933 8.31645 22.3918L18.9793 28.5759L15.482 30.5806C15.1836 30.751 14.9275 30.751 14.6291 30.5806ZM14.1602 37.5753C9.34062 37.5753 5.80053 33.95 5.80053 29.4716C5.80053 29.1304 5.84329 28.7892 5.88569 28.4479L14.2878 33.3102C14.7995 33.6087 15.3116 33.6087 15.8232 33.3102L26.5284 27.1261V31.178C26.5284 31.5192 26.4004 31.7752 26.102 31.9456L17.9556 36.6372C16.8466 37.2769 15.5244 37.5753 14.1597 37.5753H14.1602ZM24.7373 42.6505C29.8981 42.6505 34.2056 38.9827 35.1869 34.1204C39.9637 32.8834 43.0346 28.4051 43.0346 23.8416C43.0346 20.8559 41.7552 17.9559 39.452 15.866C39.6653 14.9702 39.7932 14.0745 39.7932 13.1792C39.7932 7.08027 34.8457 2.51636 29.1304 2.51636C27.9791 2.51636 26.8701 2.68676 25.7612 3.07085C23.8416 1.19413 21.1972 0 18.2972 0C13.1364 0 8.82898 3.66773 7.84765 8.53005C3.07085 9.76702 0 14.2453 0 18.8088C0 21.7945 1.27938 24.6945 3.58258 26.7844C3.36933 27.6802 3.24133 28.5759 3.24133 29.4713C3.24133 35.5702 8.18889 40.134 13.9041 40.134C15.0555 40.134 16.1644 39.9637 17.2734 39.5796C19.1925 41.4563 21.8369 42.6505 24.7373 42.6505Z" fill="var(--fill-0, white)"/>
</g>
</svg>
