<svg preserveAspectRatio="none" width="100%" height="100%" overflow="visible" style="display: block;" viewBox="0 0 42.0002 28" fill="none" xmlns="http://www.w3.org/2000/svg">
<g id="Group">
<path id="Vector" d="M12.071 0C12.0574 0 12.044 4.78867e-05 12.0305 0.000117765L11.9753 4.57524C11.9879 4.5751 12.0006 4.57498 12.0132 4.57498C15.0154 4.57498 17.3441 6.94935 22.4055 15.5009L22.714 16.0215L22.7342 16.0556L25.5675 11.7915L25.5479 11.7585C24.8811 10.6707 24.2405 9.66988 23.6261 8.756C22.9137 7.6971 22.2323 6.75116 21.5711 5.9066C18.2228 1.63034 15.4219 0 12.071 0Z" fill="var(--fill-0, #F7F7F7)"/>
<path id="Vector_2" d="M12.0264 0.000117765C8.65919 0.0174944 5.68233 2.20155 3.53277 5.54362C3.52647 5.55339 3.52017 5.56319 3.51389 5.57302L7.45965 7.72723C7.46606 7.71748 7.47247 7.70774 7.47891 7.69802C8.73413 5.80234 10.2962 4.59325 11.9712 4.57524C11.9838 4.5751 11.9965 4.57499 12.0091 4.57499L12.0669 0C12.0533 0 12.0399 4.78867e-05 12.0264 0.000117765Z" fill="var(--fill-0, #F7F7F7)"/>
<path id="Vector_3" d="M3.52561 5.53964C3.51934 5.54942 3.51304 5.55922 3.50674 5.56904C2.09425 7.77456 1.04127 10.481 0.472213 13.4008C0.469748 13.4134 0.467292 13.4261 0.464844 13.4387L4.89773 14.4879C4.90007 14.4752 4.9024 14.4625 4.90473 14.4498C5.37856 11.8839 6.28065 9.50401 7.45249 7.72325C7.45888 7.7135 7.46532 7.70376 7.47176 7.69404L3.52561 5.53964Z" fill="var(--fill-0, #F7F7F7)"/>
<path id="Vector_4" d="M4.91141 14.4457L0.478878 13.3967C0.476413 13.4093 0.473957 13.422 0.471509 13.4346C0.161209 15.0404 0.00334429 16.672 3.20162e-05 18.3076C5.92651e-06 18.3209 -4.06745e-06 18.3341 1.48354e-06 18.3473L4.54613 18.7552C4.54577 18.742 4.54538 18.7288 4.54508 18.7155C4.54283 18.6207 4.54169 18.5245 4.54166 18.4271C4.54394 17.1044 4.66534 15.7846 4.90442 14.4838C4.90672 14.4711 4.90905 14.4584 4.91141 14.4457Z" fill="var(--fill-0, #F7F7F7)"/>
<path id="Vector_5" d="M4.68438 20.1898C4.60283 19.7197 4.55662 19.2441 4.54613 18.7671C4.54577 18.7538 4.54538 18.7407 4.54508 18.7274L3.20162e-05 18.3194C5.92651e-06 18.3327 -4.06745e-06 18.3459 1.48354e-06 18.3591C1.48354e-06 19.3771 0.0846325 20.3328 0.249111 21.2132C0.25149 21.226 0.25383 21.2385 0.256242 21.2512L4.69126 20.2278C4.68893 20.2152 4.68665 20.2025 4.68438 20.1898Z" fill="var(--fill-0, #F7F7F7)"/>
<path id="Vector_6" d="M5.7171 22.5443C5.22242 22.0027 4.87232 21.2214 4.68825 20.2222C4.68592 20.2096 4.68367 20.1969 4.68139 20.1842L0.246094 21.2076C0.24847 21.2204 0.250809 21.2329 0.253224 21.2456C0.588459 23.0111 1.24592 24.4825 2.18745 25.5956C2.19582 25.6055 2.20422 25.6154 2.21265 25.6252L5.74355 22.5728C5.73472 22.5634 5.72584 22.5539 5.7171 22.5443Z" fill="var(--fill-0, #F7F7F7)"/>
<path id="Vector_7" d="M18.8571 9.90015C16.1844 14.0122 14.5653 16.5914 14.5653 16.5914C11.005 22.1895 9.77328 23.4442 7.79108 23.4442C6.96396 23.4442 6.27297 23.1488 5.7436 22.5841C5.73477 22.5747 5.72592 22.5651 5.71718 22.5556L2.1875 25.6068C2.19587 25.6167 2.20427 25.6266 2.2127 25.6365C3.51274 27.1565 5.34776 28 7.61789 28C11.0524 28 13.5226 26.3757 17.9138 18.6762C17.9138 18.6762 19.7444 15.4337 21.0037 13.2001C20.2236 11.9368 19.5137 10.8431 18.8571 9.90015Z" fill="var(--fill-0, #F7F7F7)"/>
<path id="Vector_8" d="M23.6161 3.38694C23.607 3.39655 23.5978 3.40635 23.5889 3.41598C22.887 4.16605 22.2134 5.0037 21.5581 5.89243C22.2194 6.73702 22.902 7.6848 23.6145 8.74367C24.4543 7.4436 25.2381 6.39066 26.0064 5.5836C26.0155 5.57406 26.0244 5.56476 26.0335 5.55524L23.6161 3.38694Z" fill="var(--fill-0, #F7F7F7)"/>
<path id="Vector_9" d="M36.5978 2.99715C34.7338 1.1083 32.5115 0 30.1356 0C27.6302 0 25.5229 1.3771 23.6221 3.40025C23.6131 3.40982 23.6039 3.41962 23.5949 3.42926L26.0125 5.59688C26.0216 5.58733 26.0305 5.57803 26.0396 5.56854C27.2918 4.26209 28.5036 3.6098 29.847 3.6098C31.293 3.6098 32.6464 4.29252 33.8184 5.48939C33.8276 5.49877 33.8368 5.50807 33.8459 5.51751L36.6256 3.02527C36.6164 3.01583 36.607 3.00653 36.5978 2.99715Z" fill="var(--fill-0, #F7F7F7)"/>
<path id="Vector_10" d="M41.9876 17.7193C41.8832 11.6545 39.7674 6.23275 36.627 3.03095C36.6175 3.02152 36.6084 3.01222 36.5989 3.00283L33.8198 5.49507C33.829 5.50446 33.8381 5.51375 33.8473 5.52319C36.2098 7.9575 37.8304 12.4854 37.9778 17.718C37.9781 17.7311 37.9783 17.7443 37.9789 17.7575L41.9881 17.7587C41.9881 17.7456 41.9878 17.7324 41.9876 17.7193Z" fill="var(--fill-0, #F7F7F7)"/>
<path id="Vector_11" d="M41.9969 17.7706C41.9969 17.7574 41.9966 17.7442 41.9963 17.731L37.9866 17.7298C37.9868 17.7429 37.9871 17.7561 37.9877 17.7693C37.9941 18.0149 37.9974 18.2619 37.9974 18.5105C37.9974 19.9372 37.7851 21.0904 37.3529 21.923C37.3465 21.9354 37.3399 21.9478 37.3335 21.96L40.323 25.0788C40.3305 25.0675 40.3377 25.0562 40.3452 25.0448C41.4304 23.365 42.0002 21.0314 42.0002 18.2016C42.0002 18.0576 41.9991 17.9139 41.9969 17.7706Z" fill="var(--fill-0, #F7F7F7)"/>
<path id="Vector_12" d="M37.3452 21.8983C37.3388 21.9106 37.3322 21.923 37.3258 21.9352C36.9519 22.637 36.4182 23.1051 35.7207 23.3098L37.0835 27.6182C37.2639 27.5567 37.4396 27.4877 37.6105 27.4111C37.6616 27.3883 37.7124 27.3648 37.7626 27.3407C37.7915 27.3268 37.8204 27.3127 37.849 27.2984C38.7502 26.8478 39.5118 26.1833 40.1276 25.3272C40.1654 25.2749 40.2026 25.2222 40.2389 25.1685C40.2647 25.1307 40.2903 25.0925 40.3153 25.054C40.3228 25.0427 40.33 25.0314 40.3375 25.0201L37.3452 21.8983Z" fill="var(--fill-0, #F7F7F7)"/>
<path id="Vector_13" d="M34.8437 23.4323C34.3868 23.4323 33.9836 23.3641 33.5889 23.1872L32.1934 27.5981C32.9777 27.8668 33.8145 27.9879 34.7476 27.9879C35.6072 27.9879 36.3963 27.859 37.1118 27.6102L35.7493 23.3034C35.4557 23.3916 35.1504 23.4351 34.8437 23.4323Z" fill="var(--fill-0, #F7F7F7)"/>
<path id="Vector_14" d="M32.0544 21.9283C32.0458 21.9184 32.0372 21.9084 32.0284 21.8983L28.8174 25.248C28.8265 25.2576 28.8354 25.2672 28.8443 25.2768C29.9601 26.4695 31.0256 27.2093 32.2337 27.6153L33.6281 23.2077C33.1191 22.9884 32.6265 22.5907 32.0544 21.9283Z" fill="var(--fill-0, #F7F7F7)"/>
<path id="Vector_15" d="M32.0447 21.889C31.0816 20.7655 29.8901 18.895 28.0161 15.8701L25.5737 11.7843L25.5541 11.7514L22.7202 16.0144L22.7404 16.0485L24.4709 18.9686C26.1484 21.7843 27.515 23.8213 28.8338 25.2387C28.8429 25.2484 28.8518 25.258 28.8607 25.2676L32.0706 21.9191C32.0619 21.9092 32.0533 21.8991 32.0447 21.889Z" fill="var(--fill-0, #F7F7F7)"/>
</g>
</svg>
