<svg preserveAspectRatio="none" width="100%" height="100%" overflow="visible" style="display: block;" viewBox="0 0 64 64" fill="none" xmlns="http://www.w3.org/2000/svg">
<g id="Container">
<path id="Vector" d="M53.8024 0C59.4334 0 64 4.56563 64 10.1986V53.8024C64 59.4334 59.4334 64 53.8024 64H10.1986C4.56669 64 0 59.4335 0 53.8024V10.1986C0 4.56563 4.5666 0 10.1986 0H53.8024Z" fill="var(--fill-0, #FFFC00)"/>
<g id="Container_2">
<path id="Vector_2" d="M51.7091 42.1772C51.5368 41.5982 50.7124 41.1899 50.7124 41.1899C50.6344 41.1483 50.5647 41.1108 50.5073 41.0815C49.1332 40.4067 47.9149 39.5944 46.8895 38.6737C46.0651 37.9322 45.3596 37.1157 44.7935 36.2492C44.1003 35.191 43.7762 34.3079 43.6368 33.8288C43.5589 33.5164 43.5712 33.3914 43.6368 33.2289C43.6902 33.0915 43.8501 32.9624 43.9239 32.8999C44.3874 32.5666 45.1339 32.075 45.5933 31.7751C45.9912 31.5126 46.3317 31.2877 46.5327 31.146C47.1766 30.6878 47.6196 30.2212 47.878 29.7172C48.2144 29.0673 48.2554 28.3507 47.9929 27.6467C47.6401 26.6969 46.7664 26.1304 45.6549 26.1304C45.4087 26.1304 45.1544 26.1595 44.9001 26.2137C44.2644 26.3553 43.6614 26.5844 43.1569 26.7844C43.1484 26.7883 43.1392 26.7899 43.1299 26.7889C43.1207 26.788 43.1119 26.7846 43.1044 26.7791C43.0969 26.7736 43.091 26.7662 43.0872 26.7576C43.0835 26.749 43.082 26.7395 43.083 26.7302C43.1364 25.4596 43.1979 23.7517 43.0584 22.1312C42.9353 20.6648 42.636 19.4275 42.1519 18.3486C41.6638 17.2655 41.028 16.4656 40.5317 15.8866C40.06 15.3367 39.2273 14.5244 37.9722 13.7954C36.2084 12.7706 34.1985 12.2498 32 12.2498C29.8055 12.2498 27.7997 12.7706 26.0319 13.7954C24.7028 14.566 23.8538 15.4367 23.4683 15.8866C22.9719 16.4656 22.3361 17.2655 21.848 18.3486C21.3599 19.4276 21.0646 20.6606 20.9415 22.1312C20.8021 23.76 20.8595 25.3306 20.9169 26.7303C20.9169 26.7719 20.88 26.8011 20.839 26.7844C20.3344 26.5844 19.7315 26.3553 19.0957 26.2137C18.8455 26.1595 18.5912 26.1304 18.341 26.1304C17.2335 26.1304 16.3598 26.6969 16.0029 27.6467C15.7405 28.3507 15.7815 29.0673 16.1178 29.7172C16.3803 30.2212 16.8192 30.6877 17.4632 31.146C17.6601 31.2877 18.0046 31.5127 18.4025 31.7751C18.8496 32.0709 19.5756 32.5499 20.0432 32.879C20.1006 32.9207 20.2975 33.0707 20.3591 33.2289C20.4247 33.3956 20.437 33.5206 20.3509 33.8538C20.2073 34.3371 19.8832 35.2119 19.2023 36.2492C18.6363 37.1199 17.9308 37.9322 17.1063 38.6738C16.0809 39.5943 14.8626 40.4067 13.4885 41.0815C13.4229 41.1149 13.345 41.1523 13.2629 41.2024C13.2629 41.2024 12.4426 41.6273 12.2867 42.1772C12.057 42.9895 12.6682 43.7519 13.2876 44.1601C14.3048 44.8267 15.5435 45.1849 16.2614 45.3807C16.4623 45.4349 16.6428 45.4848 16.8069 45.5348C16.9094 45.5682 17.1679 45.6681 17.2786 45.814C17.418 45.9972 17.4345 46.2222 17.4837 46.4764C17.5616 46.9054 17.738 47.4344 18.2589 47.8011C18.8332 48.201 19.5592 48.2301 20.4821 48.2676C21.446 48.3051 22.6437 48.351 24.0179 48.8134C24.6537 49.0258 25.232 49.3882 25.8966 49.8048C27.2911 50.6755 29.0261 51.7586 31.9876 51.7586C34.9532 51.7586 36.7006 50.6713 38.1034 49.7965C38.7679 49.3841 39.3381 49.0258 39.9616 48.8175C41.3356 48.3552 42.5333 48.3092 43.4973 48.2718C44.4202 48.2343 45.1462 48.2093 45.7205 47.8052C46.2783 47.4137 46.4383 46.8304 46.5121 46.393C46.5531 46.1764 46.5777 45.9806 46.7008 45.8222C46.8074 45.6848 47.0453 45.589 47.1561 45.5515C47.3243 45.4973 47.5129 45.4473 47.7222 45.3891C48.44 45.1933 49.3423 44.9641 50.4375 44.3351C51.7583 43.5727 51.8486 42.6396 51.7091 42.1772Z" fill="var(--fill-0, white)"/>
<path id="Vector_3" d="M52.8492 41.7273C52.5579 40.9191 52 40.49 51.3684 40.1317C51.2494 40.0609 51.1387 40.0026 51.0485 39.9609C50.8598 39.8609 50.667 39.7652 50.4742 39.6652C48.5012 38.6029 46.9589 37.2615 45.8925 35.6743C45.5315 35.1369 45.2813 34.6536 45.1049 34.2579C45.0147 33.9913 45.0188 33.8413 45.0844 33.7038C45.1337 33.5997 45.2649 33.4914 45.3387 33.4373C45.6461 33.2306 45.9551 33.0264 46.2657 32.8249C46.6882 32.5458 47.0246 32.3249 47.2379 32.175C48.05 31.6001 48.6161 30.9877 48.9688 30.3045C49.4693 29.3422 49.5308 28.2424 49.1452 27.2093C48.612 25.7762 47.2748 24.8848 45.6586 24.8848C45.3224 24.8848 44.9819 24.9222 44.6455 24.9972C44.5553 25.0181 44.4692 25.0389 44.3831 25.0597C44.3994 24.0849 44.3748 23.0435 44.2887 22.027C43.9852 18.4443 42.7505 16.5656 41.4625 15.07C40.9252 14.4451 39.99 13.5328 38.5872 12.7163C36.6307 11.5749 34.4157 11 31.9997 11C29.5919 11 27.377 11.5749 25.4204 12.7123C24.0093 13.5287 23.0741 14.4451 22.5409 15.0659C21.253 16.5614 20.0183 18.4402 19.7147 22.0228C19.6287 23.0393 19.6081 24.0807 19.6204 25.0556C19.5343 25.0347 19.444 25.0139 19.358 24.9931C19.0252 24.9189 18.6855 24.8811 18.3448 24.8806C16.7287 24.8806 15.3915 25.7721 14.8583 27.2052C14.4728 28.2382 14.5342 29.338 15.0347 30.3003C15.3874 30.9836 15.9576 31.596 16.7656 32.1708C16.983 32.325 17.3153 32.5458 17.7377 32.8207C17.9674 32.9707 18.2997 33.1914 18.6278 33.4122C18.6771 33.4456 18.8535 33.5788 18.9149 33.7038C18.9847 33.8455 18.9847 33.9996 18.8821 34.2829C18.7098 34.6703 18.4596 35.1452 18.1069 35.6701C17.0609 37.224 15.5638 38.5404 13.6564 39.5901C12.6433 40.1359 11.5932 40.4983 11.1503 41.723C10.8139 42.6479 11.0353 43.7019 11.8845 44.5892C12.1634 44.8933 12.5161 45.1641 12.9591 45.414C14.001 45.9972 14.887 46.2847 15.5843 46.4805C15.7073 46.518 15.9904 46.6096 16.1134 46.7221C16.4252 46.997 16.38 47.4136 16.7943 48.0218C17.0445 48.4009 17.3317 48.6592 17.5696 48.8258C18.435 49.4341 19.4112 49.4715 20.4449 49.5132C21.3761 49.5507 22.4343 49.5923 23.6402 49.9964C24.1406 50.163 24.6616 50.488 25.2605 50.8629C26.7042 51.7669 28.6854 53 31.9956 53C35.3099 53 37.2992 51.7586 38.7554 50.8546C39.3542 50.4838 39.871 50.1589 40.3551 49.9964C41.5609 49.5924 42.6193 49.5506 43.5503 49.5132C44.584 49.4715 45.5561 49.4341 46.4257 48.8258C46.7879 48.5692 47.0903 48.235 47.3117 47.8469C47.607 47.3345 47.603 46.972 47.8818 46.7262C47.9967 46.6262 48.2469 46.5388 48.3822 46.4971C49.0837 46.3013 49.982 46.0139 51.0443 45.4181C51.5161 45.1557 51.8811 44.8683 52.1723 44.5392L52.1846 44.5267C52.9763 43.6519 53.1773 42.6312 52.8492 41.7273ZM49.9081 43.3311C48.1116 44.3392 46.9179 44.2309 45.9909 44.8349C45.2034 45.3515 45.6669 46.4638 45.0967 46.8637C44.3912 47.3595 42.3116 46.8304 39.6249 47.7302C37.4099 48.4759 35.9948 50.613 32.0038 50.613C28.0045 50.613 26.6304 48.4842 24.3826 47.7302C21.696 46.8304 19.6123 47.3595 18.9108 46.8637C18.3407 46.4638 18.8042 45.3515 18.0167 44.8349C17.0897 44.2268 15.896 44.335 14.0995 43.3311C12.955 42.6896 13.6031 42.2938 13.9845 42.1063C20.49 38.9111 21.5237 33.9705 21.5729 33.5997C21.6304 33.1581 21.6919 32.8082 21.212 32.3541C20.7485 31.9166 18.6853 30.6211 18.1151 30.217C17.1676 29.5464 16.7533 28.8756 17.0609 28.0507C17.2742 27.4801 17.7993 27.2676 18.353 27.2676C18.5253 27.2676 18.7017 27.2884 18.8698 27.3259C19.9076 27.5551 20.9166 28.0842 21.499 28.2257C21.5811 28.2466 21.6508 28.2549 21.7123 28.2549C22.0241 28.2549 22.1307 28.0966 22.1103 27.7342C22.0446 26.5803 21.8806 24.3308 22.061 22.227C22.3072 19.3358 23.2259 17.9028 24.317 16.6322C24.842 16.0241 27.3032 13.3829 32.0079 13.3829C36.725 13.3829 39.1737 16.0241 39.6988 16.6322C40.7898 17.8987 41.7087 19.3317 41.9548 22.227C42.1352 24.3308 41.9794 26.5803 41.9056 27.7342C41.8809 28.1133 41.9958 28.2549 42.3034 28.2549C42.3649 28.2549 42.4388 28.2467 42.5167 28.2257C43.0991 28.0842 44.1082 27.5551 45.146 27.3259C45.3157 27.2878 45.4889 27.2683 45.6627 27.2676C46.2165 27.2676 46.7415 27.4843 46.9548 28.0507C47.2625 28.8756 46.8441 29.5464 45.9007 30.217C45.3306 30.6211 43.2673 31.9167 42.8038 32.3541C42.3239 32.804 42.3855 33.1539 42.4428 33.5997C42.488 33.9705 43.5257 38.9111 50.0312 42.1063C50.4004 42.2938 51.0525 42.6896 49.9081 43.3311Z" fill="var(--fill-0, black)"/>
</g>
</g>
</svg>
