<svg preserveAspectRatio="none" width="100%" height="100%" overflow="visible" style="display: block;" viewBox="0 0 64 64" fill="none" xmlns="http://www.w3.org/2000/svg">
<g id="Group">
<path id="Vector" d="M49 0H15C6.71573 0 0 6.71573 0 15V49C0 57.2843 6.71573 64 15 64H49C57.2843 64 64 57.2843 64 49V15C64 6.71573 57.2843 0 49 0Z" fill="url(#paint0_radial_0_99)"/>
<path id="Vector_2" d="M49 0H15C6.71573 0 0 6.71573 0 15V49C0 57.2843 6.71573 64 15 64H49C57.2843 64 64 57.2843 64 49V15C64 6.71573 57.2843 0 49 0Z" fill="url(#paint1_radial_0_99)"/>
<path id="Vector_3" d="M32.0019 11C26.2987 11 25.5828 11.025 23.343 11.1268C21.1073 11.2293 19.5812 11.5832 18.246 12.1025C16.8647 12.6388 15.6931 13.3564 14.5259 14.524C13.3577 15.6914 12.6401 16.8629 12.1021 18.2437C11.5813 19.5793 11.227 21.1059 11.1264 23.3405C11.0262 25.5806 11 26.2967 11 32C11 37.7033 11.0252 38.4169 11.1268 40.6567C11.2297 42.8924 11.5836 44.4184 12.1025 45.7536C12.6393 47.135 13.3568 48.3065 14.5244 49.4737C15.6914 50.6419 16.863 51.3612 18.2433 51.8975C19.5795 52.4168 21.1058 52.7707 23.3411 52.8732C25.5811 52.975 26.2964 53 31.9994 53C37.7032 53 38.4168 52.975 40.6566 52.8732C42.8923 52.7707 44.42 52.4168 45.7563 51.8975C47.137 51.3612 48.3069 50.6419 49.4737 49.4737C50.6419 48.3065 51.3593 47.135 51.8975 45.7542C52.4137 44.4184 52.7682 42.892 52.8732 40.6572C52.9737 38.4173 53 37.7033 53 32C53 26.2967 52.9737 25.581 52.8732 23.3409C52.7682 21.1053 52.4137 19.5795 51.8975 18.2443C51.3593 16.8629 50.6419 15.6914 49.4737 14.524C48.3057 13.356 47.1374 12.6384 45.755 12.1027C44.4162 11.5832 42.8893 11.2291 40.6537 11.1268C38.4136 11.025 37.7004 11 31.9954 11H32.0019ZM30.118 14.7844C30.6772 14.7835 31.3011 14.7844 32.0019 14.7844C37.6091 14.7844 38.2735 14.8045 40.4878 14.9051C42.5353 14.9988 43.6466 15.3409 44.3868 15.6284C45.3669 16.0089 46.0656 16.4639 46.8002 17.1991C47.5352 17.9341 47.99 18.6341 48.3716 19.6141C48.6591 20.3533 49.0016 21.4646 49.0948 23.5121C49.1954 25.7259 49.2173 26.3907 49.2173 31.9952C49.2173 37.5996 49.1954 38.2647 49.0948 40.4782C49.0012 42.5257 48.6591 43.637 48.3716 44.3764C47.9911 45.3565 47.5352 46.0543 46.8002 46.7889C46.0652 47.5239 45.3673 47.9787 44.3868 48.3595C43.6474 48.6482 42.5353 48.9895 40.4878 49.0831C38.274 49.1837 37.6091 49.2055 32.0019 49.2055C26.3945 49.2055 25.7298 49.1837 23.5162 49.0831C21.4687 48.9886 20.3574 48.6465 19.6165 48.359C18.6366 47.9783 17.9365 47.5235 17.2015 46.7885C16.4665 46.0535 16.0116 45.3552 15.6301 44.3748C15.3426 43.6354 15.0001 42.524 14.9068 40.4766C14.8062 38.2628 14.7861 37.5979 14.7861 31.9899C14.7861 26.3819 14.8062 25.7206 14.9068 23.5068C15.0005 21.4594 15.3426 20.3481 15.6301 19.6078C16.0108 18.6278 16.4665 17.9278 17.2017 17.1928C17.9369 16.4578 18.6366 16.0028 19.6167 15.6214C20.357 15.3327 21.4687 14.9914 23.5162 14.8974C25.4535 14.8098 26.2042 14.7835 30.118 14.7791V14.7844ZM43.2117 18.2712C41.8204 18.2712 40.6917 19.3989 40.6917 20.7903C40.6917 22.1815 41.8204 23.3103 43.2117 23.3103C44.6029 23.3103 45.7317 22.1815 45.7317 20.7903C45.7317 19.3991 44.6029 18.2703 43.2117 18.2703V18.2712ZM32.0019 21.2156C26.0463 21.2156 21.2175 26.0443 21.2175 32C21.2175 37.9558 26.0463 42.7821 32.0019 42.7821C37.9577 42.7821 42.7848 37.9558 42.7848 32C42.7848 26.0445 37.9573 21.2156 32.0015 21.2156H32.0019ZM32.0019 24.9999C35.8678 24.9999 39.002 28.1337 39.002 32C39.002 35.8659 35.8678 39.0001 32.0019 39.0001C28.136 39.0001 25.002 35.8659 25.002 32C25.002 28.1337 28.1358 24.9999 32.0019 24.9999Z" fill="var(--fill-0, white)"/>
</g>
<defs>
<radialGradient id="paint0_radial_0_99" cx="0" cy="0" r="1" gradientUnits="userSpaceOnUse" gradientTransform="translate(17 68.9292) rotate(-90) scale(63.4288 58.9938)">
<stop stop-color="#FFDD55"/>
<stop offset="0.1" stop-color="#FFDD55"/>
<stop offset="0.5" stop-color="#FF543E"/>
<stop offset="1" stop-color="#C837AB"/>
</radialGradient>
<radialGradient id="paint1_radial_0_99" cx="0" cy="0" r="1" gradientUnits="userSpaceOnUse" gradientTransform="translate(-10.7202 4.6104) rotate(78.68) scale(28.353 116.872)">
<stop stop-color="#3771C8"/>
<stop offset="0.128" stop-color="#3771C8"/>
<stop offset="1" stop-color="#6600FF" stop-opacity="0"/>
</radialGradient>
</defs>
</svg>
