<svg preserveAspectRatio="none" width="100%" height="100%" overflow="visible" style="display: block;" viewBox="0 0 64 64" fill="none" xmlns="http://www.w3.org/2000/svg">
<g id="logos:pinterest">
<path d="M0 20C0 8.95431 8.95431 0 20 0H44C55.0457 0 64 8.95431 64 20V44C64 55.0457 55.0457 64 44 64H20C8.95431 64 0 55.0457 0 44V20Z" fill="var(--fill-0, #CB1F27)"/>
<path id="Vector" d="M11 31.9998C11 40.5987 16.1709 47.9859 23.5703 51.2338C23.5112 49.7674 23.5598 48.0071 23.9358 46.4116C24.3395 44.7069 26.6379 34.9689 26.6379 34.9689C26.6379 34.9689 25.967 33.628 25.967 31.6464C25.967 28.5344 27.7707 26.2101 30.0171 26.2101C31.9272 26.2101 32.8501 27.6448 32.8501 29.3628C32.8501 31.283 31.6254 34.1551 30.9955 36.8153C30.4694 39.0429 32.1125 40.8599 34.3101 40.8599C38.2889 40.8599 40.9687 35.7496 40.9687 29.6949C40.9687 25.0924 37.8687 21.6475 32.2304 21.6475C25.8602 21.6475 21.8917 26.398 21.8917 31.7043C21.8917 33.5339 22.4312 34.824 23.2761 35.8231C23.6646 36.282 23.7186 36.4666 23.578 36.9935C23.4772 37.3799 23.2459 38.3101 23.1501 38.6787C23.0103 39.2106 22.5793 39.4007 22.0986 39.2044C19.1645 38.0066 17.7981 34.7935 17.7981 31.1816C17.7981 25.2163 22.8292 18.0634 32.8068 18.0634C40.8245 18.0634 46.1015 23.8651 46.1015 30.0929C46.1015 38.3308 41.5216 44.4851 34.7704 44.4851C32.5033 44.4851 30.3706 43.2595 29.6401 41.8675C29.6401 41.8675 28.4209 46.7059 28.1627 47.6402C27.7174 49.2593 26.8459 50.8776 26.0491 52.1389C27.9813 52.7102 29.9858 53.0002 32.0007 53C43.5973 53 53 43.598 53 31.9998C53 20.402 43.5973 11 32.0007 11C20.403 11 11 20.402 11 31.9998Z" fill="var(--fill-0, white)"/>
</g>
</svg>
