<svg preserveAspectRatio="none" width="100%" height="100%" overflow="visible" style="display: block;" viewBox="0 0 64 64" fill="none" xmlns="http://www.w3.org/2000/svg">
<g id="Group">
<path id="Vector" d="M49 0H15C6.71573 0 0 6.71573 0 15V49C0 57.2843 6.71573 64 15 64H49C57.2843 64 64 57.2843 64 49V15C64 6.71573 57.2843 0 49 0Z" fill="var(--fill-0, #0A66C2)"/>
<path id="Vector_2" d="M45.2335 53H52.0632C52.3107 53 52.548 52.9039 52.7231 52.7328C52.8981 52.5616 52.9964 52.3295 52.9965 52.0875L53 37.9766C53 30.6012 51.3748 24.9322 42.5611 24.9322C39.2107 24.8103 36.0511 26.4993 34.3462 29.3196C34.3378 29.3333 34.3251 29.3439 34.31 29.3499C34.2949 29.3559 34.2782 29.3569 34.2625 29.3527C34.2468 29.3485 34.2329 29.3395 34.2229 29.3268C34.2129 29.3142 34.2075 29.2988 34.2073 29.2828V26.5258C34.2073 26.2837 34.109 26.0515 33.934 25.8804C33.7589 25.7092 33.5215 25.613 33.274 25.613H26.7927C26.5452 25.613 26.3078 25.7092 26.1327 25.8804C25.9577 26.0515 25.8594 26.2837 25.8594 26.5258V52.0861C25.8594 52.3282 25.9577 52.5604 26.1327 52.7315C26.3078 52.9027 26.5452 52.9989 26.7927 52.9989H33.6219C33.8694 52.9989 34.1068 52.9027 34.2819 52.7315C34.4569 52.5604 34.5552 52.3282 34.5552 52.0861V39.4513C34.5552 35.8787 35.2482 32.4189 39.7775 32.4189C44.2423 32.4189 44.3002 36.5069 44.3002 39.6827V52.0873C44.3002 52.3294 44.3985 52.5615 44.5735 52.7327C44.7486 52.9038 44.986 53 45.2335 53ZM11 16.935C11 19.6421 13.279 21.8696 16.0475 21.8696C18.8153 21.8693 21.0928 19.6405 21.0928 16.9339C21.0924 14.2272 18.8146 12 16.0465 12C13.2778 12 11 14.2279 11 16.935ZM12.6238 53H19.4621C19.7096 53 19.947 52.9038 20.122 52.7327C20.2971 52.5615 20.3954 52.3294 20.3954 52.0873V26.5258C20.3954 26.2837 20.2971 26.0515 20.122 25.8804C19.947 25.7092 19.7096 25.613 19.4621 25.613H12.6238C12.3762 25.613 12.1388 25.7092 11.9638 25.8804C11.7888 26.0515 11.6904 26.2837 11.6904 26.5258V52.0873C11.6904 52.3294 11.7888 52.5615 11.9638 52.7327C12.1388 52.9038 12.3762 53 12.6238 53Z" fill="var(--fill-0, white)"/>
</g>
</svg>
