<svg preserveAspectRatio="none" width="100%" height="100%" overflow="visible" style="display: block;" viewBox="0 0 36 42" fill="none" xmlns="http://www.w3.org/2000/svg">
<path id="Vector" d="M28.5612 6.58C26.9922 4.7589 26.1273 2.4206 26.1275 0H19.0332V28.9333C18.9796 30.4994 18.3295 31.9832 17.2201 33.0715C16.1107 34.1598 14.6287 34.7676 13.0867 34.7667C9.82653 34.7667 7.11735 32.06 7.11735 28.7C7.11735 24.6867 10.9286 21.6767 14.8546 22.9133V15.54C6.93367 14.4667 0 20.72 0 28.7C0 36.47 6.33674 42 13.0638 42C20.273 42 26.1275 36.05 26.1275 28.7V14.0233C29.0043 16.123 32.4582 17.2495 36 17.2433V10.0333C36 10.0333 31.6837 10.2433 28.5612 6.58Z" fill="var(--fill-0, #F6F6F6)"/>
</svg>
