<svg preserveAspectRatio="none" width="100%" height="100%" overflow="visible" style="display: block;" viewBox="0 0 64 64" fill="none" xmlns="http://www.w3.org/2000/svg">
<g id="logos:pinterest">
<path d="M0 20C0 8.95431 8.95431 0 20 0H44C55.0457 0 64 8.95431 64 20V44C64 55.0457 55.0457 64 44 64H20C8.95431 64 0 55.0457 0 44V20Z" fill="var(--fill-0, #FF3D00)"/>
<path id="Vector" fill-rule="evenodd" clip-rule="evenodd" d="M14.856 15H21.714V21.7988H28.572V28.5996H28.568H35.43V21.7988H42.284V15H49.144V42.1992H56V49H35.428V42.2012H28.572V35.4004H21.712V42.1992L28.572 42.2012V49H8V42.1992H14.856V15ZM35.428 42.2012H42.284V35.4004H35.43V42.2012H35.428Z" fill="var(--fill-0, white)"/>
</g>
</svg>
