<svg preserveAspectRatio="none" width="100%" height="100%" overflow="visible" style="display: block;" viewBox="0 0 106 32" fill="none" xmlns="http://www.w3.org/2000/svg">
<g id="SVG Image 1 (9) 1" clip-path="url(#clip0_0_837)">
<path id="Union" d="M19.2002 0C23.6804 1.82672e-10 25.9205 0.000150084 27.6318 0.87207C29.1371 1.63906 30.3609 2.86287 31.1279 4.36816C31.9998 6.07943 32 8.31955 32 12.7998V19.2002C32 23.6804 31.9998 25.9205 31.1279 27.6318C30.3609 29.1371 29.1371 30.3609 27.6318 31.1279C25.9205 31.9998 23.6804 32 19.2002 32H12.7998C8.31955 32 6.07943 31.9998 4.36816 31.1279C2.86287 30.3609 1.63906 29.1371 0.87207 27.6318C0.000150084 25.9205 1.82681e-10 23.6804 0 19.2002V12.7998C1.86272e-10 8.31955 0.000147521 6.07943 0.87207 4.36816C1.63906 2.86287 2.86287 1.63906 4.36816 0.87207C6.07943 0.000147521 8.31955 1.8628e-10 12.7998 0H19.2002ZM85.208 12.2773C86.4699 12.2774 87.5991 12.5722 88.5957 13.1621C89.6084 13.7358 90.406 14.5307 90.9873 15.5469C91.5686 16.5465 91.8593 17.6937 91.8594 18.9883C91.8594 20.283 91.5686 21.4389 90.9873 22.4551C90.406 23.4548 89.6083 24.2499 88.5957 24.8398C87.5991 25.4134 86.4698 25.7002 85.208 25.7002C83.9293 25.7002 82.7829 25.4135 81.7695 24.8398C80.773 24.2499 79.9846 23.4547 79.4033 22.4551C78.822 21.4389 78.5312 20.283 78.5312 18.9883C78.5313 17.6937 78.822 16.5465 79.4033 15.5469C79.9846 14.5308 80.773 13.7358 81.7695 13.1621C82.7829 12.5721 83.9293 12.2773 85.208 12.2773ZM52.9863 10.8027H44.6904V15.3506H51.6162V17.9072H44.6904V22.8984H52.9863V25.4551H42V8.24609H52.9863V10.8027ZM59.2686 25.4541H56.7031V7.2627H59.2686V25.4541ZM65.8965 25.4541H63.3311V12.5479H65.8965V25.4541ZM76.417 12.2773C76.6997 12.2773 76.9662 12.3015 77.2148 12.3506C77.4807 12.3998 77.6876 12.4579 77.8369 12.5234L77.1641 15.2764C76.9655 15.1944 76.7407 15.1292 76.4922 15.0801C76.2597 15.0146 76.0274 14.9815 75.7949 14.9814C75.3469 14.9814 74.9144 15.0717 74.499 15.252C74.1004 15.4158 73.7437 15.6535 73.4277 15.9648C73.1292 16.2597 72.8887 16.612 72.7061 17.0215C72.5234 17.4149 72.4316 17.8499 72.4316 18.3252V25.4541H69.8408V12.5479H72.4316V14.9629C72.6056 14.5935 72.8298 14.2469 73.1045 13.9238C73.5524 13.4159 74.0595 13.0147 74.624 12.7197C75.2053 12.4248 75.8031 12.2774 76.417 12.2773ZM99.5205 17.1016L102.513 12.5479H105.552L100.932 18.916L106 25.4541H102.861L99.2705 20.8477L95.8115 25.4541H92.7725L97.8018 18.9805L92.7471 12.5479H95.9854L99.5205 17.1016ZM85.208 14.5879C84.4275 14.5879 83.7214 14.7845 83.0908 15.1777C82.4763 15.5546 81.9942 16.0793 81.6455 16.751C81.2969 17.4065 81.1308 18.1525 81.1475 18.9883C81.1308 19.8241 81.2969 20.578 81.6455 21.25C81.9942 21.9055 82.4762 22.4299 83.0908 22.8232C83.7215 23.2002 84.4273 23.3887 85.208 23.3887C85.9886 23.3887 86.6861 23.2002 87.3008 22.8232C87.9146 22.4299 88.3965 21.9054 88.7451 21.25C89.0937 20.578 89.2598 19.8241 89.2432 18.9883C89.2598 18.1361 89.0937 17.3821 88.7451 16.7266C88.3965 16.0548 87.9147 15.5302 87.3008 15.1533C86.6861 14.7764 85.9886 14.5879 85.208 14.5879ZM15.3682 19.6826H4.82227L4.81055 22.4014H16.3408V22.3994H16.4766L27.1982 11.4951L25.2793 9.60156L15.3682 19.6826ZM21.8945 18.958L25.2793 22.4004L27.1982 20.5078L23.7842 17.0352L21.8945 18.958ZM4.79883 17.415H13.8262L13.8145 14.6953H4.81055L4.79883 17.415ZM4.83594 12.3213H15.376L17.9844 14.9697L19.874 13.0469L16.4824 9.60156H4.84766L4.83594 12.3213ZM64.5752 6.5C65.1231 6.5 65.5468 6.63947 65.8457 6.91797C66.1446 7.19652 66.2949 7.58972 66.2949 8.09766C66.2949 8.57284 66.1366 8.95797 65.8213 9.25293C65.5224 9.54793 65.1066 9.69629 64.5752 9.69629C64.0273 9.69621 63.6035 9.55684 63.3047 9.27832C63.0058 8.99966 62.8564 8.60567 62.8564 8.09766C62.8565 7.62261 63.0059 7.2373 63.3047 6.94238C63.6201 6.64743 64.0439 6.50008 64.5752 6.5Z" fill="var(--fill-0, #1F2026)"/>
</g>
<defs>
<clipPath id="clip0_0_837">
<rect width="106" height="32" fill="white"/>
</clipPath>
</defs>
</svg>
