<svg preserveAspectRatio="none" width="100%" height="100%" overflow="visible" style="display: block;" viewBox="0 0 180.001 24.0005" fill="none" xmlns="http://www.w3.org/2000/svg">
<path id="Union" d="M18.7232 9.29824e-05C29.2168 0.00553593 31.0023 0.17854 33.7212 1.45126C35.5975 2.32961 37.8744 4.64379 38.9117 6.72763C39.7099 8.33134 39.767 8.66767 39.771 11.7413C39.7753 14.8339 39.7213 15.1505 38.8853 16.9112C37.1226 20.6249 33.5698 23.1568 29.1822 23.8263C23.8528 24.6392 15.1584 22.534 9.44682 19.0479C7.71782 17.9928 6.26615 16.7479 6.26615 16.3214C6.26908 16.1743 7.97694 16.0188 10.0767 15.9747C12.896 15.9157 13.8875 15.8019 13.8882 15.5362C13.8882 15.3388 12.3692 14.3452 10.5122 13.3282C4.63543 10.1103 -0.278142 6.51524 0.0122468 5.6456C0.0996892 5.38405 2.07056 5.27585 7.80033 5.21884C13.652 5.1604 15.4695 5.05873 15.4663 4.78916C15.4621 4.59403 14.2007 3.82823 12.6617 3.08701C9.49183 1.56004 8.39257 0.795517 8.68607 0.321382C8.83076 0.0881896 11.6813 -0.00334341 18.7232 9.29824e-05ZM52.0552 4.00986C53.9154 3.62139 58.2026 3.96627 60.3423 4.67587L62.2115 5.29501L62.2984 7.12216C62.3775 8.78804 62.339 8.92995 61.8667 8.73056C57.6911 6.96932 50.8501 6.97684 50.8501 8.74326C50.8505 9.53889 52.1753 9.95774 55.7398 10.2892C61.649 10.8386 63.5145 12.177 63.1187 15.5821C62.9769 16.8006 62.7627 17.2144 61.8228 18.0938C61.1366 18.736 60.1026 19.323 59.1734 19.5977C56.2567 20.4606 51.2678 19.9987 48.5396 18.6124L47.398 18.0323V14.3097L48.8316 15.0333C52.9553 17.1142 59.4785 17.131 59.479 15.0606C59.479 14.6643 59.2527 14.2233 58.9761 14.0802C58.6994 13.9372 56.7896 13.6652 54.7329 13.4767C48.9407 12.9461 47.2544 11.9085 47.2544 8.87412C47.2545 7.62516 47.4071 6.99392 47.855 6.39072C48.6032 5.38346 50.4263 4.34991 52.0552 4.00986ZM150.082 4.10849C152.872 3.50948 156.205 3.79425 159.124 4.88193L160.728 5.47959V7.21103C160.728 8.73136 160.667 8.92345 160.225 8.78037C156.92 7.70982 155.476 7.44444 152.96 7.44443C150.133 7.44443 148.935 7.83082 148.935 8.74326C148.935 9.52601 150.258 9.95555 153.681 10.2852C157.984 10.6998 159.142 11.0401 160.348 12.2413C161.221 13.1109 161.303 13.343 161.303 14.9395C161.303 16.6134 161.252 16.7375 160.079 17.9063C159.228 18.7537 158.378 19.2674 157.294 19.588C154.343 20.4609 149.367 20.0058 146.625 18.6124L145.483 18.0323V14.3097L146.917 15.0333C151.06 17.1241 157.564 17.1304 157.564 15.044C157.564 14.0537 156.958 13.8452 152.962 13.464C147.802 12.9712 146.427 12.4028 145.592 10.4132C145.05 9.11976 145.095 8.19219 145.762 6.88876C146.453 5.53923 147.973 4.56087 150.082 4.10849ZM142.895 8.81162C142.895 14.278 142.543 15.7861 140.835 17.631C139.176 19.4237 137.133 20.1402 134.118 19.9884C130.423 19.8021 128.032 18.1908 126.884 15.1124C126.565 14.2555 126.386 12.4556 126.284 9.09091L126.138 4.29306H130.239V8.90439C130.239 14.3017 130.484 15.1402 132.341 16.0841C133.795 16.8226 136.198 16.7083 137.37 15.8448C138.787 14.8004 138.991 13.9864 139.079 9.01962L139.16 4.43564L141.027 4.35166L142.895 4.26669V8.81162ZM31.4488 4.56943C29.9401 3.92266 28.0153 3.71284 26.4429 4.02451C22.6407 4.77853 20.0729 7.99175 20.0728 11.9952C20.0728 18.8282 28.2824 22.5118 33.438 17.9923C37.8648 14.1113 36.7902 6.86098 31.4488 4.56943ZM89.5523 4.29306L91.4869 10.2374C92.5508 13.5066 93.4214 16.3433 93.4214 16.5401C93.421 17.3697 93.9988 16.8042 94.2994 15.6808C94.4783 15.011 95.1874 12.7228 95.8746 10.5958C96.5617 8.46869 97.2818 6.17965 97.4751 5.50986L97.8267 4.29306H104.351V19.4044C104.351 19.5224 103.542 19.6192 102.553 19.6192H100.755L100.612 13.544L100.468 7.46787L98.4703 13.6241L96.4712 19.7813L90.6939 19.6192L90.1734 18.044C89.8872 17.1774 88.953 14.3411 88.0982 11.7413L86.5435 7.01474L86.5298 13.3888L86.5171 19.7628H82.7779V4.29306H89.5523ZM79.9019 4.29306V7.44443H69.2593V10.3087H79.9322L79.8443 11.8126L79.7574 13.3165L69.2593 13.4727V16.3253H79.9019V19.7628H65.5201V4.29306H79.9019ZM114.14 4.29306C121.08 4.29306 121.69 4.40534 123.153 5.95517C124.143 7.00434 124.593 8.98832 124.217 10.6515C123.926 11.9446 122.804 13.266 121.372 14.004L120.416 14.4972L122.428 16.9063C123.535 18.2312 124.38 19.416 124.303 19.5392C124.227 19.6623 123.275 19.7628 122.188 19.7628H120.211L116.088 14.7491L113.815 14.6056L111.541 14.463L111.542 17.1124V19.7628H107.802V4.29306H114.14ZM167.344 4.29306V10.0226H176.548V4.29306H180.001V19.7628H176.548V13.7462H167.344V19.7628H163.605V4.29306H167.344ZM27.3814 6.44052C27.6294 5.45668 28.9834 5.48369 31.021 6.51279C33.0178 7.52119 34.1937 9.14088 34.3872 11.1485L34.5279 12.6007H33.3316C32.1055 12.6007 32.0636 12.56 31.729 11.0509C31.4637 9.85545 29.8756 8.3872 28.5865 8.14658C27.3954 7.92398 27.1096 7.51939 27.3814 6.44052ZM111.542 11.1681H115.569C119.212 11.1681 119.651 11.1142 120.171 10.5958C120.894 9.87624 120.902 9.13138 120.198 8.26376C119.675 7.62006 119.452 7.58304 115.595 7.49423L111.542 7.40048V11.1681Z" fill="var(--fill-0, #2F3037)"/>
</svg>
