<svg preserveAspectRatio="none" width="100%" height="100%" overflow="visible" style="display: block;" viewBox="0 0 112.7 15.2969" fill="none" xmlns="http://www.w3.org/2000/svg">
<path id="Union" d="M46.8086 0.740234C45.5311 2.2018 44.6254 4.40836 44.0918 7.35938H44.2373C44.6572 7.35923 45.1804 7.16829 45.8057 6.78711C45.6758 7.82835 45.1561 8.34943 44.2461 8.34961H43.8896C43.7247 9.22137 43.6441 10.1069 43.6475 10.9941C43.6475 12.5371 44.1248 13.3086 45.0791 13.3086C45.4726 13.3085 45.9087 13.1427 46.3887 12.8105C46.3081 13.8729 45.6066 14.4038 44.2852 14.4033C42.7387 14.4031 41.9648 13.2293 41.9648 10.8818C41.9703 10.0309 42.0602 9.18254 42.2354 8.34961L37.9912 8.34863L36.9736 13.4141C36.8654 13.907 36.8105 14.2584 36.8105 14.4678C36.8173 14.6118 36.8517 14.7534 36.9092 14.8857C36.3661 15.159 35.873 15.2965 35.4287 15.2969C35.1421 15.2969 35.0001 15.1836 35 14.959C35 14.8468 35.0529 14.5143 35.1611 13.9619L36.2881 8.34863H35.9561C35.1642 8.34865 34.3447 8.56844 33.498 9.00781C33.7239 8.35927 34.0237 7.92195 34.3955 7.69629C34.7681 7.47073 35.3725 7.35793 36.207 7.3584H36.4922L37.3252 3.17871C36.8863 3.24672 36.4424 3.28162 35.998 3.28418C35.1466 3.28416 34.6419 2.72363 34.4863 1.60156C34.8745 1.92395 35.3982 2.08536 36.0576 2.08496C36.9172 2.08496 37.9976 2.00113 39.2988 1.83496L38.1875 7.3584H42.4375C42.9494 5.06225 43.4886 3.35878 44.0547 2.24805C44.3671 1.64033 44.6497 1.25547 44.9033 1.09473C45.1569 0.934006 45.6553 0.826932 46.3965 0.772461C46.4878 0.761696 46.6261 0.751 46.8086 0.740234ZM3.28613 0.987305C3.61948 0.987345 3.78711 1.17824 3.78711 1.55957C3.787 1.65633 3.69825 2.12894 3.52051 2.97754L2.11523 10.0391C1.91031 11.0535 1.80859 11.7601 1.80859 12.1572C1.80887 12.8282 2.55444 13.164 4.0459 13.1641C5.37886 13.1641 6.75198 12.8927 8.16406 12.3506C7.98621 12.876 7.77628 13.259 7.53418 13.499C7.29073 13.739 6.67783 13.9505 5.69531 14.1338C4.66671 14.3176 3.62295 14.4084 2.57812 14.4043C0.859634 14.4043 0 13.8182 0 12.6475C7.13289e-05 12.3196 0.0923422 11.6998 0.275391 10.7881L1.84863 2.88281C1.93858 2.42624 1.98438 2.09798 1.98438 1.89941C1.98227 1.71276 1.91304 1.53288 1.79004 1.39258C2.50625 1.12244 3.00547 0.987305 3.28613 0.987305ZM20.2705 4.71973C20.8636 4.71973 21.4637 5.49385 22.0703 7.04199C22.6763 8.59036 23.1122 10.4617 23.376 12.6553C24.2876 11.5143 25.0714 10.2778 25.7139 8.96777C26.3285 7.70098 26.6763 6.60888 26.7568 5.69141C27.5648 6.01329 27.9697 6.37821 27.9697 6.78613C27.9695 7.15144 27.583 7.97799 26.8096 9.26562C26.0487 10.5374 25.2064 11.7601 24.29 12.9258C23.8486 13.4838 23.4761 13.8437 23.1738 14.0059C22.8723 14.1679 22.371 14.2742 21.6699 14.3242C21.7788 13.9249 21.8375 13.514 21.8477 13.1006C21.8477 11.775 21.5644 10.3093 20.999 8.7041C20.9851 8.66457 20.9691 8.62597 20.9551 8.58691C20.0018 10.0711 18.8426 11.3348 17.4746 12.376C15.7847 13.6626 14.1827 14.3062 12.668 14.3066C11.6975 14.3066 10.9312 13.9953 10.3672 13.373C9.80389 12.7508 9.52155 11.9004 9.52148 10.8213C9.52148 9.26429 10.0326 7.93251 11.0537 6.82715C12.0756 5.72177 13.3069 5.16942 14.7461 5.16895C15.442 5.16895 15.9987 5.3434 16.416 5.69238C16.8331 6.04121 17.0419 6.50767 17.042 7.0918C17.042 8.0522 16.4617 8.90241 15.2998 9.64258C14.138 10.3828 12.8026 10.7529 11.2939 10.7529C11.2939 12.3226 11.9618 13.1078 13.2988 13.1074C14.458 13.1074 15.7366 12.5586 17.1318 11.4609C18.3937 10.4685 19.5406 9.1895 20.5791 7.62793C20.1122 6.54697 19.5894 5.69499 19.0098 5.07324C19.4782 4.83703 19.8987 4.71935 20.2705 4.71973ZM75.2168 9.68555C75.0498 10.5547 74.9659 11.153 74.9658 11.4805C74.9658 12.3873 75.3006 12.8413 75.9688 12.8418C76.6159 12.8417 77.2673 12.4775 77.9219 11.75C78.3498 11.2743 78.956 10.4467 79.7422 9.26855C79.9972 8.48492 80.3933 7.75703 80.9316 7.08496C81.9542 5.80754 83.1376 5.16895 84.4814 5.16895C85.295 5.16897 86.1768 5.42103 87.127 5.92578C87.2663 5.42645 87.8382 5.17676 88.8418 5.17676C88.906 5.17677 89.0106 5.1792 89.1562 5.18457C88.8486 5.651 88.6148 6.28976 88.4531 7.10059L88.3174 7.78516C88.1612 8.54735 88.0837 9.43832 88.083 10.458C88.083 11.6341 88.3577 12.2221 88.9082 12.2217C89.4904 12.2214 90.2871 11.7371 91.2979 10.7686C92.2534 9.85221 93.1915 8.69769 94.1162 7.30859C94.0739 6.84906 93.9491 6.49831 93.7383 6.25684C94.3629 6.03185 94.8051 5.91901 95.0635 5.91895C95.5389 5.91895 95.7761 6.19842 95.7754 6.75586C95.7753 6.95509 95.7111 7.69277 95.582 8.96875L95.3535 11.2754C97.2958 7.20423 99.0099 5.16802 100.497 5.16797C101.15 5.16797 101.477 5.63692 101.477 6.57422C101.477 6.97585 101.336 7.88122 101.056 9.29004L100.57 11.7217C101.514 9.74835 102.498 8.16249 103.522 6.96387C104.547 5.7653 105.43 5.16551 106.175 5.16504C106.994 5.16507 107.403 5.64222 107.403 6.59668C107.403 6.93982 107.283 7.72531 107.039 8.95312L106.789 10.208C106.637 10.9637 106.563 11.524 106.562 11.8887C106.562 12.5315 106.791 12.8539 107.249 12.8545C108.284 12.8545 109.876 10.9432 112.021 7.12109L112.7 7.49805C110.361 12.0349 108.317 14.3032 106.569 14.3027C105.454 14.3026 104.896 13.5784 104.896 12.1299C104.896 11.6463 105.003 10.8698 105.219 9.80176L105.445 8.69141C105.596 7.94032 105.672 7.47284 105.672 7.29004C105.672 7.05966 105.553 6.94434 105.315 6.94434C104.734 6.94483 103.691 8.09589 102.187 10.3975C100.823 12.4959 100.141 13.6956 100.141 13.9961C100.145 14.0535 100.157 14.1108 100.173 14.166C100.098 14.1818 99.965 14.2165 99.7764 14.2705C99.6587 14.3021 99.5355 14.3154 99.4131 14.3105C98.9113 14.3105 98.6611 14.072 98.6611 13.5947C98.6612 13.4499 98.7411 13.013 98.9033 12.2842C98.9622 12.0222 99.0225 11.7402 99.082 11.4395L99.4209 9.73535C99.6684 8.50761 99.792 7.77032 99.792 7.52344C99.792 7.16339 99.6607 6.98357 99.3965 6.9834C98.8142 6.9834 97.9569 8.02017 96.8242 10.0947C95.6975 12.1532 95.1348 13.3811 95.1348 13.7773C95.1381 13.899 95.1839 14.0155 95.2637 14.1074C95.0087 14.2269 94.7312 14.2933 94.4492 14.3018C93.8888 14.3016 93.6084 14.0003 93.6084 13.3994C93.6087 13.3222 93.6902 12.5411 93.8516 11.0566L94.0361 9.3418C94.0547 9.17831 94.0698 9.01452 94.083 8.85059C93.2943 10.0375 92.4298 11.0662 91.4873 11.9355C90.2051 13.1188 89.104 13.7109 88.1836 13.7119C87.0184 13.7119 86.4356 12.7463 86.4355 10.8145C86.4349 10.4119 86.4516 9.86917 86.4834 9.1875C85.7929 10.6099 84.9411 11.819 83.9287 12.8145C82.9163 13.8099 82.0352 14.3076 81.2832 14.3076C80.7119 14.3076 80.2547 14.0546 79.9111 13.5479C79.5676 13.0409 79.3958 12.3652 79.3965 11.5215C79.3965 11.4641 79.3982 11.4066 79.3994 11.3496C79.0742 11.7728 78.752 12.1608 78.4258 12.5078C77.2991 13.7073 76.3016 14.3066 75.4346 14.3066C75.1405 14.3145 74.8477 14.2527 74.582 14.126C74.3163 13.9993 74.0848 13.8116 73.9062 13.5781C73.5181 13.0923 73.3242 12.4573 73.3242 11.6738C73.3242 11.234 73.4048 10.6111 73.5664 9.80566L73.8711 8.27637C73.3979 8.44973 72.92 8.53903 72.4355 8.53906C71.833 8.54041 71.1508 8.41767 70.3906 8.1709C70.4055 8.28556 70.4127 8.4019 70.4141 8.51758C70.414 10.0689 69.8864 11.4217 68.8301 12.5752C67.7737 13.7287 66.5354 14.3052 65.1172 14.3057C64.0319 14.3056 63.1499 13.9607 62.4717 13.2715C61.8835 12.6736 61.548 11.9211 61.4678 11.0137C61.1708 11.3383 60.8661 11.6461 60.5518 11.9355C59.2668 13.1188 58.1639 13.7109 57.2441 13.7109C56.0802 13.7109 55.4971 12.7445 55.4971 10.8125C55.4984 10.4109 55.5154 9.86901 55.5479 9.1875C54.8567 10.6099 54.0049 11.819 52.9932 12.8145C51.9814 13.8099 51.0994 14.3076 50.3467 14.3076C49.7748 14.3075 49.3167 14.0546 48.9746 13.5479C48.6324 13.0409 48.461 12.3652 48.4609 11.5215C48.4609 9.84117 48.9726 8.3623 49.9951 7.08496C51.0177 5.80754 52.2011 5.16895 53.5449 5.16895C54.3591 5.169 55.241 5.42105 56.1904 5.92578C56.3311 5.42649 56.9025 5.1768 57.9053 5.17676C57.9695 5.17676 58.0753 5.17918 58.2207 5.18457C57.9137 5.65099 57.6792 6.28979 57.5176 7.10059L57.3818 7.78516C57.225 8.54734 57.1475 9.43834 57.1475 10.458C57.1475 11.634 57.4219 12.222 57.9717 12.2217C58.554 12.2217 59.3506 11.7375 60.3623 10.7686C60.7711 10.3768 61.1751 9.9401 61.5781 9.46191C61.7674 8.67393 62.165 7.96459 62.7705 7.33398C63.6516 6.41643 64.6927 5.95761 65.8916 5.95703C66.0877 5.95865 66.2836 5.98245 66.4736 6.0293C66.3385 5.7877 66.2705 5.58398 66.2705 5.41797C66.2739 5.14776 66.3671 4.886 66.5361 4.6748C67.8522 4.78193 68.9472 5.45291 69.8203 6.6875C70.7149 7.29385 71.6472 7.59758 72.6182 7.59766C73.0767 7.59766 73.5618 7.48378 74.0742 7.25977L75.1768 1.73926C74.9948 1.76868 74.8106 1.78469 74.626 1.78711C73.3864 1.78711 72.7667 1.27182 72.7666 0.241211V0.0556641C73.4361 0.426582 74.1912 0.615696 74.958 0.603516C75.7716 0.603516 76.4841 0.402509 77.0928 0L75.2168 9.68555ZM66.6289 6.75684C65.7133 6.75692 64.9011 7.16706 64.1924 7.98828C63.4836 8.80951 63.1296 9.74609 63.1289 10.7979C63.1289 11.5596 63.3428 12.1861 63.7715 12.6768C64.2003 13.1676 64.7519 13.4132 65.4248 13.4141C66.3364 13.414 67.12 12.9564 67.7773 12.041C68.4346 11.1258 68.7642 10.0354 68.7656 8.76953C68.7649 8.33349 68.6943 7.89981 68.5557 7.48633C68.1059 7.3522 67.6853 7.13445 67.3174 6.84473C67.0916 6.79272 66.8608 6.76357 66.6289 6.75684ZM53.1016 6.16016C52.2873 6.16021 51.5824 6.65262 50.9873 7.6377C50.3929 8.62279 50.0963 9.79154 50.0977 11.1436C50.0977 12.2282 50.4539 12.7709 51.166 12.7705C51.9384 12.7705 53.4146 11.0845 55.5957 7.71387C55.6262 7.67124 55.7338 7.52214 55.9277 7.26367C54.7943 6.52807 53.8516 6.16016 53.1016 6.16016ZM84.0371 6.16016C83.2229 6.16016 82.519 6.65268 81.9238 7.6377C81.3294 8.6228 81.0316 9.79151 81.0322 11.1436C81.0322 12.2283 81.3887 12.7709 82.1016 12.7705C82.8739 12.7703 84.3503 11.0843 86.5312 7.71387C86.5585 7.67108 86.6693 7.52187 86.8623 7.26367C85.7289 6.52812 84.7871 6.16019 84.0371 6.16016ZM14.5479 5.96289C13.8134 5.96292 13.137 6.35412 12.5176 7.13574C11.8983 7.91728 11.5109 8.86537 11.3574 9.98047H11.3613C12.488 9.92099 13.4546 9.5996 14.2607 9.0166C15.0665 8.43366 15.4696 7.7586 15.4697 6.99121C15.4697 6.30631 15.1619 5.96329 14.5479 5.96289Z" fill="var(--fill-0, #1F2026)"/>
</svg>
