<svg preserveAspectRatio="none" width="100%" height="100%" overflow="visible" style="display: block;" viewBox="0 0 180 24.0006" fill="none" xmlns="http://www.w3.org/2000/svg">
<path id="Union" d="M18.7232 9.29996e-05C29.2169 0.00553923 31.0022 0.17845 33.7213 1.45126C35.5974 2.3296 37.8734 4.6439 38.9107 6.72763C39.7089 8.33134 39.767 8.6677 39.7711 11.7413C39.7754 14.8338 39.7213 15.1507 38.8853 16.9112C37.1227 20.6248 33.5698 23.1567 29.1822 23.8263C23.8528 24.6393 15.1575 22.5341 9.44588 19.0479C7.71701 17.9929 6.26521 16.7479 6.26521 16.3214C6.26877 16.1743 7.97716 16.0198 10.0767 15.9757C12.8964 15.9167 13.8878 15.8019 13.8883 15.5362C13.8883 15.3388 12.3683 14.3452 10.5113 13.3282C4.63437 10.1102 -0.278517 6.51505 0.0122822 5.6456C0.100276 5.38413 2.07059 5.27682 7.79939 5.21982C13.6514 5.16138 15.4686 5.05873 15.4654 4.78916C15.4608 4.59387 14.2003 3.82805 12.6617 3.08701C9.49134 1.55979 8.39214 0.795505 8.68611 0.321382C8.83123 0.0882306 11.6818 -0.00334447 18.7232 9.29996e-05ZM52.0553 4.00986C53.9156 3.62155 58.2017 3.96638 60.3414 4.67587L62.2115 5.29599L62.2984 7.12216C62.3775 8.78773 62.3388 8.92979 61.8668 8.73056C57.6911 6.96929 50.8492 6.97683 50.8492 8.74326C50.8494 9.53896 52.1751 9.95773 55.7398 10.2892C61.6488 10.8386 63.5135 12.1771 63.1178 15.5821C62.976 16.8005 62.7626 17.2146 61.8228 18.0938C61.1365 18.7361 60.1018 19.324 59.1724 19.5987C56.2557 20.4614 51.2678 19.9986 48.5396 18.6124L47.398 18.0323V14.3097L48.8306 15.0333C52.9544 17.1145 59.4787 17.1311 59.4791 15.0606C59.4791 14.6642 59.2519 14.2231 58.9752 14.0802C58.6981 13.9372 56.7893 13.6651 54.733 13.4767C48.9405 12.9461 47.2545 11.9085 47.2545 8.87412C47.2545 7.62506 47.407 6.99398 47.8551 6.39072C48.6032 5.38347 50.4264 4.3499 52.0553 4.00986ZM150.082 4.10849C152.872 3.5095 156.205 3.79418 159.124 4.88193L160.728 5.47959V7.21201C160.728 8.7322 160.666 8.92359 160.224 8.78037C156.919 7.70986 155.475 7.44443 152.96 7.44443C150.132 7.44446 148.935 7.83086 148.935 8.74326C148.935 9.52603 150.257 9.95555 153.68 10.2852C157.983 10.6998 159.142 11.0402 160.347 12.2413C161.22 13.111 161.303 13.343 161.303 14.9395C161.303 16.6133 161.252 16.7378 160.079 17.9063C159.228 18.7537 158.377 19.2674 157.294 19.588C154.342 20.4608 149.367 20.0058 146.625 18.6124L145.483 18.0323V14.3097L146.916 15.0333C151.059 17.1243 157.564 17.1305 157.564 15.044C157.564 14.0537 156.957 13.8462 152.962 13.4649C147.801 12.9722 146.427 12.4027 145.592 10.4132C145.05 9.1198 145.094 8.19212 145.761 6.88876C146.453 5.53916 147.973 4.56084 150.082 4.10849ZM142.894 8.81162C142.894 14.2781 142.542 15.786 140.835 17.631C139.175 19.4236 137.133 20.1402 134.118 19.9884C130.422 19.8022 128.032 18.1909 126.884 15.1124C126.565 14.2556 126.385 12.4563 126.283 9.09189L126.137 4.29306H130.238V8.90537C130.238 14.3025 130.484 15.1402 132.341 16.0841C133.795 16.8226 136.197 16.7082 137.369 15.8448C138.786 14.8003 138.99 13.9866 139.078 9.01962L139.159 4.43564L141.027 4.35166L142.894 4.26669V8.81162ZM31.4488 4.56943C29.9403 3.92261 28.0154 3.71293 26.4429 4.02451C22.6407 4.77851 20.072 7.99177 20.0719 11.9952C20.0719 18.8283 28.2824 22.5121 33.4381 17.9923C37.8647 14.1113 36.7902 6.86099 31.4488 4.56943ZM89.5523 4.29306L91.4859 10.2374C92.5499 13.5067 93.4205 16.3433 93.4205 16.5401C93.42 17.3699 93.9988 16.8044 94.2994 15.6808C94.4783 15.011 95.1865 12.7228 95.8736 10.5958C96.5606 8.4692 97.2807 6.18124 97.4742 5.51084L97.8258 4.29306H104.35V19.4044C104.35 19.5224 103.542 19.6192 102.553 19.6192H100.755L100.611 13.544L100.467 7.46787L98.4693 13.6251L96.4713 19.7813L90.6939 19.6192L90.1724 18.044C89.8862 17.1774 88.9531 14.3411 88.0982 11.7413L86.5435 7.01474L86.5299 13.3888L86.5172 19.7628H82.7779V4.29306H89.5523ZM79.901 4.29306V7.44443H69.2584V10.3087H79.9312L79.7574 13.3165L74.5084 13.3956L69.2584 13.4727V16.3253H79.901V19.7628H65.5191V4.29306H79.901ZM114.139 4.29306C121.08 4.29306 121.689 4.40533 123.152 5.95517C124.142 7.00422 124.593 8.9882 124.217 10.6515C123.926 11.9446 122.804 13.267 121.372 14.005L120.415 14.4972L122.428 16.9063C123.535 18.2313 124.379 19.4163 124.302 19.5392C124.226 19.6623 123.274 19.7628 122.187 19.7628H120.211L118.149 17.256L116.088 14.7491L113.814 14.6065L111.541 14.463V17.1124L111.542 19.7628H107.802V4.29306H114.139ZM167.343 4.29306V10.0226H176.548V4.29306H180V19.7628H176.548V13.7472H167.343V19.7628H163.604V4.29306H167.343ZM27.3814 6.44052C27.6296 5.45682 28.9834 5.4836 31.0211 6.51279C33.0179 7.5212 34.1937 9.14088 34.3873 11.1485L34.5269 12.6007H33.3316C32.1054 12.6007 32.0636 12.56 31.7291 11.0509C31.4637 9.85556 29.8755 8.38741 28.5865 8.14658C27.3954 7.92398 27.1096 7.5194 27.3814 6.44052ZM111.542 11.1681H115.569C119.211 11.1681 119.65 11.114 120.17 10.5958C120.893 9.87616 120.902 9.13151 120.197 8.26376C119.674 7.62006 119.452 7.58304 115.594 7.49423L111.542 7.40048V11.1681Z" fill="var(--fill-0, #1F2026)"/>
</svg>
