<svg width="165.698" height="32" preserveAspectRatio="xMidYMid meet" overflow="visible" style="display: block;" viewBox="0 0 165.698 32" fill="none" xmlns="http://www.w3.org/2000/svg">
<path id="Union" d="M58.9561 7.05078C60.3507 7.05078 61.6141 7.40088 62.7461 8.10059C63.8778 8.80023 64.7673 9.7993 65.4141 11.0986C66.0811 12.398 66.415 13.9076 66.415 15.627C66.415 17.3462 66.0811 18.8661 65.4141 20.1855C64.7673 21.4849 63.8779 22.4941 62.7461 23.2139C61.6141 23.9136 60.3507 24.2637 58.9561 24.2637C57.7838 24.2636 56.7426 24.0238 55.833 23.5439C54.9438 23.0641 54.2465 22.4442 53.7412 21.6846V32H48.5566V7.29102H53.7412V9.65918C54.2464 8.87969 54.944 8.25028 55.833 7.77051C56.7223 7.29081 57.7636 7.05081 58.9561 7.05078ZM20.4893 7.05078C22.1265 7.05078 23.582 7.39061 24.8555 8.07031C26.1288 8.75013 27.1187 9.71999 27.8262 10.9795C28.5537 12.239 28.918 13.7084 28.918 15.3877C28.918 15.8674 28.8878 16.3671 28.8271 16.8867H17.0938C17.1747 17.9262 17.5076 18.7263 18.0938 19.2861C18.7001 19.8259 19.4384 20.0957 20.3076 20.0957C21.601 20.0956 22.5005 19.5559 23.0059 18.4766H28.5234C28.2405 19.5759 27.7252 20.5658 26.9775 21.4453C26.2499 22.3247 25.3302 23.0139 24.2188 23.5137C23.1071 24.0134 21.8638 24.2637 20.4893 24.2637C18.8319 24.2637 17.3561 23.9136 16.0625 23.2139C14.7691 22.5141 13.7589 21.5149 13.0312 20.2158C12.3035 18.9163 11.9395 17.3965 11.9395 15.6572C11.9395 13.9181 12.2936 12.399 13.001 11.0996C13.7285 9.80015 14.7387 8.80028 16.0322 8.10059C17.3259 7.40089 18.8116 7.05079 20.4893 7.05078ZM38.1699 7.05078C40.2922 7.05078 41.9601 7.57079 43.1729 8.61035C44.4057 9.6498 45.1129 11.0289 45.2949 12.748H40.5049C40.424 12.1685 40.1612 11.7089 39.7168 11.3691C39.2924 11.0293 38.726 10.8594 38.0186 10.8594C37.4123 10.8594 36.9474 10.979 36.624 11.2188C36.3007 11.4387 36.1387 11.7487 36.1387 12.1484C36.1387 12.6282 36.3914 12.9887 36.8965 13.2285C37.4219 13.4685 38.2309 13.7084 39.3223 13.9482C40.5754 14.2681 41.5965 14.5874 42.3848 14.9072C43.173 15.2071 43.8601 15.7075 44.4463 16.4072C45.0526 17.0869 45.3655 18.0065 45.3857 19.166C45.3857 20.1455 45.1031 21.025 44.5371 21.8047C43.9914 22.5644 43.1927 23.1646 42.1416 23.6045C41.111 24.0442 39.9083 24.2637 38.5342 24.2637C37.0587 24.2637 35.7449 24.0134 34.5928 23.5137C33.4407 23.0138 32.5313 22.3343 31.8643 21.4746C31.1973 20.5951 30.8231 19.6157 30.7422 18.5361H35.8662C35.9268 19.1159 36.1996 19.5855 36.6846 19.9453C37.1697 20.3052 37.7662 20.4854 38.4736 20.4854C39.1204 20.4853 39.6154 20.365 39.959 20.125C40.3227 19.8651 40.5049 19.5356 40.5049 19.1357C40.5048 18.656 40.2523 18.3058 39.7471 18.0859C39.2417 17.8461 38.4229 17.5865 37.291 17.3066C36.0782 17.0268 35.0673 16.7364 34.2588 16.4365C33.4505 16.1167 32.7531 15.6273 32.167 14.9678C31.5809 14.288 31.2881 13.3777 31.2881 12.2383C31.2882 11.2788 31.5508 10.4094 32.0762 9.62988C32.6219 8.83019 33.4105 8.20008 34.4414 7.74023C35.4922 7.28055 36.7351 7.05082 38.1699 7.05078ZM76.8984 7.05078C78.5558 7.05081 80.0517 7.40091 81.3857 8.10059C82.7196 8.80028 83.771 9.80961 84.5391 11.1289C85.307 12.4284 85.6904 13.938 85.6904 15.6572C85.6904 17.3762 85.2968 18.8955 84.5088 20.2148C83.7407 21.5141 82.6793 22.5141 81.3252 23.2139C79.9912 23.9135 78.4952 24.2636 76.8379 24.2637C75.1805 24.2637 73.6846 23.9135 72.3506 23.2139C71.0368 22.514 69.9956 21.5143 69.2275 20.2148C68.4798 18.9154 68.1055 17.3963 68.1055 15.6572C68.1055 13.938 68.4898 12.4284 69.2578 11.1289C70.0258 9.80952 71.0771 8.80029 72.4111 8.10059C73.7452 7.40088 75.241 7.05078 76.8984 7.05078ZM155.299 7.05078C156.491 7.05078 157.532 7.29081 158.421 7.77051C159.33 8.25031 160.029 8.87957 160.514 9.65918V7.29102H165.698V24.0234H160.514V21.6543C160.009 22.434 159.301 23.0641 158.392 23.5439C157.503 24.0237 156.461 24.2636 155.269 24.2637C153.894 24.2637 152.641 23.9136 151.509 23.2139C150.378 22.4941 149.478 21.485 148.811 20.1855C148.164 18.8661 147.841 17.3462 147.841 15.627C147.841 13.9076 148.164 12.398 148.811 11.0986C149.478 9.79924 150.378 8.80024 151.509 8.10059C152.641 7.40093 153.904 7.05083 155.299 7.05078ZM114.876 7.28906H118.271V11.5479H114.876V18.2646C114.876 18.7644 114.997 19.1247 115.239 19.3447C115.483 19.5644 115.887 19.6738 116.453 19.6738H118.302V24.0225H115.664C113.784 24.0224 112.319 23.5725 111.268 22.6729C110.217 21.7532 109.691 20.264 109.691 18.2051V11.5479H107.629V7.28906H109.691V3.21094H114.876V7.28906ZM135.314 14.0967L140.438 7.29004H146.835L139.802 15.6865L146.896 24.0225H140.468L135.314 17.0059V24.0225H130.13V1.83203H135.314V14.0967ZM126.373 24.0205H121.188V7.28711H126.373V24.0205ZM10.4902 12.5332H9.06543C7.77182 12.5332 6.8011 12.8133 6.1543 13.373C5.50773 13.9129 5.18457 14.8727 5.18457 16.252V24.0186H0V7.28516H5.18457V10.0742C5.79088 9.15476 6.54859 8.43486 7.45801 7.91504C8.36754 7.37535 9.3786 7.1055 10.4902 7.10547V12.5332ZM98.748 7.10547C100.729 7.10547 102.306 7.74488 103.479 9.02441C104.671 10.2838 105.267 12.0233 105.267 14.2422V24.0186H100.112V14.9316C100.112 13.8123 99.8195 12.9429 99.2334 12.3232C98.6473 11.7034 97.8586 11.3936 96.8682 11.3936C95.8779 11.3936 95.09 11.7035 94.5039 12.3232C93.9177 12.9429 93.6241 13.8123 93.624 14.9316V24.0186H88.4395V7.28516H93.624V9.50391C94.1496 8.76427 94.8577 8.18447 95.7471 7.76465C96.6362 7.32496 97.6366 7.1055 98.748 7.10547ZM76.8984 11.4893C75.8878 11.4893 75.0489 11.8487 74.3818 12.5684C73.7148 13.2681 73.3809 14.2978 73.3809 15.6572C73.3809 16.9967 73.7048 18.0264 74.3516 18.7461C75.0185 19.4656 75.8476 19.8252 76.8379 19.8252C77.8282 19.8251 78.6673 19.4657 79.3545 18.7461C80.0618 18.0264 80.415 16.9967 80.415 15.6572C80.415 14.3179 80.0719 13.2881 79.3848 12.5684C78.7178 11.8487 77.8888 11.4893 76.8984 11.4893ZM57.4102 11.5186C56.3794 11.5186 55.5001 11.8884 54.7725 12.6279C54.065 13.3676 53.7109 14.3778 53.7109 15.6572C53.711 16.9367 54.065 17.9459 54.7725 18.6855C55.5002 19.4252 56.3793 19.7949 57.4102 19.7949C58.4409 19.7949 59.3203 19.4252 60.0479 18.6855C60.7754 17.9259 61.1396 16.9063 61.1396 15.627C61.1396 14.3475 60.7755 13.3476 60.0479 12.6279C59.3405 11.8884 58.461 11.5186 57.4102 11.5186ZM156.814 11.5186C155.784 11.5186 154.905 11.8883 154.177 12.6279C153.469 13.3476 153.115 14.3475 153.115 15.627C153.115 16.9062 153.47 17.9259 154.177 18.6855C154.905 19.4252 155.784 19.7949 156.814 19.7949C157.845 19.7949 158.715 19.4252 159.422 18.6855C160.15 17.9459 160.514 16.9367 160.514 15.6572C160.514 14.3778 160.15 13.3676 159.422 12.6279C158.715 11.8885 157.845 11.5186 156.814 11.5186ZM20.4287 11.1592C19.5597 11.1592 18.8223 11.4094 18.2158 11.9092C17.6297 12.409 17.2655 13.1184 17.124 14.0381H23.6123C23.6123 13.1584 23.3085 12.4583 22.7021 11.9385C22.0959 11.419 21.3381 11.1592 20.4287 11.1592ZM123.796 0C124.685 7.91157e-06 125.413 0.269829 125.979 0.80957C126.565 1.32936 126.858 1.98938 126.858 2.78906C126.858 3.56858 126.565 4.22794 125.979 4.76758C125.413 5.28741 124.685 5.54784 123.796 5.54785C122.886 5.54785 122.138 5.28741 121.553 4.76758C120.986 4.22793 120.703 3.5686 120.703 2.78906C120.703 1.98938 120.986 1.32936 121.553 0.80957C122.138 0.269856 122.886 0 123.796 0Z" fill="#FFFFFF"/>
</svg>
