<svg preserveAspectRatio="none" width="100%" height="100%" overflow="visible" style="display: block;" viewBox="0 0 267.088 16" fill="none" xmlns="http://www.w3.org/2000/svg">
<path id="Union" d="M6.20312 0.0214844C7.25479 0.0285952 8.1933 0.209864 9.01758 0.56543C9.8417 0.913879 10.5308 1.42245 11.085 2.09082C11.6391 2.75924 12.0304 3.56602 12.2578 4.51172L9.49707 4.99219C9.38339 4.45179 9.16275 3.99309 8.83594 3.61621C8.51624 3.23228 8.12217 2.94032 7.65332 2.74121C7.19157 2.54215 6.69754 2.43517 6.17188 2.4209C5.66025 2.41379 5.18373 2.49269 4.74316 2.65625C4.30976 2.8127 3.9575 3.04022 3.6875 3.33887C3.42485 3.63743 3.29396 3.98577 3.29395 4.38379C3.29395 4.76062 3.40746 5.06976 3.63477 5.31152C3.86211 5.54615 4.14268 5.73474 4.47656 5.87695C4.81764 6.01207 5.16256 6.1263 5.51074 6.21875L8.26074 6.98633C8.63732 7.08588 9.06036 7.22095 9.5293 7.3916C9.99821 7.56227 10.4494 7.80071 10.8828 8.10645C11.3161 8.41213 11.6712 8.81397 11.9482 9.31152C12.2325 9.80931 12.375 10.4429 12.375 11.2109C12.375 12.0073 12.208 12.7081 11.874 13.3125C11.5472 13.9097 11.1032 14.4075 10.542 14.8057C9.98066 15.2039 9.33706 15.5021 8.6123 15.7012C7.89461 15.9003 7.14129 16 6.35254 16C5.22985 16 4.21687 15.8042 3.31445 15.4131C2.41942 15.022 1.6802 14.4644 1.09766 13.7393C0.522083 13.0068 0.156328 12.1384 0 11.1357L2.66504 10.7305C2.8924 11.6406 3.35723 12.345 4.06055 12.8428C4.77113 13.3406 5.58894 13.5898 6.5127 13.5898C7.05969 13.5898 7.57454 13.5036 8.05762 13.333C8.54077 13.1624 8.93203 12.914 9.23047 12.5869C9.53592 12.2599 9.68838 11.8581 9.68848 11.3818C9.68848 11.1685 9.65306 10.9727 9.58203 10.7949C9.51097 10.61 9.40481 10.4459 9.2627 10.3037C9.12769 10.1615 8.94975 10.0337 8.72949 9.91992C8.51633 9.79905 8.2676 9.69568 7.9834 9.61035L4.01855 8.4375C3.67759 8.33797 3.30794 8.20645 2.91016 8.04297C2.51947 7.87236 2.1462 7.64103 1.79102 7.34961C1.44291 7.051 1.1551 6.67374 0.927734 6.21875C0.707453 5.75652 0.59668 5.18729 0.59668 4.51172C0.596706 3.52334 0.845411 2.69479 1.34277 2.02637C1.84729 1.35079 2.52257 0.845949 3.36816 0.511719C4.22079 0.17752 5.16578 0.014403 6.20312 0.0214844ZM20.7471 0C22.2819 2.24668e-05 23.5962 0.338133 24.6904 1.01367C25.7917 1.68207 26.6341 2.61671 27.2168 3.81836C27.8066 5.02012 28.1015 6.41427 28.1016 8C28.1016 9.58581 27.8066 10.9798 27.2168 12.1816C26.6341 13.3834 25.7918 14.3225 24.6904 14.998C23.5962 15.6664 22.2817 16 20.7471 16C19.2122 16 17.897 15.6665 16.8027 14.998C15.7086 14.3225 14.8671 13.3833 14.2773 12.1816C13.6947 10.9798 13.4033 9.58582 13.4033 8C13.4033 6.41427 13.6947 5.02012 14.2773 3.81836C14.867 2.61693 15.7088 1.68203 16.8027 1.01367C17.897 0.338099 19.2122 0 20.7471 0ZM36.2891 0C38.0581 5.58213e-05 39.5325 0.444303 40.7119 1.33301C41.8915 2.21481 42.7192 3.40674 43.1953 4.90723L40.6055 5.62109C40.307 4.61858 39.7987 3.83614 39.0811 3.27441C38.3635 2.70574 37.4328 2.42193 36.2891 2.42188C35.2587 2.42188 34.3983 2.653 33.709 3.11523C33.0272 3.57737 32.5122 4.22767 32.1641 5.06641C31.823 5.89838 31.6487 6.8765 31.6416 8C31.6416 9.12359 31.8122 10.1052 32.1533 10.9443C32.5015 11.7762 33.0198 12.4235 33.709 12.8857C34.3983 13.348 35.2587 13.5791 36.2891 13.5791C37.4329 13.579 38.3635 13.2944 39.0811 12.7256C39.7987 12.1567 40.307 11.3745 40.6055 10.3789L43.1953 11.0938C42.7192 12.5941 41.8914 13.7889 40.7119 14.6777C39.5324 15.5594 38.0582 15.9999 36.2891 16C34.7542 16 33.439 15.6665 32.3447 14.998C31.2505 14.3225 30.4091 13.3833 29.8193 12.1816C29.2367 10.9798 28.9453 9.58582 28.9453 8C28.9453 6.41427 29.2367 5.02012 29.8193 3.81836C30.409 2.61692 31.2507 1.68203 32.3447 1.01367C33.439 0.338099 34.7542 0 36.2891 0ZM103.833 0.0214844C104.885 0.0286285 105.822 0.209899 106.646 0.56543C107.471 0.913883 108.161 1.42236 108.715 2.09082C109.269 2.75916 109.659 3.56619 109.887 4.51172L107.126 4.99219C107.012 4.45192 106.792 3.99303 106.466 3.61621C106.146 3.2322 105.751 2.94033 105.282 2.74121C104.82 2.54211 104.327 2.43513 103.801 2.4209C103.289 2.41379 102.813 2.49269 102.372 2.65625C101.939 2.81269 101.587 3.0403 101.317 3.33887C101.055 3.63749 100.923 3.98565 100.923 4.38379C100.923 4.76051 101.036 5.06979 101.264 5.31152C101.491 5.5462 101.772 5.73473 102.106 5.87695C102.447 6.01199 102.792 6.12634 103.14 6.21875L105.89 6.98633C106.266 7.08588 106.689 7.22095 107.158 7.3916C107.627 7.56225 108.078 7.80073 108.512 8.10645C108.945 8.41219 109.301 8.81383 109.578 9.31152C109.862 9.80931 110.004 10.4429 110.004 11.2109C110.004 12.0073 109.837 12.7081 109.503 13.3125C109.176 13.9097 108.732 14.4075 108.171 14.8057C107.61 15.2039 106.966 15.5021 106.241 15.7012C105.524 15.9002 104.77 16 103.981 16C102.859 15.9999 101.847 15.8042 100.944 15.4131C100.049 15.0221 99.3102 14.4644 98.7275 13.7393C98.152 13.0068 97.7852 12.1384 97.6289 11.1357L100.294 10.7305C100.521 11.6407 100.987 12.345 101.69 12.8428C102.401 13.3405 103.218 13.5898 104.142 13.5898C104.689 13.5898 105.204 13.5037 105.688 13.333C106.17 13.1624 106.561 12.9138 106.859 12.5869C107.165 12.2599 107.318 11.8581 107.318 11.3818C107.318 11.1686 107.283 10.9726 107.212 10.7949C107.141 10.61 107.034 10.4459 106.892 10.3037C106.757 10.1616 106.579 10.0336 106.358 9.91992C106.145 9.79912 105.896 9.69564 105.612 9.61035L101.647 8.4375C101.306 8.33795 100.937 8.2065 100.539 8.04297C100.148 7.87232 99.7752 7.64112 99.4199 7.34961C99.0718 7.05097 98.784 6.67381 98.5566 6.21875C98.3364 5.75652 98.2266 5.18729 98.2266 4.51172C98.2266 3.52332 98.4753 2.69479 98.9727 2.02637C99.4771 1.351 100.152 0.845911 100.997 0.511719C101.85 0.177487 102.796 0.0143727 103.833 0.0214844ZM118.376 0C120.145 0 121.62 0.44412 122.8 1.33301C123.979 2.21481 124.807 3.40674 125.283 4.90723L122.693 5.62109C122.395 4.61853 121.887 3.83616 121.169 3.27441C120.451 2.70556 119.52 2.42188 118.376 2.42188C117.346 2.42191 116.486 2.65304 115.797 3.11523C115.115 3.57742 114.599 4.22746 114.251 5.06641C113.91 5.89838 113.736 6.8765 113.729 8C113.729 9.12354 113.899 10.1052 114.24 10.9443C114.588 11.7764 115.108 12.4235 115.797 12.8857C116.486 13.3479 117.346 13.5791 118.376 13.5791C119.52 13.5791 120.451 13.2945 121.169 12.7256C121.887 12.1567 122.395 11.3744 122.693 10.3789L125.283 11.0938C124.807 12.5941 123.979 13.7888 122.8 14.6777C121.62 15.5595 120.145 16 118.376 16C116.841 16 115.527 15.6664 114.433 14.998C113.338 14.3225 112.496 13.3834 111.906 12.1816C111.324 10.9798 111.032 9.5858 111.032 8C111.032 6.41427 111.324 5.02012 111.906 3.81836C112.496 2.6167 113.338 1.68208 114.433 1.01367C115.527 0.338135 116.841 3.53183e-05 118.376 0ZM133.692 0C135.227 5.8621e-05 136.542 0.338158 137.636 1.01367C138.737 1.68209 139.579 2.61671 140.162 3.81836C140.752 5.02012 141.047 6.41427 141.047 8C141.047 9.58577 140.752 10.9799 140.162 12.1816C139.579 13.3834 138.737 14.3225 137.636 14.998C136.542 15.6664 135.227 15.9999 133.692 16C132.158 16 130.842 15.6665 129.748 14.998C128.654 14.3225 127.811 13.3834 127.222 12.1816C126.639 10.9799 126.348 9.58574 126.348 8C126.348 6.41427 126.639 5.02012 127.222 3.81836C127.811 2.61673 128.654 1.68209 129.748 1.01367C130.842 0.338099 132.158 0 133.692 0ZM202.643 0C204.533 0 206.028 0.440593 207.13 1.32227C208.238 2.19696 208.988 3.42785 209.379 5.01367L206.757 5.42969C206.465 4.51944 205.989 3.79436 205.328 3.25391C204.667 2.7064 203.826 2.43169 202.803 2.43164C201.772 2.41742 200.916 2.64226 200.233 3.10449C199.552 3.56662 199.037 4.21694 198.688 5.05566C198.347 5.89475 198.177 6.8765 198.177 8C198.177 9.12359 198.347 10.1016 198.688 10.9336C199.03 11.7583 199.541 12.4021 200.223 12.8643C200.912 13.3265 201.772 13.5649 202.803 13.5791C203.577 13.5862 204.255 13.4474 204.838 13.1631C205.421 12.8715 205.897 12.4337 206.267 11.8506C206.636 11.2604 206.885 10.5242 207.013 9.64258H204.306V7.62695H209.741C209.755 7.74068 209.766 7.90766 209.773 8.12793C209.781 8.34765 209.784 8.47934 209.784 8.52246C209.784 9.97295 209.496 11.264 208.921 12.3945C208.352 13.5181 207.535 14.4 206.469 15.04C205.403 15.68 204.128 16 202.643 16C201.648 16 200.713 15.826 199.839 15.4775C198.972 15.122 198.209 14.6025 197.548 13.9199C196.894 13.2373 196.382 12.4023 196.013 11.4141C195.643 10.4185 195.459 9.28003 195.459 8C195.459 6.32182 195.771 4.88871 196.396 3.70117C197.022 2.50668 197.878 1.59283 198.965 0.959961C200.052 0.319946 201.278 1.4581e-06 202.643 0ZM231.64 0C233.174 2.12001e-05 234.489 0.338132 235.583 1.01367C236.684 1.68207 237.527 2.61671 238.109 3.81836C238.699 5.02012 238.994 6.41427 238.994 8C238.994 9.58581 238.699 10.9798 238.109 12.1816C237.527 13.3834 236.684 14.3225 235.583 14.998C234.489 15.6664 233.174 16 231.64 16C230.105 16 228.79 15.6665 227.695 14.998C226.601 14.3225 225.76 13.3833 225.17 12.1816C224.587 10.9798 224.296 9.58582 224.296 8C224.296 6.41427 224.587 5.02012 225.17 3.81836C225.76 2.61693 226.601 1.68203 227.695 1.01367C228.79 0.338099 230.105 0 231.64 0ZM253.047 9.97363C253.047 11.1896 252.784 12.2492 252.258 13.1523C251.739 14.0554 251.015 14.7561 250.084 15.2539C249.16 15.7517 248.086 16 246.864 16C245.642 16 244.566 15.7517 243.635 15.2539C242.711 14.7562 241.987 14.0554 241.461 13.1523C240.942 12.2492 240.683 11.1896 240.683 9.97363V0.34082L243.283 0.320312V9.90918C243.283 10.4852 243.379 11.0009 243.571 11.4561C243.77 11.9112 244.036 12.2991 244.37 12.6191C244.704 12.932 245.088 13.1704 245.521 13.334C245.955 13.4975 246.403 13.5791 246.864 13.5791C247.34 13.5791 247.792 13.4974 248.218 13.334C248.651 13.1633 249.035 12.9212 249.369 12.6084C249.703 12.2884 249.966 11.9004 250.158 11.4453C250.35 10.9903 250.446 10.478 250.446 9.90918V0.320312H253.047V9.97363ZM47.8896 15.6807H45.3213V0.320312H47.8896V15.6807ZM63.0322 15.6807H60.3896L59.3291 12.3525H53.2832L52.2354 15.6807H49.5918L54.4307 0.320312H58.1934L63.0322 15.6807ZM67.3164 13.2695H74.0957V15.6807H64.748V0.320312H67.3164V13.2695ZM83.9043 0.331055C84.288 0.338168 84.6574 0.362611 85.0127 0.405273C86.2278 0.561721 87.2543 0.995903 88.0928 1.70703C88.9383 2.41103 89.5783 3.31017 90.0117 4.40527C90.4452 5.50037 90.6621 6.69869 90.6621 8C90.6621 9.3013 90.4451 10.4996 90.0117 11.5947C89.5783 12.6899 88.9384 13.5936 88.0928 14.3047C87.2544 15.0085 86.2276 15.4383 85.0127 15.5947C84.6646 15.6374 84.2987 15.6628 83.915 15.6699C83.5313 15.677 83.2754 15.6807 83.1475 15.6807H78.2549V0.320312H83.1475C83.2754 0.320313 83.5277 0.323943 83.9043 0.331055ZM95.5342 15.6807H92.9658V0.320312H95.5342V15.6807ZM147.403 13.1846L151.507 0.320312H154.15L149.311 15.6807H145.548L140.709 0.320312H143.353L147.403 13.1846ZM165.238 2.73047H157.895V6.51758H163.96V8.92773H157.895V13.2695H165.238V15.6807H155.326V0.320312H165.238V2.73047ZM173.704 0.320312C173.853 0.320312 174.046 0.326598 174.28 0.34082C174.514 0.347942 174.731 0.369772 174.93 0.405273C175.818 0.540388 176.55 0.835893 177.126 1.29102C177.708 1.74604 178.138 2.3219 178.415 3.01855C178.699 3.70822 178.842 4.47621 178.842 5.32227C178.842 6.57372 178.526 7.65161 177.894 8.55469C177.486 9.13162 176.938 9.56547 176.251 9.85938L179.087 15.6807H176.177L173.579 10.3145H169.931V15.6807H167.362V0.320312H173.704ZM185.748 6.44238L189.266 0.320312H192.261L187.048 9.38672V15.6807H184.447V9.38672L179.225 0.320312H182.22L185.748 6.44238ZM217.847 0.320312C217.996 0.320316 218.188 0.326613 218.422 0.34082C218.656 0.347931 218.873 0.369726 219.072 0.405273C219.96 0.540379 220.692 0.835943 221.268 1.29102C221.85 1.7461 222.28 2.32172 222.558 3.01855C222.842 3.70822 222.984 4.47621 222.984 5.32227C222.984 6.57385 222.668 7.65155 222.035 8.55469C221.628 9.13154 221.081 9.56548 220.394 9.85938L223.229 15.6807H220.319L217.721 10.3145H214.073V15.6807H211.505V0.320312H217.847ZM261.951 0.320312C262.1 0.320327 262.292 0.326613 262.526 0.34082C262.761 0.347934 262.978 0.369721 263.177 0.405273C264.065 0.540407 264.797 0.835939 265.372 1.29102C265.955 1.74612 266.385 2.32171 266.662 3.01855C266.946 3.70822 267.088 4.47621 267.088 5.32227C267.088 6.1614 266.946 6.93005 266.662 7.62695C266.378 8.31669 265.944 8.88865 265.361 9.34375C264.786 9.79882 264.058 10.0944 263.177 10.2295C262.978 10.2579 262.757 10.2797 262.516 10.2939C262.281 10.3082 262.093 10.3144 261.951 10.3145H258.178V15.6807H255.608V0.320312H261.951ZM20.7471 2.42188C19.7167 2.41476 18.8599 2.64226 18.1777 3.10449C17.4959 3.56662 16.9809 4.21695 16.6328 5.05566C16.2918 5.89475 16.1211 6.8765 16.1211 8C16.1211 9.12359 16.2917 10.1016 16.6328 10.9336C16.9739 11.7585 17.4858 12.402 18.168 12.8643C18.8572 13.3264 19.7169 13.5649 20.7471 13.5791C21.7772 13.5862 22.6333 13.3586 23.3154 12.8965C24.0047 12.4343 24.5202 11.7835 24.8613 10.9443C25.2095 10.1052 25.3838 9.12358 25.3838 8C25.3838 6.8765 25.2095 5.90201 24.8613 5.07715C24.5202 4.24524 24.0046 3.59793 23.3154 3.13574C22.6334 2.67368 21.7772 2.43612 20.7471 2.42188ZM133.692 2.42188C132.662 2.41476 131.805 2.64226 131.123 3.10449C130.441 3.56661 129.926 4.21692 129.578 5.05566C129.237 5.89475 129.066 6.8765 129.066 8C129.066 9.12359 129.237 10.1016 129.578 10.9336C129.919 11.7584 130.43 12.4021 131.112 12.8643C131.802 13.3265 132.662 13.5649 133.692 13.5791C134.723 13.5862 135.579 13.3586 136.261 12.8965C136.95 12.4343 137.466 11.7835 137.807 10.9443C138.155 10.1052 138.328 9.12354 138.328 8C138.328 6.8765 138.155 5.90201 137.807 5.07715C137.466 4.24519 136.95 3.59795 136.261 3.13574C135.579 2.67364 134.722 2.43615 133.692 2.42188ZM231.64 2.42188C230.609 2.41476 229.752 2.64226 229.07 3.10449C228.389 3.56662 227.873 4.21695 227.525 5.05566C227.184 5.89475 227.014 6.8765 227.014 8C227.014 9.12359 227.184 10.1016 227.525 10.9336C227.866 11.7585 228.378 12.402 229.061 12.8643C229.75 13.3264 230.609 13.5649 231.64 13.5791C232.67 13.5862 233.526 13.3586 234.208 12.8965C234.897 12.4343 235.413 11.7835 235.754 10.9443C236.102 10.1052 236.276 9.12358 236.276 8C236.276 6.8765 236.102 5.90201 235.754 5.07715C235.413 4.24524 234.897 3.59793 234.208 3.13574C233.526 2.67367 232.67 2.43612 231.64 2.42188ZM80.8662 13.2588H83.1475C83.3605 13.2588 83.6304 13.2515 83.957 13.2373C84.2908 13.2231 84.5861 13.1913 84.8418 13.1416C85.5666 13.0065 86.1566 12.6829 86.6113 12.1709C87.066 11.659 87.4001 11.0369 87.6133 10.3047C87.8336 9.57222 87.9443 8.80358 87.9443 8C87.9443 7.16803 87.8335 6.38574 87.6133 5.65332C87.393 4.92092 87.0517 4.30538 86.5898 3.80762C86.1351 3.31006 85.5522 2.99348 84.8418 2.8584C84.5861 2.80157 84.2908 2.7698 83.957 2.7627C83.6304 2.74849 83.3605 2.74121 83.1475 2.74121H80.8662V13.2588ZM54.0381 9.95215H58.5645L56.2871 2.80566L54.0381 9.95215ZM169.931 7.91504H173.598C173.74 7.91504 173.9 7.90777 174.077 7.89355C174.255 7.87934 174.418 7.85121 174.567 7.80859C174.994 7.70196 175.328 7.51323 175.569 7.24316C175.818 6.97293 175.992 6.66654 176.092 6.3252C176.198 5.98393 176.252 5.64931 176.252 5.32227C176.252 4.99537 176.198 4.66141 176.092 4.32031C175.992 3.97186 175.818 3.66183 175.569 3.3916C175.328 3.12155 174.994 2.93377 174.567 2.82715C174.418 2.78449 174.255 2.75906 174.077 2.75195C173.9 2.73774 173.74 2.73047 173.598 2.73047H169.931V7.91504ZM214.073 7.91504H217.74C217.882 7.91503 218.042 7.90777 218.22 7.89355C218.397 7.87933 218.561 7.85124 218.71 7.80859C219.136 7.70195 219.47 7.51329 219.712 7.24316C219.961 6.97293 220.135 6.66654 220.234 6.3252C220.341 5.98395 220.394 5.64929 220.394 5.32227C220.394 4.99539 220.341 4.66138 220.234 4.32031C220.135 3.97186 219.961 3.66183 219.712 3.3916C219.47 3.12152 219.136 2.93379 218.71 2.82715C218.561 2.78449 218.397 2.75907 218.22 2.75195C218.042 2.73774 217.882 2.73048 217.74 2.73047H214.073V7.91504ZM258.178 7.91504H261.844C261.986 7.91504 262.147 7.90778 262.324 7.89355C262.502 7.87932 262.665 7.85123 262.814 7.80859C263.241 7.70191 263.575 7.51334 263.816 7.24316C264.065 6.97294 264.238 6.66654 264.338 6.3252C264.444 5.98389 264.498 5.64935 264.498 5.32227C264.498 4.99534 264.444 4.66144 264.338 4.32031C264.238 3.97186 264.065 3.66183 263.816 3.3916C263.575 3.12149 263.241 2.93383 262.814 2.82715C262.665 2.78452 262.502 2.75909 262.324 2.75195C262.147 2.73773 261.986 2.73047 261.844 2.73047H258.178V7.91504Z" fill="var(--fill-0, #2F3037)"/>
</svg>
