<svg width="141" height="32" preserveAspectRatio="xMidYMid meet" overflow="visible" style="display: block;" viewBox="0 0 141 32" fill="none" xmlns="http://www.w3.org/2000/svg">
<path id="Vector" fill-rule="evenodd" clip-rule="evenodd" d="M19.186 0.0763338C18.9513 0.140246 18.4713 0.221079 18.1193 0.255902C17.7673 0.290865 17.4793 0.331143 17.4793 0.345548C17.4793 0.360093 17.3513 0.390861 17.1949 0.414076C17.0384 0.437152 16.7504 0.495748 16.5549 0.544137C16.3593 0.592665 16.1033 0.655178 15.986 0.683288C15.8686 0.711398 15.7567 0.747062 15.7371 0.762445C15.7174 0.777969 15.6375 0.806498 15.5593 0.825658C15.4811 0.844817 15.4011 0.873346 15.3815 0.88887C15.3619 0.904253 15.2289 0.938796 15.086 0.965368C14.9429 0.99208 14.7189 1.06047 14.5882 1.11753C14.4574 1.17445 14.3184 1.22871 14.2793 1.23808C14.2402 1.24745 14.0802 1.32535 13.9237 1.41121C13.7673 1.49708 13.5753 1.58016 13.4971 1.5961C13.4188 1.6119 13.1227 1.74126 12.8391 1.88349C12.5554 2.02586 12.2835 2.10306 12.2347 2.05495C12.1859 2.00698 12.1459 2.04488 12.1459 2.13914C12.1459 2.2334 12.0819 2.27172 12.0037 2.22417C11.9255 2.17662 11.8615 2.20809 11.8615 2.2941C11.8615 2.38011 11.7975 2.41157 11.7193 2.36402C11.6411 2.31647 11.5771 2.33997 11.5771 2.41633C11.5771 2.49254 11.438 2.59841 11.268 2.65142C11.098 2.70442 10.89 2.80497 10.8058 2.87462C10.5775 3.06356 8.57529 4.39187 8.51883 4.39187C8.33465 4.39187 4.60812 8.09821 4.60812 8.28141C4.60812 8.33847 4.43219 8.57594 4.21701 8.80907C4.00197 9.0422 3.73502 9.40232 3.62408 9.60944C3.51315 9.81656 3.36538 9.98592 3.29569 9.98592C3.226 9.98592 3.20623 10.0449 3.2516 10.1172C3.29697 10.1894 3.22074 10.3108 3.08221 10.387C2.94369 10.4632 2.85508 10.5457 2.88538 10.5705C2.91567 10.5951 2.56537 11.3677 2.10713 12.2873C1.64889 13.2068 1.26105 14.0457 1.24526 14.1513C1.22962 14.2568 1.17017 14.4484 1.11328 14.577C1.05639 14.7056 0.98556 14.9353 0.955978 15.0876C0.926396 15.2397 0.845044 15.4204 0.775213 15.4891C0.705239 15.5579 0.679497 15.6944 0.717755 15.7927C0.756155 15.8909 0.721879 16.0111 0.641807 16.0598C0.561594 16.1085 0.529593 16.2343 0.570696 16.3395C0.611656 16.4447 0.575816 16.5728 0.491051 16.6244C0.406144 16.676 0.365895 16.7644 0.401451 16.821C0.437149 16.8777 0.406286 17.1723 0.333183 17.4757C0.0488797 18.655 0.00251511 19.2284 9.7322e-05 21.5936C-0.00260492 24.1087 0.0490219 24.6941 0.399886 26.1351C0.511816 26.5945 0.575389 27.0151 0.541113 27.0695C0.50698 27.1239 0.536847 27.2034 0.60739 27.2464C0.678075 27.2893 0.786164 27.561 0.847604 27.8504C0.979445 28.4709 0.961809 28.413 1.17116 28.9099C1.26233 29.1264 1.33699 29.3573 1.33699 29.423C1.33699 29.4888 1.42745 29.7206 1.53781 29.9384C1.64832 30.1561 1.91328 30.6804 2.12662 31.1035C2.34009 31.5265 2.56153 31.9244 2.61885 31.9878C2.67631 32.0511 2.87258 31.8623 3.05519 31.5682C3.23766 31.2741 3.4382 31.0124 3.50077 30.9867C3.56321 30.9608 3.57814 30.8822 3.53391 30.8119C3.48968 30.7415 3.5214 30.6839 3.60417 30.6839C3.68694 30.6839 3.75478 30.6175 3.75478 30.5362C3.75478 30.3848 5.29762 27.7328 5.4589 27.6072C5.50839 27.5687 5.63014 27.3394 5.72955 27.0974C5.82897 26.8555 6.03576 26.5252 6.18922 26.3632C6.34253 26.2013 6.41763 26.0678 6.3559 26.0667C6.29418 26.0655 6.30769 26.0183 6.38591 25.9618C6.46413 25.9053 6.65613 25.6119 6.81258 25.31C6.96902 25.0079 7.16103 24.691 7.23925 24.6058C7.31747 24.5207 7.56835 24.1068 7.79691 23.6865C8.02532 23.2661 8.24932 22.8907 8.29469 22.8522C8.33991 22.8138 8.53575 22.4835 8.7296 22.118C8.92359 21.7526 9.13537 21.4537 9.20022 21.4537C9.26522 21.4537 9.28214 21.3961 9.23791 21.3258C9.19368 21.2554 9.20591 21.1768 9.26507 21.151C9.32424 21.1252 9.50059 20.857 9.65704 20.555C9.81348 20.253 10.0055 19.9372 10.0837 19.8533C10.1619 19.7694 10.3847 19.4028 10.5785 19.0388C10.7725 18.6749 10.9843 18.377 11.0491 18.377C11.1141 18.377 11.131 18.3194 11.0868 18.249C11.0426 18.1787 11.0548 18.1001 11.114 18.0742C11.1731 18.0485 11.3802 17.7285 11.5741 17.3631C11.7681 16.9976 11.9867 16.6988 12.06 16.6988C12.1333 16.6988 12.155 16.6612 12.1084 16.6153C12.0343 16.5424 12.7753 15.2101 12.995 15.0206C13.0397 14.9821 13.1535 14.7775 13.248 14.5661C13.5059 13.989 13.7491 14.0956 14.2059 14.9856C14.433 15.428 14.7024 15.873 14.8045 15.9745C14.9068 16.0762 14.9904 16.2493 14.9904 16.3591C14.9904 16.469 15.0531 16.5589 15.1299 16.5589C15.2066 16.5589 15.3096 16.7163 15.3586 16.9086C15.4077 17.1009 15.5088 17.2582 15.583 17.2582C15.6574 17.2582 15.6788 17.3211 15.6304 17.398C15.5821 17.475 15.6104 17.5379 15.6931 17.5379C15.7759 17.5379 15.8437 17.6226 15.8437 17.7263C15.8437 17.8299 15.9717 18.0598 16.1282 18.2372C16.2846 18.4145 16.4126 18.6444 16.4126 18.748C16.4126 18.8517 16.4704 18.9364 16.5409 18.9364C16.6115 18.9364 16.7397 19.1095 16.8258 19.321C16.912 19.5325 17.1095 19.8944 17.2648 20.1251C17.4203 20.3559 17.6268 20.702 17.7238 20.8943C17.8208 21.0866 17.9455 21.2767 18.0008 21.3167C18.0562 21.3568 18.1728 21.5456 18.26 21.7362C18.5404 22.3496 18.8739 22.915 19.0681 23.1058C19.172 23.2082 19.2571 23.3817 19.2571 23.4915C19.2571 23.6014 19.3148 23.6914 19.3854 23.6914C19.4559 23.6914 19.5865 23.8645 19.6755 24.0759C19.9189 24.6542 20.278 25.2746 20.4903 25.4833C20.5943 25.5856 20.6793 25.7592 20.6793 25.869C20.6793 25.9789 20.7371 26.0688 20.8076 26.0688C20.8782 26.0688 21.0081 26.242 21.0965 26.4534C21.29 26.9169 21.5489 27.3592 21.8023 27.6596C21.9689 27.857 22.0262 27.8291 22.3159 27.4093C22.4952 27.1495 22.6847 26.8044 22.7369 26.6426C22.7891 26.4808 22.8846 26.3485 22.9491 26.3485C23.0135 26.3485 23.1065 26.1912 23.1556 25.9989C23.2046 25.8066 23.3076 25.6493 23.3843 25.6493C23.4611 25.6493 23.5238 25.5593 23.5238 25.4494C23.5238 25.3396 23.6195 25.1556 23.7365 25.0405C23.8536 24.9254 24.014 24.6849 24.0931 24.506C24.342 23.9432 25.0949 22.6858 25.3093 22.4751C25.4223 22.3639 25.5149 22.1874 25.5149 22.0831C25.5149 21.9787 25.5957 21.8101 25.6944 21.7084C25.7931 21.6069 25.9537 21.3663 26.0514 21.174C26.1491 20.9817 26.3572 20.6356 26.5136 20.4048C26.6702 20.1741 26.837 19.8751 26.8842 19.7406C26.9316 19.606 27.0306 19.4958 27.1044 19.4958C27.1781 19.4958 27.1988 19.4329 27.1505 19.356C27.1021 19.279 27.1304 19.2161 27.2132 19.2161C27.296 19.2161 27.3638 19.1314 27.3638 19.0277C27.3638 18.9241 27.4918 18.6942 27.6483 18.5169C27.8047 18.3395 27.9327 18.1096 27.9327 18.006C27.9327 17.9023 28.0005 17.8176 28.0833 17.8176C28.1661 17.8176 28.1944 17.7547 28.146 17.6777C28.0977 17.6008 28.126 17.5379 28.2088 17.5379C28.2915 17.5379 28.3594 17.448 28.3594 17.338C28.3594 17.2283 28.4433 17.0551 28.5458 16.9535C28.6485 16.8519 28.8837 16.4698 29.0689 16.1044C29.2539 15.739 29.4617 15.4401 29.5307 15.4401C29.5997 15.4401 29.6166 15.3772 29.5683 15.3003C29.5199 15.2234 29.5412 15.1604 29.6156 15.1604C29.6899 15.1604 29.791 15.0031 29.84 14.8108C29.8891 14.6185 29.9921 14.4612 30.0687 14.4612C30.1455 14.4612 30.2097 14.351 30.2114 14.2164C30.214 14.018 30.2673 14.0378 30.4936 14.3213C30.6469 14.5136 30.8141 14.7968 30.8651 14.9506C30.916 15.1045 31.0012 15.2618 31.0543 15.3003C31.2206 15.4205 33.7638 19.7186 33.7638 19.8793C33.7638 19.9632 33.8163 20.0528 33.8803 20.0786C34.0261 20.1369 35.6127 22.7875 35.6127 22.9727C35.6127 23.0475 35.6652 23.1296 35.7292 23.1553C35.875 23.2136 37.4616 25.8642 37.4616 26.0494C37.4616 26.1242 37.5117 26.2063 37.5727 26.232C37.6339 26.2576 38.4123 27.5058 39.3026 29.0057C40.1929 30.5056 40.9945 31.8128 41.0839 31.9104C41.2101 32.0484 41.3772 31.8299 41.832 30.9315C42.6249 29.3654 43.3428 27.1571 43.6633 25.2996C44.0343 23.1486 44.025 19.5853 43.6435 17.8176C43.6021 17.6253 43.505 17.1533 43.4278 16.7687C43.2271 15.7695 42.4932 13.7479 41.8285 12.3634C41.5144 11.7096 41.2675 11.1274 41.2796 11.0698C41.2917 11.0122 41.2377 10.9649 41.1594 10.9649C41.0812 10.9649 41.0172 10.9043 41.0172 10.8303C41.0172 10.6435 39.4087 8.39875 38.6146 7.47755C38.0345 6.80444 37.6504 6.42684 36.0259 4.93393C35.8063 4.73199 35.5275 4.52948 35.4064 4.48375C35.2852 4.43802 35.1861 4.33579 35.1861 4.25635C35.1861 4.17706 35.0881 4.11216 34.9683 4.11216C34.8484 4.11216 34.7136 4.01776 34.6687 3.90239C34.6236 3.78701 34.4976 3.69261 34.3886 3.69261C34.2797 3.69261 34.1905 3.62968 34.1905 3.55276C34.1905 3.47584 34.0945 3.41291 33.9772 3.41291C33.8598 3.41291 33.7638 3.34997 33.7638 3.27306C33.7638 3.19614 33.6724 3.1332 33.5606 3.1332C33.449 3.1332 33.2729 3.05377 33.1695 2.95671C32.9287 2.73071 30.7405 1.66449 30.5994 1.70448C30.5408 1.72113 30.4927 1.66798 30.4927 1.58659C30.4927 1.50519 30.4331 1.47471 30.3603 1.5189C30.2875 1.56323 30.1871 1.53442 30.1372 1.45499C30.0872 1.37555 29.9868 1.34674 29.914 1.39108C29.8412 1.43527 29.7816 1.40478 29.7816 1.32339C29.7816 1.242 29.7335 1.1827 29.6749 1.19179C29.6163 1.20102 29.5202 1.19305 29.4616 1.17431C29.403 1.15571 29.2909 1.12452 29.2127 1.10536C29.1345 1.0862 29.0385 1.05459 28.9994 1.03543C28.9603 1.01627 28.8643 0.984669 28.786 0.965509C28.7078 0.946349 28.6277 0.917959 28.6083 0.902715C28.5888 0.887331 28.4127 0.847335 28.2171 0.813631C28.0216 0.780066 27.7656 0.712099 27.6483 0.662732C27.5309 0.613364 27.3709 0.560778 27.2927 0.545814C27.2145 0.53085 27.1185 0.504698 27.0794 0.487636C27.0402 0.470714 26.8482 0.430717 26.6527 0.398831C25.8743 0.272126 25.4277 0.19213 25.0882 0.118428C24.4856 -0.0123327 19.6384 -0.0468752 19.186 0.0763338ZM52.0029 16.5939L52.0395 25.4395H53.4617H54.884L54.9551 19.9154L55.0262 14.3912L57.1208 18.2411C58.2728 20.3586 59.2994 22.2039 59.4021 22.3419C59.5497 22.5405 59.8145 22.5984 60.6702 22.6191L61.7518 22.6453L64.0067 18.4236L66.2618 14.2017L66.3329 19.8207L66.404 25.4396L67.7196 25.422C68.4431 25.4124 69.0996 25.3967 69.1785 25.3871C69.2734 25.3754 69.3094 22.41 69.2852 16.5939L69.2485 7.81822L67.9685 7.77963L66.6885 7.74117L63.7056 13.3977C62.0651 16.5087 60.6815 19.0291 60.6311 18.9985C60.5806 18.9677 59.204 16.424 57.572 13.3456L54.6045 7.7483H53.2854H51.9663L52.0029 16.5939ZM112.524 11.3495L112.484 13.1326L111.631 13.1526C111.162 13.1635 110.666 13.1793 110.529 13.1875C110.311 13.2005 110.28 13.3614 110.28 14.4612V15.7198H111.403H112.526L112.59 19.0413C112.656 22.5149 112.708 22.8355 113.368 23.8732C113.751 24.4763 114.765 25.1625 115.611 25.391C116.333 25.5859 118.68 25.681 118.932 25.5254C119.053 25.4508 119.151 24.9946 119.201 24.2701L119.281 23.1319H118.322C117.178 23.1319 116.56 22.8797 116.176 22.2556C115.927 21.8509 115.893 21.4834 115.85 18.7616L115.802 15.7198H117.45H119.098V14.4775C119.098 13.0242 119.234 13.1211 117.213 13.1383L115.827 13.1501V11.3583V9.56637H114.195H112.564L112.524 11.3495ZM76.7914 12.9491C75.4235 13.128 72.9709 14.0142 72.8277 14.3813C72.7314 14.628 73.5819 16.5589 73.7867 16.5589C73.8818 16.5589 74.2775 16.4082 74.6659 16.224C76.9383 15.146 79.2712 15.1856 79.8148 16.3113C79.9161 16.5212 80.0371 17.009 80.0836 17.3951L80.1682 18.0973L79.1172 18.1096C76.0945 18.145 74.0809 18.5817 73.1782 19.3978C71.8708 20.5797 72.058 23.3129 73.528 24.5044C74.5481 25.3312 75.2271 25.564 76.6441 25.5721C78.1036 25.5803 78.7365 25.3405 79.5781 24.4601L80.0574 23.9589L80.1285 24.6984L80.1997 25.438L81.693 25.4388L83.1863 25.4395V21.3139C83.1863 19.0448 83.1428 16.8978 83.0896 16.5429C82.6799 13.809 80.356 12.483 76.7914 12.9491ZM90.2621 13.0055C87.3592 13.5916 85.6171 15.9851 85.6401 19.356C85.6605 22.3464 87.1512 24.5292 89.7074 25.3115C90.7481 25.6301 92.7956 25.6877 93.9179 25.4303C95.0197 25.1774 96.3784 24.5975 96.7079 24.2394C96.9326 23.9953 96.9232 23.9241 96.5476 23.0315C96.3282 22.5099 96.1056 22.0326 96.0531 21.971C96.0006 21.9094 95.6441 22.0492 95.2609 22.2819C93.4392 23.3877 90.8671 23.3757 89.7915 22.2563C89.3817 21.8301 89.0047 21.0719 88.8881 20.4398L88.7912 19.9154H93.0134H97.2356L97.1498 18.6891C96.8983 15.0877 95.1052 13.0624 92.0042 12.8771C91.5348 12.849 90.7509 12.9067 90.2621 13.0055ZM103.033 12.9524C100.04 13.4005 98.3844 16.0086 99.602 18.3556C99.9887 19.101 101.246 19.9342 102.265 20.1201C103.565 20.3574 105.566 20.93 105.871 21.1525C106.657 21.725 106.301 22.824 105.235 23.1194C104.102 23.4335 101.859 23.0296 100.494 22.2657C100.078 22.0334 99.7115 21.8696 99.6787 21.9021C99.6458 21.9344 99.4234 22.427 99.1844 22.9967L98.7501 24.0326L99.0749 24.274C101.156 25.8197 105.576 26.0883 107.65 24.7948C108.922 24.0017 109.35 23.1552 109.261 21.607C109.214 20.7957 109.131 20.5237 108.778 20.0296C108.131 19.1241 107.305 18.7041 105.134 18.1756C104.079 17.919 103.014 17.6064 102.768 17.4811C101.981 17.0809 102.015 16.1511 102.836 15.6224C103.459 15.2213 105.267 15.2884 106.403 15.7546C106.892 15.9551 107.482 16.2524 107.714 16.4152L108.137 16.7114L108.332 16.2506C109.18 14.2368 109.194 14.3075 107.824 13.6562C106.369 12.9641 104.646 12.7109 103.033 12.9524ZM127.567 12.9488C127.101 13.0098 126.514 13.1266 126.262 13.2082C125.606 13.4212 124.681 14.116 124.356 14.6402L124.076 15.0905L124.076 14.1465C124.076 13.4072 124.029 13.1994 123.862 13.1881C123.745 13.1801 123.137 13.1736 122.511 13.1736C121.885 13.1736 121.277 13.1801 121.158 13.1881C120.97 13.2007 120.948 13.9458 120.981 19.321L121.018 25.4395H122.582H124.147L124.218 21.6635C124.281 18.3023 124.319 17.8278 124.563 17.3442C125.062 16.3557 126.324 15.8318 128.555 15.6868C129.102 15.6513 129.125 15.6309 129.131 15.1604C129.135 14.8912 129.103 14.2619 129.06 13.7619C128.972 12.7318 129.021 12.7585 127.567 12.9488ZM134.671 12.9497C133.28 13.1315 130.62 14.1015 130.617 14.4286C130.616 14.4849 130.818 15.0151 131.066 15.6065L131.516 16.682L132.094 16.392C134.517 15.1765 137.047 15.1182 137.65 16.2638C137.756 16.4652 137.878 16.9603 137.923 17.3638L138.003 18.0973L137.048 18.1062C134.862 18.1268 132.782 18.43 131.853 18.8635C131.099 19.2156 130.456 19.961 130.26 20.7114C129.89 22.1273 130.299 23.529 131.355 24.4674C132.299 25.3059 133.051 25.5682 134.529 25.5742C135.994 25.58 136.58 25.3557 137.5 24.4361L138.035 23.9011L138.009 24.3207C137.995 24.5514 137.99 24.8983 137.998 25.0915L138.013 25.4429H139.507H141L140.995 20.9659C140.99 16.1269 140.933 15.6877 140.156 14.5733C139.225 13.2373 137.157 12.6251 134.671 12.9497ZM91.0177 15.3256C89.9791 15.55 89.1813 16.4441 88.8878 17.7127L88.7987 18.0973H91.586H94.3735L94.2809 17.6428C93.8991 15.7684 92.7489 14.9516 91.0177 15.3256ZM77.313 20.0777C75.8764 20.3007 75.3238 20.8392 75.4887 21.8557C75.7548 23.4958 78.3044 23.762 79.4614 22.2703C79.8145 21.8151 80.1179 20.8836 80.1251 20.2323C80.1284 19.9355 80.0769 19.9208 79.0974 19.9403C78.5304 19.9516 77.7273 20.0134 77.313 20.0777ZM135.24 20.0577C133.819 20.2723 133.32 20.6771 133.32 21.614C133.32 22.6167 134.343 23.3682 135.529 23.2367C136.83 23.0925 137.743 22.0889 137.947 20.5797L138.037 19.9154L136.994 19.9328C136.42 19.9424 135.631 19.9986 135.24 20.0577Z" fill="#FFFFFF"/>
</svg>
