<svg preserveAspectRatio="none" width="100%" height="100%" overflow="visible" style="display: block;" viewBox="0 0 110.4 32" fill="none" xmlns="http://www.w3.org/2000/svg">
<g id="logo-summer-1 1" clip-path="url(#clip0_0_210)">
<path id="Union" d="M56.7627 25.7305C56.9136 25.7305 57.069 25.747 57.2275 25.7803C57.3861 25.8137 57.5405 25.864 57.6885 25.9277C57.8364 25.9931 57.9751 26.0724 58.1064 26.168C58.2377 26.2637 58.3484 26.3758 58.4375 26.5049L57.6807 27.1143C57.5688 26.935 57.4224 26.8028 57.2412 26.7178C57.06 26.6328 56.8633 26.5918 56.6504 26.5918C56.5447 26.5918 56.4271 26.6082 56.2988 26.6416C56.1705 26.6749 56.051 26.7266 55.9424 26.7979C55.8337 26.8678 55.7434 26.9626 55.6709 27.0811C55.5984 27.1995 55.5615 27.3421 55.5615 27.5107C55.5615 27.7249 55.6362 27.8909 55.7842 28.0078C55.9321 28.1262 56.1318 28.2325 56.3838 28.3281C56.9032 28.5195 57.3018 28.7474 57.5811 29.0146C57.8605 29.282 57.999 29.642 57.999 30.0977C57.999 30.4409 57.9332 30.7331 57.7988 30.9746C57.6644 31.216 57.4885 31.4117 57.2695 31.5635C57.0522 31.7153 56.8064 31.8266 56.5332 31.8965C56.26 31.9663 55.9834 32.0009 55.7041 32.001C55.5093 32.001 55.3112 31.9809 55.1133 31.9414C54.9154 31.902 54.7261 31.8426 54.5479 31.7637C54.3699 31.6847 54.2037 31.5863 54.0498 31.4648C53.8957 31.3448 53.7659 31.1988 53.6602 31.0303L54.498 30.4482C54.6098 30.6442 54.7793 30.8075 55.0059 30.9336C55.2323 31.0596 55.4816 31.123 55.7549 31.123C55.8937 31.123 56.0327 31.1066 56.1699 31.0732C56.3073 31.0399 56.4303 30.9851 56.5391 30.9092C56.6477 30.8332 56.7367 30.7342 56.8076 30.6143C56.8771 30.4943 56.9121 30.3438 56.9121 30.1631C56.9121 30.0279 56.8831 29.9095 56.8242 29.8047C56.7653 29.7014 56.6866 29.6102 56.5898 29.5312C56.4917 29.4523 56.3782 29.3826 56.25 29.3203C56.1217 29.2581 55.9847 29.2014 55.8398 29.1514C55.6617 29.0845 55.4921 29.0089 55.332 28.9238C55.172 28.8388 55.0315 28.7362 54.9092 28.6162C54.787 28.4964 54.6905 28.3509 54.6211 28.1826C54.5516 28.0141 54.5166 27.8147 54.5166 27.584C54.5166 27.2862 54.5797 27.0214 54.7051 26.792C54.8304 26.5627 54.9972 26.3689 55.2041 26.2109C55.4111 26.0529 55.6496 25.9336 55.9199 25.8516C56.1901 25.7696 56.4713 25.7305 56.7627 25.7305ZM82.8496 25.7305C83.0007 25.7305 83.1571 25.7469 83.3154 25.7803C83.4738 25.8137 83.6284 25.864 83.7764 25.9277C83.9244 25.9931 84.0633 26.0723 84.1953 26.168C84.3263 26.2636 84.4367 26.3759 84.5254 26.5049L83.7686 27.1143C83.6574 26.935 83.5099 26.8028 83.3291 26.7178C83.1477 26.6328 82.9518 26.5918 82.7393 26.5918C82.6337 26.5918 82.5147 26.6082 82.3867 26.6416C82.2581 26.6749 82.139 26.7266 82.0303 26.7979C81.9215 26.8678 81.8306 26.9626 81.7578 27.0811C81.6859 27.1995 81.6494 27.3422 81.6494 27.5107C81.6494 27.7249 81.7241 27.8909 81.8721 28.0078C82.02 28.1262 82.2191 28.2325 82.4717 28.3281C82.9908 28.5195 83.389 28.7474 83.6689 29.0146C83.9481 29.282 84.0879 29.642 84.0879 30.0977C84.0879 30.4409 84.0211 30.7331 83.8867 30.9746C83.7524 31.2158 83.5774 31.4117 83.3584 31.5635C83.1408 31.7154 82.8937 31.8266 82.6201 31.8965C82.3476 31.9662 82.0709 32.0009 81.792 32.001C81.5968 32.001 81.3988 31.9809 81.2012 31.9414C81.0029 31.902 80.8143 31.8426 80.6367 31.7637C80.4583 31.6846 80.2913 31.5864 80.1377 31.4648C79.9835 31.3449 79.8538 31.1988 79.748 31.0303L80.5859 30.4482C80.6979 30.6442 80.8674 30.8075 81.0938 30.9336C81.3201 31.0597 81.5692 31.123 81.8428 31.123C81.9819 31.123 82.1211 31.1066 82.2578 31.0732C82.3954 31.0399 82.5182 30.9851 82.627 30.9092C82.7357 30.8332 82.8243 30.7342 82.8955 30.6143C82.9651 30.4943 83 30.3438 83 30.1631C83 30.0279 82.9705 29.9096 82.9121 29.8047C82.8529 29.7014 82.7745 29.6102 82.6777 29.5312C82.5794 29.4523 82.4666 29.3826 82.3379 29.3203C82.2099 29.2581 82.0725 29.2014 81.9277 29.1514C81.7495 29.0846 81.5807 29.0088 81.4209 28.9238C81.2601 28.8388 81.1195 28.7362 80.9971 28.6162C80.8749 28.4963 80.7775 28.351 80.708 28.1826C80.6384 28.0141 80.6045 27.8147 80.6045 27.584C80.6045 27.2862 80.6674 27.0214 80.793 26.792C80.9186 26.5627 81.0848 26.3689 81.292 26.2109C81.4992 26.0529 81.7374 25.9336 82.0078 25.8516C82.278 25.7696 82.5587 25.7305 82.8496 25.7305ZM30.2666 26.793H28.5234L27.6348 31.8477H26.6055L27.4844 26.793H25.7246L25.8828 25.8828H30.4248L30.2666 26.793ZM34.4492 25.8828C35.103 25.8829 35.606 26.0192 35.9609 26.291C36.3159 26.5629 36.4922 26.9418 36.4922 27.4248C36.4921 27.9017 36.3518 28.2893 36.0693 28.584C35.787 28.8786 35.4092 29.0787 34.9336 29.1865L36.165 31.8477H35L33.8779 29.3037H33.0908L32.6562 31.8477H31.6426L32.6895 25.8828H34.4492ZM43.5039 31.8477H42.4062L42.1631 30.4746H39.624L38.7783 31.8477H37.5547L41.4258 25.8828H42.3232L43.5039 31.8477ZM50.0137 30.375H50.0303L50.8164 25.8828H51.8467L50.7998 31.8477H49.5176L47.5742 27.2139H47.5576L46.7451 31.8477H45.7148L46.7617 25.8828H48.1025L50.0137 30.375ZM64.9375 26.793H62.2969L62.0039 28.4443H64.4844L64.333 29.3203H61.8525L61.4092 31.8477H60.3789L61.4258 25.8828H65.0957L64.9375 26.793ZM71.2871 26.793H68.5557L68.2871 28.335H70.8926L70.7344 29.2109H68.1367L67.834 30.9219H70.8008L70.6416 31.8477H66.6621L67.709 25.8828H71.4453L71.2871 26.793ZM75.9902 25.8828C76.644 25.8829 77.1471 26.0192 77.502 26.291C77.8568 26.5629 78.0332 26.9418 78.0332 27.4248C78.0332 27.9017 77.8928 28.2893 77.6104 28.584C77.328 28.8786 76.9502 29.0787 76.4746 29.1865L77.7061 31.8477H76.541L75.4189 29.3037H74.6318L74.1973 31.8477H73.1836L74.2305 25.8828H75.9902ZM40.1279 29.582H42.0225L41.6279 27.0781L40.1279 29.582ZM33.2393 28.4531H34.0117V28.4512C34.4646 28.4511 34.8131 28.3782 35.0576 28.2324C35.3038 28.0866 35.4267 27.8531 35.4268 27.5342C35.4268 27.2426 35.324 27.0402 35.1172 26.9277C34.9103 26.8154 34.6337 26.7598 34.2881 26.7598H33.542L33.2393 28.4531ZM74.7803 28.4531H75.5527V28.4512C76.0055 28.4511 76.3541 28.3782 76.5986 28.2324C76.8447 28.0866 76.9677 27.8531 76.9678 27.5342C76.9678 27.2426 76.8635 27.0402 76.6582 26.9277C76.4514 26.8154 76.1748 26.7598 75.8291 26.7598H75.083L74.7803 28.4531ZM26.1865 8.52832C27.5246 8.52832 28.464 8.99435 29.0107 9.92676C29.3567 10.5511 29.5273 11.3139 29.5273 12.2207C29.5273 12.6809 29.484 13.1823 29.3994 13.7246C28.7546 17.4962 26.785 19.3846 23.4941 19.3848C22.9641 19.3848 22.3852 19.2641 21.7705 19.0195L20.9277 23.9033H17.9209L20.499 8.70996H23.0811L23.1914 9.54297C24.2094 8.86708 25.2079 8.52835 26.1865 8.52832ZM98.0684 8.52832C99.4035 8.52832 100.347 8.99419 100.891 9.92676C101.238 10.5511 101.409 11.3139 101.409 12.2207C101.409 12.6809 101.364 13.1823 101.276 13.7246C100.63 17.4962 98.6609 19.3847 95.373 19.3848C94.8402 19.3848 94.2649 19.2641 93.6465 19.0195L92.8105 23.9033H89.7969L92.377 8.70996H94.9639L95.0713 9.54297C96.0919 8.86715 97.0917 8.52842 98.0684 8.52832ZM59.0596 0C60.2466 6.60615e-05 61.7809 0.397998 61.8809 1.79199C61.9805 3.18639 60.3947 5.58078 59.0596 7.12109C57.7215 8.66732 55.2927 11.2068 54.3018 12.3037C53.3111 13.4003 52.2689 14.2484 52.6641 14.6465C53.0629 15.0475 54.945 13.6499 56.1836 13.2002C57.4221 12.7536 58.7602 11.8572 61.6328 11.0127C64.5086 10.162 66.9347 9.91665 68.3213 9.81641C69.7106 9.71628 70.4018 10.2143 70.4033 10.4102C70.4029 10.6108 69.9081 11.1118 69.1172 11.458C68.3228 11.8074 66.3891 12.8523 64.6582 13.5996C62.9243 14.347 61.0908 15.2438 59.3086 16.2402C57.525 17.2367 55.2443 18.6308 52.124 20.2773C49.0036 21.9209 47.1697 22.3713 45.9795 22.4199C44.7924 22.4716 44.1006 22.2706 43.3545 22.0215C42.6114 21.7724 41.541 21.1585 41.5107 20.3701C41.47 19.3632 41.9168 19.2813 42.5117 18.5342C43.1083 17.7868 47.564 13.4521 50.8838 10.1133C54.2034 6.77466 55.1941 5.7785 54.75 5.28027C54.3029 4.78217 52.9652 5.77892 51.2314 6.5293C49.499 7.27362 47.044 8.79688 46.1016 8.79688C45.162 8.79677 43.4633 8.383 43.4844 7.12695C43.5028 5.93316 44.8888 4.78154 45.6318 4.33496C46.375 3.88533 50.2891 2.09286 51.9746 1.54297C53.6575 0.996076 57.8695 0 59.0596 0ZM35.4238 8.50879C36.7982 8.5088 37.8299 8.71648 38.5186 9.13574L37.4834 11.1465C36.5217 10.8626 35.7229 10.7188 35.0918 10.7188C34.0996 10.7188 33.5603 11.0223 33.4756 11.6328C33.4605 11.6875 33.4531 11.7413 33.4531 11.7959C33.4534 12.2712 33.9411 12.6946 34.918 13.0742C35.3635 13.2337 35.8015 13.4207 36.2334 13.6318C36.6654 13.8399 36.9972 14.1154 37.2236 14.4541C37.4562 14.7897 37.5683 15.09 37.5684 15.3467C37.5684 16.6303 37.0444 17.6577 35.9932 18.4248C35.1609 19.0612 34.0321 19.3799 32.6094 19.3799C31.9602 19.3799 31.2975 19.3114 30.6182 19.1748C29.931 19.0411 29.4408 18.8876 29.1387 18.71L30.2178 16.6807C31.2508 17.0345 32.2218 17.209 33.1279 17.209C34.0326 17.209 34.5434 16.8751 34.6582 16.2158C34.6718 16.1749 34.6787 16.1244 34.6787 16.0713C34.6785 15.6658 34.1908 15.2478 33.2139 14.8135C32.7851 14.61 32.3547 14.3947 31.9229 14.167C31.4909 13.936 31.1645 13.638 30.9424 13.2734C30.7174 12.9089 30.6074 12.5986 30.6074 12.3389C30.6075 11.0268 31.1176 10.0289 32.1367 9.33789C32.9569 8.78645 34.0524 8.50879 35.4238 8.50879ZM107.305 8.50684C108.676 8.50684 109.708 8.71459 110.4 9.13379L109.364 11.1455C108.404 10.8615 107.604 10.7169 106.972 10.7168C105.98 10.7168 105.441 11.0212 105.355 11.6318C105.339 11.6864 105.334 11.7394 105.334 11.7939C105.334 12.2695 105.822 12.6935 106.798 13.0732C107.245 13.2327 107.682 13.4197 108.114 13.6309C108.543 13.8389 108.875 14.1132 109.107 14.4473C109.337 14.783 109.451 15.0841 109.451 15.3408C109.451 16.6259 108.929 17.6527 107.879 18.4229C107.046 19.0592 105.917 19.3789 104.493 19.3789C103.85 19.3789 103.18 19.3105 102.501 19.1738C101.816 19.0402 101.325 18.8867 101.021 18.709L102.099 16.6797C103.132 17.0335 104.103 17.208 105.01 17.208C105.917 17.208 106.427 16.8731 106.539 16.2139C106.554 16.1731 106.561 16.1232 106.562 16.0703C106.562 15.6648 106.073 15.247 105.097 14.8125C104.666 14.609 104.234 14.3929 103.806 14.165C103.374 13.9341 103.044 13.6369 102.822 13.2725C102.598 12.908 102.487 12.5976 102.487 12.3379C102.487 11.0254 102.999 10.0271 104.019 9.33594C104.839 8.78461 105.93 8.50685 107.305 8.50684ZM88.2188 15.5449C88.1868 15.7376 88.1748 15.9121 88.1748 16.0684C88.1748 16.2217 88.2111 16.3705 88.2822 16.5117C88.3534 16.653 88.5784 16.7236 88.9512 16.7236C89.3231 16.7236 89.7181 16.6742 90.1348 16.5693L90.2656 18.7529C89.489 19.078 88.7538 19.2406 88.0547 19.2422C87.3595 19.2422 86.8022 19.1611 86.3838 18.9971C85.9679 18.8345 85.666 18.6475 85.4805 18.4395C85.1919 18.1416 85.0488 17.5843 85.0488 16.7705C85.0488 16.5184 85.1 16.0488 85.1992 15.3652L86.9229 4.07617H89.9648L88.2188 15.5449ZM16.3379 15.543C16.3092 15.7358 16.2939 15.911 16.2939 16.0674C16.294 16.2207 16.3304 16.3696 16.4043 16.5107C16.4754 16.6519 16.6974 16.7217 17.0703 16.7217C17.4447 16.7217 17.8402 16.6731 18.2568 16.5684L18.3838 18.7529C17.6076 19.0779 16.8734 19.2402 16.1758 19.2402C15.4784 19.2402 14.9226 19.16 14.5059 18.9961C14.0907 18.8337 13.7884 18.6464 13.5996 18.4385C13.3142 18.1407 13.1699 17.5827 13.1699 16.7686C13.17 16.5163 13.2187 16.0467 13.3184 15.3633L15.042 4.07422H18.084L16.3379 15.543ZM12.373 18.9502H9.31152L8.83887 15.4346H4.67578L3.14648 18.9502H0L6.83301 4.07617H10.1289L12.373 18.9502ZM84.2549 18.9502H81.1924L80.7197 15.4346H76.5576L75.0273 18.9502H71.8779L78.7109 4.07617H82.0127L84.2549 18.9502ZM24.8477 10.8398C24.3041 10.8399 23.7077 11.0132 23.0615 11.3486L22.1143 16.9492C22.5145 17.0434 22.9388 17.0879 23.3828 17.0879C25.0381 17.0879 26.0438 15.9971 26.4033 13.8037C26.4607 13.4226 26.4878 13.0793 26.4863 12.7695C26.4863 11.4844 25.9412 10.8398 24.8477 10.8398ZM96.7305 10.8398C96.1865 10.8398 95.5884 11.013 94.9404 11.3486L93.9932 16.9492C94.3964 17.0435 94.8216 17.0879 95.2656 17.0879C96.9192 17.0879 97.924 15.9972 98.2832 13.8037C98.3424 13.4226 98.3691 13.0793 98.3691 12.7695C98.3691 11.4844 97.824 10.8399 96.7305 10.8398ZM5.71289 13.0078H8.53516L7.99512 7.15039L5.71289 13.0078ZM77.5938 13.0078H80.415L79.876 7.15039L77.5938 13.0078Z" fill="var(--fill-0, #2F3037)"/>
</g>
<defs>
<clipPath id="clip0_0_210">
<rect width="110.4" height="32" fill="white"/>
</clipPath>
</defs>
</svg>
