<svg preserveAspectRatio="none" width="100%" height="100%" overflow="visible" style="display: block;" viewBox="0 0 18 16" fill="none" xmlns="http://www.w3.org/2000/svg">
<path id="Vector" d="M18 4.57143C18 3.35901 17.5259 2.19625 16.682 1.33894C15.8381 0.481631 14.6935 0 13.5 0C12.3065 0 11.1619 0.481631 10.318 1.33894C9.47411 2.19625 9 3.35901 9 4.57143C9 3.35901 8.52589 2.19625 7.68198 1.33894C6.83807 0.481631 5.69347 0 4.5 0C3.30653 0 2.16193 0.481631 1.31802 1.33894C0.474106 2.19625 0 3.35901 0 4.57143C0 12 9 16 9 16C9 16 18 12 18 4.57143Z" fill="var(--fill-0, white)"/>
</svg>
