<svg preserveAspectRatio="none" width="100%" height="100%" overflow="visible" style="display: block;" viewBox="0 0 20 20" fill="none" xmlns="http://www.w3.org/2000/svg">
<path id="Vector" d="M9.76862 11.918C8.77911 11.9909 7.92052 12.3985 7.25832 13.1456C6.85421 13.6018 6.62373 14.1402 6.35182 14.6828L5.6767 16.0298C5.29488 16.7917 4.84053 17.6419 4.48706 18.4068C5.51713 18.9362 6.61638 19.4917 7.65663 20L9.20761 16.9024C9.31551 16.686 9.84823 15.5764 9.96197 15.4625C10.0269 15.4538 9.99655 15.4502 10.0592 15.4751C10.1588 15.589 10.4462 16.2045 10.5357 16.3763C10.8685 17.0149 11.1847 17.6856 11.5203 18.3213L14.6804 16.7228C14.3992 16.1343 14.0864 15.5454 13.7982 14.9617C13.1689 13.6874 12.7185 12.6485 11.2446 12.123C10.7717 11.9557 10.2693 11.8861 9.76862 11.918ZM16.7237 5.31192C16.2361 5.54191 15.6721 5.83582 15.1896 6.0842C14.4682 6.45564 13.6346 6.79296 13.0449 7.3414C12.4199 7.9229 11.9569 8.8606 11.925 9.72056C11.9158 9.89323 11.9085 10.0817 11.9239 10.2541C11.9172 10.4907 12.0279 10.9406 12.1014 11.1605C12.3088 11.7882 12.6859 12.3467 13.1907 12.7738C13.6082 13.1287 13.9894 13.2938 14.4691 13.5355L15.514 14.0605L18.4068 15.51C18.5593 15.2538 18.7982 14.7366 18.9403 14.4535L20 12.3427C19.6453 12.1501 19.2174 11.9488 18.8526 11.7659L16.7406 10.7041C16.5201 10.5937 15.6319 10.1658 15.4823 10.0491C15.4593 10.0003 15.4671 10.0091 15.4707 9.9477C15.5624 9.83155 17.9769 8.65289 18.3159 8.48133C18.1747 8.15167 17.918 7.67447 17.7485 7.34034L16.7237 5.31192ZM0.517697 6.6642C0.353156 6.99093 0.172312 7.38219 0 7.69848C0.578708 8.01427 4.44104 9.88774 4.53354 10.0164C4.53781 10.0461 4.54934 10.0663 4.53038 10.0914C4.448 10.1999 2.01504 11.3983 1.6767 11.5694C2.12131 12.4865 2.61179 13.3913 3.05969 14.3077C3.12778 14.447 3.20308 14.5963 3.27734 14.7324L3.54675 14.5972L5.17697 13.7721C5.53456 13.5927 6.03143 13.3617 6.36027 13.1583C7.08506 12.7108 7.62972 12.023 7.89963 11.2155C8.20417 10.2899 8.1321 9.28123 7.69889 8.40843C7.45756 7.92692 7.11131 7.50504 6.68674 7.17342C6.25431 6.83695 5.45168 6.47247 4.93608 6.2152L2.74696 5.11331C2.37363 4.9249 1.95561 4.72809 1.59218 4.52908L0.517697 6.6642ZM12.3381 0C11.9093 0.90838 11.4075 1.86015 10.954 2.76266L10.3803 3.90576C10.3087 4.0488 10.1526 4.45173 10.0063 4.53859C9.9875 4.54975 9.96601 4.53816 9.94295 4.53119C9.82948 4.38405 9.54895 3.79803 9.44638 3.5941L8.47861 1.67556L6.38774 2.73414C6.06053 2.89966 5.61985 3.10541 5.3122 3.28139L6.25568 5.13972C6.51008 5.64552 6.75575 6.19499 7.08611 6.64941C7.72886 7.44933 8.55352 7.95227 9.58796 8.06297C10.5594 8.17361 11.5353 7.89004 12.2958 7.2759C12.5798 7.04501 12.8281 6.77216 13.0312 6.4677C13.2902 6.07938 13.7002 5.2074 13.9239 4.75939L15.5108 1.59738C15.025 1.31553 14.3054 0.983974 13.7908 0.723681C13.3869 0.519355 12.7332 0.169278 12.3381 0Z" fill="var(--fill-0, white)"/>
</svg>
