<svg preserveAspectRatio="none" width="100%" height="100%" overflow="visible" style="display: block;" viewBox="0 0 18 18" fill="none" xmlns="http://www.w3.org/2000/svg">
<path id="Vector" d="M9.72225e-08 7.68665C0.000288593 6.48788 0.280859 5.30578 0.819301 4.23476C1.35774 3.16375 2.13914 2.23349 3.10109 1.51828C4.06304 0.803072 5.17888 0.32273 6.3595 0.115619C7.54013 -0.0914934 8.75282 -0.0196372 9.90073 0.325448C11.0486 0.670532 12.1 1.27928 12.9707 2.10309C13.8415 2.92689 14.5076 3.94292 14.9158 5.07002C15.3241 6.19713 15.4631 7.4041 15.3219 8.59451C15.1806 9.78493 14.763 10.9258 14.1023 11.9261L18 15.8257L15.8259 18L11.9267 14.1019C10.768 14.8679 9.42335 15.3056 8.03578 15.3685C6.64821 15.4314 5.26953 15.1171 4.04625 14.4591C2.82296 13.8011 1.80078 12.824 1.08833 11.6315C0.375879 10.439 -0.000220769 9.07578 9.72225e-08 7.68665Z" fill="var(--fill-0, white)"/>
</svg>
