<svg preserveAspectRatio="none" width="100%" height="100%" overflow="visible" style="display: block;" viewBox="0 0 15 20" fill="none" xmlns="http://www.w3.org/2000/svg">
<path id="Link button text" d="M8.64949 14.2466H5.42426V13.3425C5.42426 12.9041 5.4709 12.5137 5.56419 12.1712C5.65749 11.8242 5.7841 11.5137 5.94403 11.2397C6.1084 10.9612 6.2972 10.7169 6.51044 10.5068C6.72812 10.2922 6.95913 10.1005 7.20347 9.93151C7.4478 9.75799 7.6988 9.60274 7.95646 9.46575C8.21413 9.32877 8.46513 9.19863 8.70946 9.07534L9.20924 8.82192C9.48912 8.68037 9.76899 8.53196 10.0489 8.37671C10.3287 8.22146 10.5797 8.03881 10.8019 7.82877C11.024 7.61872 11.2039 7.37443 11.3416 7.09589C11.4838 6.81278 11.5549 6.47488 11.5549 6.08219C11.5549 5.6347 11.4549 5.23059 11.255 4.86986C11.0595 4.50457 10.7819 4.19406 10.422 3.93836C10.0622 3.68265 9.62905 3.48402 9.12261 3.34246C8.61617 3.20091 8.05642 3.13014 7.44336 3.13014C6.80364 3.13014 6.23501 3.21233 5.73745 3.37671C5.23989 3.53653 4.82008 3.78539 4.47801 4.12329C4.13594 4.45662 3.87606 4.88128 3.69836 5.39726C3.52066 5.90868 3.43181 6.51598 3.43181 7.21918V7.5274H0V7.12329C0 5.93151 0.166593 4.89041 0.499778 4C0.832963 3.10959 1.32164 2.36758 1.96579 1.77397C2.61439 1.18037 3.41182 0.737443 4.35806 0.445206C5.30431 0.148402 6.38827 0 7.60995 0C8.78721 0 9.83341 0.134703 10.7486 0.40411C11.6681 0.668949 12.4411 1.05708 13.0675 1.56849C13.6984 2.07991 14.1781 2.70776 14.5069 3.45205C14.8356 4.19635 15 5.04566 15 6C15 6.58448 14.9422 7.10502 14.8267 7.56164C14.7112 8.0137 14.5535 8.41552 14.3536 8.76712C14.1582 9.11872 13.9316 9.42466 13.6739 9.68493C13.4207 9.94064 13.1519 10.1667 12.8676 10.363C12.5877 10.5594 12.3034 10.7306 12.0147 10.8767C11.7303 11.0183 11.4594 11.1484 11.2017 11.2671L10.7419 11.4863C10.4753 11.6096 10.2155 11.7352 9.96224 11.863C9.71346 11.9909 9.49134 12.1347 9.29587 12.2945C9.1004 12.4498 8.94269 12.6301 8.82275 12.8356C8.70724 13.0365 8.64949 13.2717 8.64949 13.5411V14.2466ZM8.91604 20H5.15771V15.9452H8.91604V20Z" fill="var(--fill-0, white)"/>
</svg>
