<svg preserveAspectRatio="none" width="100%" height="100%" overflow="visible" style="display: block;" viewBox="0 0 15 24" fill="none" xmlns="http://www.w3.org/2000/svg">
<path id="Link button text" d="M6.39235 21.209C5.37425 21.122 4.46881 20.9251 3.67606 20.6185C2.8833 20.3118 2.21328 19.9057 1.666 19.4002C1.12274 18.8904 0.70825 18.2875 0.422535 17.5913C0.140845 16.891 0 16.1077 0 15.2416H3.0664C3.0664 15.7472 3.17103 16.201 3.38028 16.603C3.58954 17.0049 3.88732 17.3447 4.27364 17.6224C4.66398 17.9 5.13481 18.1134 5.68612 18.2626C6.24145 18.4077 6.86519 18.4802 7.55734 18.4802C8.14889 18.4802 8.70624 18.4242 9.22938 18.3124C9.75251 18.2005 10.2093 18.0306 10.5996 17.8026C10.994 17.5706 11.3038 17.2784 11.5292 16.9262C11.7586 16.5739 11.8732 16.1595 11.8732 15.683C11.8732 15.2437 11.7787 14.8894 11.5895 14.62C11.4004 14.3507 11.1308 14.1331 10.7807 13.9674C10.4306 13.8016 10.0101 13.6731 9.51911 13.582C9.02817 13.4867 8.48089 13.3934 7.87726 13.3023L6.86318 13.1469C6.50101 13.093 6.12877 13.035 5.74648 12.9728C5.36419 12.9106 4.9839 12.8361 4.60563 12.749C4.23139 12.662 3.86519 12.5605 3.50704 12.4444C3.14889 12.3243 2.80885 12.1792 2.48692 12.0093C2.16901 11.8394 1.87525 11.6405 1.60563 11.4126C1.33602 11.1847 1.10262 10.9195 0.905433 10.6169C0.712274 10.3103 0.561368 9.96426 0.452716 9.57887C0.344064 9.18933 0.289738 8.75006 0.289738 8.26107C0.289738 7.70577 0.360161 7.19399 0.501006 6.72572C0.641851 6.2533 0.841046 5.82233 1.09859 5.43279C1.36016 5.04325 1.67404 4.69516 2.04024 4.3885C2.40644 4.08184 2.81489 3.8187 3.26559 3.59907C3.72032 3.37529 4.21127 3.19503 4.73843 3.05828C5.26559 2.92152 5.8169 2.82828 6.39235 2.77855L6.1509 0H8.85513L8.60765 2.7972C9.50101 2.89252 10.3038 3.09557 11.0161 3.40637C11.7324 3.71303 12.34 4.115 12.839 4.61228C13.3421 5.10541 13.7264 5.68765 13.992 6.35897C14.2616 7.02616 14.3964 7.77001 14.3964 8.59052H11.33C11.33 8.1181 11.2334 7.69334 11.0402 7.31624C10.8511 6.93499 10.5815 6.61176 10.2314 6.34654C9.88531 6.07718 9.46881 5.87205 8.98189 5.73116C8.49497 5.58612 7.95573 5.5136 7.36419 5.5136C7.03421 5.5136 6.70825 5.53639 6.38632 5.58197C6.06439 5.62756 5.75654 5.698 5.46278 5.79332C5.16901 5.88863 4.89738 6.00881 4.64789 6.15385C4.39839 6.29474 4.18109 6.46257 3.99598 6.65734C3.81489 6.84797 3.67203 7.06553 3.5674 7.31002C3.4668 7.55452 3.4165 7.82388 3.4165 8.1181C3.4165 8.52007 3.51107 8.84538 3.7002 9.09402C3.88934 9.34266 4.16097 9.54779 4.51509 9.7094C4.87324 9.86687 5.31187 9.99534 5.83099 10.0948C6.3501 10.1942 6.93763 10.2937 7.59356 10.3932L8.39638 10.5175C8.87928 10.5921 9.37827 10.677 9.89336 10.7723C10.4085 10.8635 10.9095 10.9858 11.3964 11.1391C11.8873 11.2883 12.3501 11.481 12.7847 11.7172C13.2233 11.9492 13.6056 12.2435 13.9316 12.5998C14.2616 12.9562 14.5211 13.3851 14.7103 13.8866C14.9034 14.388 15 14.9826 15 15.6706C15 16.5242 14.8471 17.2805 14.5412 17.9394C14.2394 18.5983 13.8089 19.1598 13.2495 19.6239C12.6942 20.0881 12.0221 20.4548 11.2334 20.7242C10.4487 20.9894 9.57545 21.1551 8.61368 21.2214L8.85513 24H6.1509L6.39235 21.209Z" fill="var(--fill-0, white)"/>
</svg>
