<svg preserveAspectRatio="xMidYMid meet" overflow="visible" style="display: block; transform: scaleY(-1);" viewBox="0 0 164.179 32.0003" fill="none" xmlns="http://www.w3.org/2000/svg">
<g id="Group">
<path id="Union" d="M4.66309 4.68945C8.75928 0.587632 14.6695 -0.960365 20.2979 0.591797C23.6212 1.50431 26.6458 3.58415 28.7676 6.41113C31.5503 10.1102 32.5731 14.8696 31.5771 19.4678C30.7016 23.5204 28.1953 27.1438 24.6709 29.4385C22.6206 30.7759 20.2887 31.6175 17.8408 31.9082C17.1126 31.9976 15.3703 32.0288 14.6914 31.9707C10.8321 31.6352 7.36104 30.0294 4.66309 27.3232C2.04548 24.7065 0.478068 21.4095 0.0537109 17.6387C-0.0177587 16.999 -0.0177597 15.0037 0.0537109 14.373C0.487033 10.5891 2.04575 7.31055 4.66309 4.68945ZM15.3574 2.0459L14.7412 2.25977L14.1465 4.4248C13.8204 5.61465 13.5034 6.76478 13.4453 6.97949L13.3379 7.37305L13.6152 7.45801C13.8832 7.5385 13.8878 7.54741 13.8789 7.69043C13.8389 8.27379 13.6743 10.156 13.6641 10.1816C13.6373 10.2129 13.193 10.1332 13.1377 10.084C13.102 10.0571 12.8876 9.56433 12.6553 8.9873L12.2354 7.94141L12.2217 8.93359L12.2129 9.92285H10.5371L8.6748 10.5176L6.81641 11.1084L5.12402 13.2373L3.43066 15.3711L2.97461 17.8848C2.72069 19.2676 2.53407 20.4145 2.55078 20.4385C2.63988 20.5188 9.95372 25.5962 10.0234 25.623C10.0413 25.623 10.8994 25.3596 11.9268 25.042L13.7939 24.4561L14.8926 24.5449C15.9735 24.6299 16.0006 24.6299 17.0859 24.5449L18.1846 24.4561L20.0566 25.0459C21.7988 25.5916 21.9373 25.6275 22.04 25.5693C22.1659 25.4941 29.3056 20.5033 29.3789 20.4346C29.4146 20.4033 28.5404 15.4615 28.4814 15.3486C28.4636 15.3218 27.6994 14.3557 26.7793 13.1973L25.1084 11.0986L23.25 10.5088L21.3926 9.92285H19.7617V8.91211C19.7617 8.35745 19.7435 7.91432 19.7256 7.92773C19.7054 7.9428 19.5013 8.42815 19.2705 9.00586C19.0386 9.58647 18.8199 10.0779 18.7793 10.1016C18.7436 10.1195 18.6046 10.1511 18.4795 10.1689C18.252 10.2002 18.2432 10.1952 18.2432 10.0879C18.2431 10.0286 18.2028 9.51891 18.1582 8.95605C18.1091 8.39273 18.0646 7.8429 18.0557 7.73535L18.0469 7.53809L18.3232 7.45312C18.5776 7.37717 18.5999 7.35971 18.5732 7.27051C18.5554 7.21683 18.2389 6.06669 17.8682 4.71582L17.1934 2.25977L16.5811 2.0459L15.9697 1.83105L15.3574 2.0459Z" fill="var(--fill-0, #1F2026)"/>
<path id="Union_2" d="M5.8477 22.1445C5.85216 22.1401 6.47308 22.4173 7.23246 22.7617L8.60844 23.3877L9.86821 23.0527C10.565 22.8694 11.1592 22.7168 11.1905 22.7168C11.2628 22.7206 13.2085 24.0362 13.2315 24.0947C13.2404 24.1216 10.2427 25.0879 10.1534 25.0879C10.1274 25.0793 9.15396 24.4248 7.98246 23.625C6.80479 22.8165 5.84119 22.1551 5.8477 22.1445ZM26.17 22.1299C26.0072 22.2743 21.8148 25.0865 21.7657 25.082C21.7307 25.0764 21.0357 24.8622 20.2207 24.6035C19.4083 24.3398 18.7425 24.1119 18.7461 24.0938C18.7685 24.0356 20.7211 22.7158 20.7881 22.7158C20.8244 22.7172 21.4163 22.8692 22.1055 23.0518L23.3653 23.3867L24.7901 22.7383C25.5718 22.3849 26.1923 22.1075 26.17 22.1299ZM14.3184 22.9189C15.4121 24.1796 15.3235 24.0593 15.1807 24.0547C15.1093 24.0502 14.7744 24.0235 14.4395 23.9922C14.1048 23.9564 13.8009 23.9159 13.7647 23.8936C13.5369 23.7594 11.9509 22.6052 11.9688 22.5918C12.0115 22.5513 13.8004 22.3193 13.8272 22.3506C13.8418 22.3699 14.0601 22.6246 14.3184 22.9189ZM18.2813 22.334C18.3442 22.3475 18.7105 22.401 19.0899 22.4502C19.4695 22.4994 19.8358 22.553 19.9073 22.5664C20.0188 22.5888 19.9425 22.6518 19.0899 23.2598L18.1514 23.9307L17.4454 23.9932C16.597 24.0736 16.6639 24.0739 16.7041 24.0068C16.727 23.9749 17.0624 23.5813 17.4551 23.1299C18.0935 22.3922 18.1786 22.3161 18.2813 22.334ZM15.9873 19.5859C16.0096 19.5859 17.699 21.9316 17.7295 22.0098C17.7474 22.0545 16.8634 23.066 16.0147 23.9785C16.0012 23.9963 15.5941 23.5805 15.1163 23.0527C14.6391 22.5258 14.2513 22.0654 14.25 22.0283C14.2545 21.9704 15.9405 19.6021 15.9873 19.5859ZM21.5498 20.2129C21.7955 20.7228 22.765 22.8971 22.7471 22.8926C22.7358 22.8917 22.3526 22.7625 21.8897 22.6064C21.4275 22.4462 21.0449 22.3119 21.0323 22.3018C21.0233 22.2973 21.1307 22.0515 21.2647 21.7607L21.5059 21.2285L21.4834 20.6201L21.4561 20.0117L21.5498 20.2129ZM10.4541 20.1445C10.5122 20.0238 10.5116 20.073 10.4893 20.6143L10.4668 21.2178L10.6329 21.5752C10.7221 21.7719 10.8332 22.0181 10.878 22.1211L10.958 22.3096L10.1455 22.5771C9.28343 22.8679 9.26567 22.8726 9.26567 22.8145C9.26804 22.7779 10.2086 20.6675 10.4541 20.1445ZM3.77543 16.3125C3.8101 16.3533 7.81782 22.2177 7.94731 22.4189C7.98719 22.4855 8.01825 22.5385 8.00981 22.5391C8.00087 22.5346 6.90666 22.0336 5.58012 21.4209C4.25344 20.8081 3.14027 20.2894 3.10453 20.2715C3.05143 20.2391 3.10129 19.8969 3.39555 18.2539C3.58761 17.167 3.75757 16.2946 3.77543 16.3125ZM28.2032 16.3516C28.2433 16.3962 28.9689 20.2001 28.9454 20.2432C28.9231 20.27 23.9758 22.5308 23.9288 22.5381C23.9154 22.5381 23.9556 22.4706 24.0137 22.3945C24.074 22.3107 25.0332 20.9118 26.1485 19.2812C27.2567 17.6545 28.1789 16.3432 28.2032 16.3516ZM12.21 11.5254C12.21 12.5139 12.2193 12.6304 12.3399 13.2656L12.4737 13.9502L10.709 18.0967C9.73976 20.3778 8.94006 22.2475 8.93559 22.252C8.92742 22.2335 8.53193 19.8313 8.0518 16.8887C7.45976 13.2335 7.19554 11.515 7.22465 11.4854C7.25145 11.4675 8.0023 11.2299 8.88676 10.957L10.4991 10.4609H12.21V11.5254ZM23.085 10.9707C23.9821 11.2464 24.7201 11.4827 24.7373 11.4941C24.7463 11.5031 24.3667 13.8961 23.8887 16.8125C23.4155 19.7274 23.0231 22.151 23.0137 22.1982C23.0048 22.243 22.2004 20.4046 21.2266 18.1055L19.4532 13.9277L19.6094 13.2119C19.7568 12.5186 19.7618 12.4645 19.7618 11.4805V10.4609H21.4502L23.085 10.9707ZM18.6905 19.8105C19.4051 20.2623 19.995 20.6193 20.0039 20.6104C20.0153 20.5962 20.1882 20.2358 20.3965 19.8008L20.7764 19.0137L20.8702 19.8232C21.0488 21.2994 21.049 21.1253 20.8301 21.6621C20.7229 21.9215 20.6157 22.1318 20.5889 22.1318C20.5647 22.1271 20.052 22.0512 19.4502 21.9619L18.3555 21.8008L17.4082 20.4814C16.8864 19.7579 16.4628 19.1499 16.4571 19.1348C16.4571 19.1214 16.6669 19.0811 16.9258 19.0498L17.3955 18.9961L18.6905 19.8105ZM15.0235 19.0645C15.3672 19.0957 15.5109 19.1225 15.4932 19.1582C15.2877 19.4937 13.6255 21.7657 13.5674 21.7881C13.5269 21.806 13.0581 21.882 12.5313 21.958C12.0054 22.0339 11.5194 22.1055 11.4551 22.1191C11.3479 22.1415 11.3251 22.1146 11.1241 21.7031C10.9678 21.3812 10.9096 21.2156 10.9141 21.0859C10.9231 20.8442 11.133 19.1401 11.1553 19.1133C11.1687 19.1043 11.343 19.4352 11.544 19.8555C11.7444 20.2702 11.9227 20.6142 11.9414 20.6162C11.9638 20.6162 12.5489 20.2586 13.25 19.8203L14.5284 19.0195L15.0235 19.0645ZM25.2618 12.0391C25.293 12.048 27.947 15.4117 28.0274 15.5459C28.0761 15.6178 27.7979 16.0264 25.8604 18.7803C24.641 20.5157 23.6316 21.9426 23.6182 21.9561C23.6049 21.9692 23.6 21.9196 23.6133 21.8438C23.6274 21.7683 23.9982 19.5291 24.4356 16.8701C24.8754 14.219 25.2445 12.0543 25.2618 12.0391ZM6.72563 12.0625C6.75688 12.0983 8.38185 21.9061 8.36137 21.9395C8.35244 21.9484 7.35163 20.5438 6.13676 18.8174C4.92622 17.0908 3.92973 15.65 3.92973 15.6143C3.93038 15.5332 6.67609 12.0405 6.72563 12.0625ZM13.5352 17.7969C13.5486 17.7969 14.023 18.4815 14.1436 18.6738C14.1632 18.711 13.8454 18.935 13.2002 19.3359C12.6599 19.6713 12.204 19.9443 12.1817 19.9443C12.1583 19.9417 12.0298 19.7097 11.8877 19.4297C11.7493 19.1479 11.6329 18.906 11.6329 18.8926C11.6342 18.8792 11.8524 18.8701 12.1241 18.8701H12.6114L13.0664 18.334C13.3135 18.0424 13.5215 17.8027 13.5352 17.7969ZM18.4258 17.7969C18.446 17.7998 18.6636 18.0445 18.9122 18.3379L19.3721 18.8789L19.8594 18.8477C20.1259 18.8299 20.3444 18.8344 20.3467 18.8477C20.3467 18.9013 19.7937 19.9415 19.7657 19.9395C19.7523 19.9395 19.3146 19.6708 18.792 19.3398C18.2694 19.0133 17.8269 18.7312 17.8135 18.7178C17.7909 18.6854 18.3813 17.7969 18.4258 17.7969ZM16.4483 18.0146C16.6977 18.3001 16.8898 18.5372 16.8731 18.543C16.7748 18.5653 15.8411 18.5736 15.4971 18.5557L15.086 18.5342L15.5372 18.0146L15.9883 17.4961L16.4483 18.0146ZM17.9952 16.5547C18.0934 16.7783 18.1107 17.3639 18.0215 17.5342C17.968 17.6324 17.4518 18.3325 17.4278 18.335C17.4233 18.335 17.2174 18.0892 16.9717 17.7939C16.7265 17.4993 16.4815 17.1957 16.4229 17.1279L16.3243 17.002L17.1153 16.6846L17.9102 16.3672L17.9952 16.5547ZM12.5782 17.6855L12.7032 17.9854L12.5645 18.1602C12.4351 18.3255 12.4126 18.3345 12.1983 18.3301C12.0687 18.3256 11.9075 18.3118 11.836 18.2939L11.7071 18.2676L12.0772 17.8291L12.4483 17.3906L12.5782 17.6855ZM14.0606 16.4102C14.1554 16.4106 15.6105 17.0097 15.6016 17.041C15.5772 17.1059 14.5659 18.323 14.5342 18.3291C14.5164 18.3336 14.3645 18.15 14.1993 17.9219L13.8955 17.5146L13.8907 17.1523C13.8907 16.7946 13.9757 16.4102 14.0606 16.4102ZM19.4668 17.4062C19.4771 17.399 19.6509 17.5866 19.8555 17.8271L20.2217 18.2656L20.0918 18.292C20.0203 18.3098 19.8599 18.3237 19.7305 18.3281C19.5117 18.3326 19.4932 18.3237 19.3682 18.1494L19.2344 17.9697L19.3418 17.6973C19.3999 17.5452 19.4579 17.4152 19.4668 17.4062ZM19.2715 14.832C19.2849 14.8186 19.5129 15.3244 19.7764 15.9551C20.0444 16.5903 20.3172 17.2392 20.3887 17.4092C20.4597 17.5735 20.513 17.7064 20.5049 17.708C20.5005 17.708 20.2413 17.4088 19.9375 17.042C19.6344 16.6759 19.3714 16.3901 19.3526 16.4023C19.3392 16.4202 19.2231 16.6839 19.1026 16.9834C18.8882 17.5246 18.8835 17.5335 18.8164 17.4307C18.7496 17.3323 18.7625 17.2375 18.9991 16.0889C19.137 15.4116 19.2574 14.8451 19.2715 14.832ZM12.7022 14.8281C12.7159 14.8434 12.8403 15.4068 12.9786 16.0811C13.2194 17.2514 13.229 17.315 13.1534 17.4043C13.0819 17.4982 13.0727 17.4847 12.8672 16.9658C12.7511 16.6752 12.6394 16.4202 12.626 16.4023C12.6068 16.3863 12.3746 16.6322 12.1075 16.9531C11.6212 17.5294 11.4695 17.6907 11.5049 17.5928C11.63 17.2394 12.6843 14.8102 12.7022 14.8281ZM16.9854 11.8203L17.9815 12.3174L17.959 12.541C17.9456 12.6668 17.9232 13.4581 17.9053 14.3076L17.8789 15.8506L17.1817 16.1191C16.7975 16.2668 16.3729 16.4322 16.2344 16.4814L15.9893 16.5752L15.0469 16.2129L14.1036 15.8555L14.0723 14.3975C14.0544 13.5968 14.033 12.8043 14.0196 12.6299L13.9922 12.3174L14.9932 11.8203L15.9893 11.3242L16.9854 11.8203ZM13.5723 14.7852C13.5589 15.6169 13.5406 16.3012 13.5362 16.3057C13.53 16.301 13.4105 15.6912 13.2686 14.9453C13.1216 14.1827 13.0278 13.567 13.045 13.5459C13.0673 13.5235 13.2018 13.4513 13.3448 13.3887L13.6036 13.2773L13.5723 14.7852ZM18.6748 13.3984C18.815 13.4642 18.9337 13.5213 18.9424 13.5234C18.9514 13.5279 18.5856 15.4785 18.4561 16.1182C18.4471 16.1662 18.4251 16.0453 18.4073 15.8535C18.3717 15.4607 18.3622 13.2928 18.3975 13.2773C18.4064 13.2773 18.5364 13.3313 18.6748 13.3984ZM12.6416 10.2031C12.6638 10.2154 13.525 12.6658 13.5303 12.7393C13.5348 12.775 13.4008 12.8643 13.2178 12.9492L12.9004 13.0928L12.8018 12.748C12.7215 12.4664 12.6993 12.2246 12.668 11.3125C12.6501 10.7086 12.6372 10.2121 12.6416 10.2031ZM18.918 11.377C19.2529 10.4379 19.3606 10.1824 19.3428 10.3477C19.3339 10.4729 19.3113 10.9967 19.2979 11.5156C19.2756 12.316 19.2578 12.5041 19.1729 12.7725L19.0704 13.085L18.7442 12.9375C18.4857 12.817 18.4269 12.7724 18.4444 12.71C18.4578 12.6652 18.6724 12.0657 18.918 11.377ZM16.6983 7.27539L17.418 7.62891L17.6592 9.65039C17.7887 10.7636 17.8825 11.6848 17.8692 11.6992C17.8558 11.7126 17.4311 11.5291 16.9219 11.292C16.042 10.8716 16.0018 10.8584 15.8633 10.9121C15.7827 10.9435 15.3944 11.1267 14.9971 11.3145C14.163 11.712 14.0901 11.7393 14.0899 11.6592C14.0899 11.6279 14.1928 10.7057 14.3223 9.61426L14.5547 7.63281L15.2647 7.27539L15.9795 6.92188L16.6983 7.27539ZM14.2129 5.60156C14.2397 5.62832 13.9914 7.14082 13.959 7.14941C13.9457 7.14941 13.9097 7.13167 13.8741 7.10938C13.8205 7.07359 13.8422 6.94793 14.003 6.32617C14.1087 5.92046 14.2018 5.60186 14.2129 5.60156ZM17.7627 5.60156C17.7717 5.59262 17.87 5.91922 17.9727 6.32617C18.1335 6.94346 18.1556 7.07806 18.1065 7.10938C18.0709 7.13163 18.0349 7.14941 18.0215 7.14941C18.0072 7.14274 17.9409 6.80099 17.8702 6.38477C17.8032 5.9643 17.7538 5.61498 17.7627 5.60156ZM15.5323 2.52148C16.037 2.33363 15.9345 2.32887 16.6358 2.59277L16.9707 2.72266L17.1407 4.81152C17.2343 5.96396 17.3099 6.92908 17.3057 6.96289C17.3057 6.99419 17.0331 6.88279 16.6358 6.68164L15.9659 6.3457L15.295 6.68164C14.9289 6.86491 14.625 7.00324 14.625 6.98535C14.6117 6.7842 15.0074 2.75769 15.045 2.71387C15.0673 2.70045 15.2866 2.61095 15.5323 2.52148ZM17.7364 5.44238C17.7497 5.47368 17.7458 5.51394 17.7325 5.52734C17.7191 5.54499 17.7055 5.51784 17.71 5.46875C17.71 5.41967 17.723 5.40664 17.7364 5.44238Z" fill="var(--fill-0, #1F2026)"/>
<path id="Union_3" d="M44.4651 13.4511H49.2961L50.2873 10.3994H53.3186L48.7053 23.7812H45.0598L40.4397 10.3994H43.4719L44.4651 13.4511ZM67.7551 13.5859L68.508 14.4463L71.2444 10.3994H74.5051L70.592 16.0879L74.3156 20.4355H71.1203L67.9055 16.6259H67.7551V23.7812H64.9709V10.3994H67.7551V13.5859ZM83.2971 13.4511H88.1281L89.1194 10.3994H92.1506L87.5383 23.7812H83.8918L79.2717 10.3994H82.3039L83.2971 13.4511ZM147.667 10.2363C148.207 10.2363 148.665 10.3254 149.039 10.5039C149.418 10.6825 149.726 10.9067 149.961 11.1767C150.201 11.4511 150.386 11.728 150.517 12.0068H150.634V10.3994H153.378V23.7812H150.602V18.75H150.517C150.395 19.02 150.216 19.2945 149.981 19.5732C149.75 19.8563 149.445 20.092 149.066 20.2793C148.691 20.4707 148.223 20.5663 147.661 20.5664C146.925 20.5663 146.248 20.3744 145.629 19.9912C145.015 19.6122 144.523 19.039 144.153 18.2724C143.782 17.5102 143.597 16.5541 143.597 15.4043C143.597 14.2849 143.775 13.3393 144.132 12.5683C144.494 11.8019 144.982 11.2206 145.596 10.8242C146.214 10.4322 146.905 10.2364 147.667 10.2363ZM46.8303 20.7236H46.9348L48.5793 15.6591H45.1828L46.8303 20.7236ZM85.6623 20.7236H85.7668L87.4114 15.6591H84.0149L85.6623 20.7236ZM117.462 16.08C117.462 16.4894 117.554 16.8514 117.737 17.165C117.924 17.4784 118.177 17.7223 118.494 17.8964C118.817 18.075 119.183 18.164 119.592 18.164C119.784 18.164 119.995 18.1486 120.226 18.1181C120.457 18.0877 120.638 18.0528 120.769 18.0136V20.4843C120.647 20.5148 120.505 20.5382 120.344 20.5556C120.183 20.573 120.032 20.582 119.893 20.582C119.331 20.5819 118.835 20.4207 118.404 20.0986C117.972 19.7807 117.665 19.3101 117.482 18.6875H117.377V20.4384H114.679V10.4013H117.462V16.08ZM58.7522 10.2031C59.6233 10.2031 60.3924 10.3408 61.0588 10.6152C61.7295 10.894 62.2566 11.2818 62.6399 11.7783C63.0275 12.2748 63.2219 12.852 63.2219 13.5097C63.2218 14.2326 62.9822 14.8165 62.5031 15.2607C62.024 15.7049 61.2961 16.0271 60.3205 16.2275L58.5041 16.5937C58.0381 16.6939 57.7085 16.8266 57.5168 16.9922C57.3254 17.1576 57.2298 17.3602 57.2297 17.5996C57.2297 17.9001 57.378 18.1397 57.674 18.3183C57.9701 18.5012 58.3338 18.5927 58.7649 18.5927C59.0871 18.5927 59.3641 18.5385 59.5949 18.4297C59.8301 18.3251 60.0196 18.1834 60.1633 18.0048C60.307 17.8307 60.401 17.6347 60.4446 17.417L62.9924 17.5732C62.8704 18.4967 62.4439 19.2269 61.7121 19.7627C60.9847 20.2984 59.9865 20.5664 58.719 20.5664C57.8612 20.5663 57.112 20.44 56.4719 20.1875C55.8361 19.9348 55.3413 19.5753 54.9885 19.1093C54.6401 18.6434 54.4661 18.0878 54.466 17.4433C54.466 16.6941 54.7032 16.0772 55.178 15.5937C55.657 15.1103 56.3866 14.7702 57.3664 14.5742L59.1047 14.2285C59.5402 14.1414 59.8634 14.015 60.0725 13.8496C60.2815 13.6884 60.3875 13.4811 60.3918 13.2285C60.3875 12.9279 60.2353 12.6819 59.9348 12.4902C59.6387 12.303 59.2467 12.209 58.759 12.2089C58.2625 12.209 57.8543 12.3134 57.5364 12.5224C57.2186 12.7358 57.0186 13.0454 56.9358 13.4502L54.1975 13.3066C54.3325 12.3485 54.7925 11.5907 55.5764 11.0332C56.3648 10.48 57.4236 10.2031 58.7522 10.2031ZM137.544 10.2031C138.372 10.2031 139.102 10.3294 139.734 10.582C140.369 10.8389 140.888 11.1962 141.288 11.6533C141.693 12.115 141.961 12.6558 142.092 13.2744L139.518 13.4443C139.422 13.1917 139.283 12.9779 139.1 12.8037C138.917 12.6295 138.697 12.4992 138.44 12.4121C138.183 12.325 137.899 12.2812 137.59 12.2812C137.124 12.2813 136.721 12.3792 136.381 12.5752C136.042 12.7711 135.778 13.0499 135.591 13.4111C135.408 13.7725 135.317 14.2019 135.317 14.6982V14.705H142.151V15.4697C142.151 16.3234 142.031 17.0681 141.791 17.7041C141.552 18.3444 141.217 18.8763 140.785 19.2988C140.359 19.7212 139.857 20.037 139.282 20.2461C138.712 20.4594 138.096 20.5663 137.434 20.5664C136.449 20.5663 135.59 20.3486 134.859 19.9131C134.131 19.4775 133.567 18.8695 133.166 18.0898C132.766 17.3102 132.566 16.4042 132.566 15.372C132.566 14.3137 132.766 13.3963 133.166 12.6211C133.567 11.8501 134.138 11.2526 134.878 10.83C135.623 10.4119 136.512 10.2032 137.544 10.2031ZM158.527 10.2099C159.023 10.2099 159.461 10.2756 159.84 10.4062C160.219 10.5412 160.544 10.7258 160.814 10.9609C161.084 11.2005 161.3 11.4774 161.461 11.791H161.539V10.3994H164.179V17.1689C164.179 17.7655 164.063 18.2773 163.832 18.7041C163.601 19.1352 163.286 19.4883 162.885 19.7627C162.489 20.0369 162.034 20.2394 161.52 20.3701C161.01 20.5007 160.476 20.5664 159.918 20.5664C159.117 20.5663 158.412 20.444 157.802 20.2002C157.197 19.9606 156.702 19.6165 156.319 19.1679C155.935 18.7237 155.678 18.1966 155.547 17.5869L158.121 17.3779C158.217 17.7088 158.414 17.9834 158.71 18.2011C159.006 18.4231 159.405 18.5341 159.905 18.5341C160.38 18.5341 160.746 18.4207 161.003 18.1943C161.264 17.9679 161.396 17.6479 161.396 17.2343V17.1943C161.396 16.981 161.315 16.8197 161.154 16.7109C160.992 16.6021 160.733 16.5194 160.376 16.4629C160.019 16.4106 159.548 16.3539 158.965 16.2929C158.469 16.245 157.993 16.1625 157.54 16.0449C157.092 15.9273 156.691 15.7531 156.338 15.5224C155.985 15.2916 155.706 14.9863 155.501 14.6074C155.296 14.2284 155.195 13.7596 155.195 13.2021C155.195 12.5403 155.338 11.9871 155.625 11.5429C155.917 11.1031 156.314 10.7694 156.815 10.5429C157.315 10.3208 157.886 10.21 158.527 10.2099ZM94.1711 6.63766C94.8591 6.63771 95.4471 6.74863 95.9348 6.97067C96.4226 7.18846 96.8258 7.50017 97.1438 7.90524C97.4661 8.30595 97.7211 8.77631 97.9084 9.31637L101.809 20.4375H98.8625L96.7649 13.0673H96.6604L94.5822 20.4375H91.6555L95.2551 10.1132L95.092 9.68844C94.9701 9.37518 94.8112 9.15309 94.6155 9.02243C94.4238 8.89181 94.1946 8.8311 93.9289 8.83981C93.6677 8.84854 93.3736 8.90278 93.0471 9.00289L92.4192 6.92477C92.6195 6.84202 92.8731 6.77489 93.178 6.72262C93.4871 6.66605 93.8185 6.63767 94.1711 6.63766ZM106.631 10.2705C107.384 10.2705 108.023 10.4487 108.545 10.8056C109.072 11.1628 109.449 11.6357 109.676 12.2236H109.78V10.4013H112.453V20.4375H109.669V14.6748C109.674 14.2261 109.585 13.8488 109.402 13.5439C109.223 13.239 108.987 13.0083 108.696 12.8515C108.404 12.6992 108.09 12.623 107.755 12.623C107.228 12.6231 106.807 12.7946 106.493 13.1386C106.18 13.4827 106.021 13.9516 106.017 14.5439V20.4375H103.234V14.0468C103.238 13.263 103.381 12.5901 103.664 12.0283C103.952 11.4664 104.351 11.0324 104.861 10.7275C105.37 10.4228 105.96 10.2705 106.631 10.2705ZM131.872 20.4375H128.925L126.847 13.2568H126.742L124.658 20.4375H121.718L125.227 10.4013H128.363L131.872 20.4375ZM135.321 16.4306C135.337 16.7908 135.428 17.1198 135.597 17.417C135.78 17.7436 136.033 18.0026 136.356 18.1943C136.682 18.3901 137.057 18.4882 137.479 18.4882C137.884 18.4882 138.239 18.3992 138.544 18.2207C138.853 18.0464 139.096 17.8043 139.27 17.4951C139.444 17.186 139.53 16.8311 139.53 16.4306H135.321ZM148.55 12.4511C148.093 12.4512 147.706 12.575 147.393 12.8232C147.084 13.0758 146.846 13.4249 146.681 13.8691C146.52 14.3177 146.439 14.8343 146.439 15.4179C146.439 15.997 146.52 16.5065 146.681 16.9463C146.842 17.386 147.079 17.7302 147.393 17.9785C147.706 18.2267 148.093 18.3515 148.55 18.3515C148.998 18.3515 149.38 18.2316 149.694 17.9922C150.007 17.7526 150.247 17.4125 150.412 16.9726C150.578 16.5328 150.66 16.0145 150.66 15.4179C150.66 14.8212 150.575 14.2998 150.405 13.8554C150.24 13.4114 150 13.0656 149.687 12.8173C149.378 12.5735 148.998 12.4512 148.55 12.4511ZM159.324 12.1308C158.898 12.1309 158.545 12.2289 158.266 12.4248C157.992 12.6251 157.854 12.915 157.854 13.2939C157.854 13.5552 157.922 13.773 158.057 13.9472C158.192 14.1257 158.381 14.2675 158.625 14.372C158.869 14.4765 159.154 14.5527 159.481 14.6006C159.633 14.6223 159.803 14.6467 159.99 14.6728C160.178 14.7033 160.365 14.7357 160.552 14.7705C160.739 14.8097 160.908 14.851 161.056 14.8945C161.208 14.9424 161.328 14.9952 161.415 15.0517V13.9863C161.415 13.6335 161.325 13.3178 161.147 13.039C160.968 12.7603 160.722 12.5375 160.408 12.372C160.095 12.2111 159.733 12.1309 159.324 12.1308Z" fill="var(--fill-0, #1F2026)"/>
</g>
</svg>
