<svg preserveAspectRatio="xMidYMid meet" overflow="visible" style="display: block;" viewBox="0 0 104.101 32" fill="none" xmlns="http://www.w3.org/2000/svg">
<g id="SVG Image 1 (8) 1" clip-path="url(#clip0_0_283)">
<path id="Union" d="M5.06895 24.6962C5.84158 22.253 9.99323 21.3086 14.3375 22.5673C18.6817 23.8447 21.559 26.8631 20.7867 29.3065C19.9948 31.7497 15.8429 32.7124 11.5182 31.4355C7.17378 30.1581 4.29673 27.1398 5.06895 24.6962ZM58.3326 27.6669L60.1637 22.9696H61.4381L57.857 31.998H56.6617L57.7301 29.1942L55.1061 22.9696H56.4156L58.3326 27.6669ZM28.6256 26.8993C30.6529 25.1223 32.4691 23.9011 32.7779 24.2157C33.0833 24.533 31.7516 26.2902 29.7457 28.0653C27.719 29.8419 25.788 30.9152 25.4781 30.5829C25.1707 30.2674 26.6183 28.6572 28.6256 26.8993ZM51.8961 22.7968C52.4771 22.7968 52.9821 22.893 53.4107 23.0858C53.8427 23.2748 54.1588 23.5764 54.359 23.9892C54.463 24.1934 54.5278 24.4092 54.5514 24.6366C54.5757 24.8642 54.5875 25.1098 54.5875 25.372V29.2206H53.4772V28.3124C53.2483 28.6251 52.9777 28.8705 52.6656 29.0468C52.2535 29.2782 51.7438 29.3944 51.1393 29.3944C50.6591 29.3944 50.2559 29.3093 49.9313 29.1396C49.6068 28.966 49.3611 28.7374 49.193 28.456C49.0286 28.1706 48.9469 27.8578 48.9469 27.5185C48.9469 27.2024 49.0045 26.9245 49.1207 26.6855C49.2366 26.4463 49.4088 26.2429 49.6373 26.0771C49.8654 25.9074 50.146 25.771 50.4781 25.6669C50.767 25.5859 51.0935 25.5147 51.4576 25.453C51.8224 25.3912 52.2051 25.3332 52.6051 25.2792C52.8539 25.246 53.1016 25.2118 53.3473 25.1786C53.3284 24.7797 53.2208 24.4777 53.025 24.2724C52.805 24.0335 52.4251 23.9141 51.8854 23.914C51.5449 23.914 51.2314 23.9911 50.9469 24.1454C50.6626 24.2959 50.4649 24.5465 50.3531 24.8974L49.1813 24.5507C49.3414 24.0144 49.6457 23.5867 50.0943 23.2704C50.547 22.9543 51.1479 22.7968 51.8961 22.7968ZM75.7106 22.7968C76.3715 22.7968 76.9336 22.9451 77.3981 23.2421C77.8633 23.5353 78.2093 23.954 78.4371 24.498C78.6694 25.042 78.7623 25.6889 78.7145 26.4374H73.8824C73.9276 26.9611 74.0784 27.3796 74.3404 27.6923C74.6566 28.0665 75.1135 28.2538 75.7106 28.2538C76.1027 28.2538 76.4408 28.1686 76.7252 27.9989C77.0133 27.8254 77.2384 27.5788 77.3981 27.2587L78.6305 27.6347C78.3784 28.1941 77.9953 28.6287 77.483 28.9374C76.9704 29.242 76.3994 29.3944 75.7701 29.3944C75.1258 29.3944 74.5587 29.259 74.0699 28.9892C73.5857 28.7152 73.2065 28.3345 72.9342 27.8485C72.6663 27.3586 72.5318 26.7906 72.5318 26.1464C72.532 25.464 72.6646 24.8722 72.9283 24.371C73.197 23.8696 73.569 23.4808 74.0455 23.2069C74.5221 22.9332 75.078 22.7968 75.7106 22.7968ZM94.733 22.7968C95.2291 22.7968 95.6717 22.872 96.0602 23.0224C96.448 23.1727 96.7627 23.3865 97.0025 23.664C97.2428 23.9377 97.3873 24.2606 97.4352 24.6308L96.151 24.8573C96.1068 24.5565 95.9595 24.319 95.7115 24.1454C95.4631 23.9719 95.141 23.8778 94.7447 23.8622C94.3642 23.8468 94.0548 23.9079 93.819 24.0468C93.5828 24.1817 93.4645 24.3692 93.4645 24.6083C93.4645 24.7469 93.5086 24.8646 93.5963 24.9608C93.6887 25.0572 93.8656 25.1504 94.1256 25.2392C94.3858 25.3278 94.7706 25.4332 95.2789 25.5565C95.8237 25.6916 96.2562 25.842 96.5768 26.0077C96.897 26.1698 97.1252 26.3661 97.2613 26.5937C97.4014 26.8174 97.4713 27.0891 97.4713 27.4091C97.4713 28.0263 97.2377 28.5111 96.7691 28.8622C96.3047 29.213 95.6609 29.3885 94.8404 29.3886C94.0517 29.3885 93.4087 29.22 92.9127 28.8847C92.4158 28.5491 92.1105 28.0762 91.9986 27.4667L93.2848 27.2763C93.3651 27.6 93.5483 27.8568 93.8365 28.0458C94.1287 28.2309 94.4921 28.3231 94.9244 28.3231C95.317 28.3231 95.6233 28.2459 95.8434 28.0917C96.0675 27.9373 96.1803 27.7251 96.1803 27.455C96.1802 27.2971 96.1398 27.1695 96.0602 27.0731C95.9838 26.973 95.8213 26.8785 95.5729 26.7899C95.3249 26.7013 94.9468 26.5909 94.4391 26.4599C93.8823 26.3211 93.4392 26.1717 93.1109 26.0136C92.7863 25.8516 92.5529 25.6652 92.4127 25.453C92.2767 25.237 92.2086 24.9764 92.2086 24.6718C92.2086 24.2937 92.3128 23.9632 92.5211 23.6815C92.7294 23.3999 93.0226 23.1825 93.399 23.0282C93.7795 22.874 94.2241 22.7968 94.733 22.7968ZM89.0621 22.9696H90.9908V23.9433H89.0621V26.703C89.0621 26.9537 89.0639 27.1722 89.068 27.3573C89.0761 27.542 89.1181 27.6979 89.194 27.8251C89.3382 28.0642 89.5672 28.2013 89.8795 28.2362C90.1955 28.267 90.5667 28.2531 90.9908 28.1952V29.2206C90.5825 29.2977 90.1817 29.3308 89.7897 29.3192C89.3972 29.3076 89.0462 29.2345 88.7379 29.0995C88.4299 28.9645 88.1981 28.7511 88.0416 28.4618C87.9014 28.2034 87.8243 27.9409 87.8121 27.6747C87.804 27.4048 87.8004 27.0998 87.8004 26.7606V23.9433H86.5572V22.9696H87.8004V21.2333H89.0621V22.9696ZM45.7828 20.8983C45.9065 20.9022 46.0243 20.9133 46.1363 20.9325C46.617 21.0058 47.0179 21.165 47.3385 21.4081C47.6626 21.6511 47.905 21.9578 48.065 22.328C48.2254 22.6982 48.3052 23.1073 48.3053 23.5546C48.3052 24.0057 48.2254 24.4168 48.065 24.787C47.905 25.1572 47.6625 25.464 47.3385 25.7069C47.0179 25.95 46.617 26.1091 46.1363 26.1825C46.0242 26.1979 45.9039 26.2099 45.776 26.2177C45.652 26.2253 45.5504 26.2284 45.4703 26.2284H43.2291V29.2206H41.9732V20.8866H45.4703C45.5541 20.8866 45.6586 20.8907 45.7828 20.8983ZM69.2096 22.8134C69.9103 22.8135 70.4534 23.0162 70.8375 23.4208C71.2221 23.8259 71.4146 24.3648 71.4147 25.036L71.4078 29.2206H70.1529L70.1588 25.3251C70.1587 24.874 70.0386 24.5231 69.7984 24.2724C69.5586 24.0179 69.2417 23.8906 68.8492 23.8905C68.609 23.8906 68.3886 23.9447 68.1881 24.0526C67.9924 24.1568 67.8316 24.3151 67.7076 24.5272C67.5874 24.7354 67.528 24.9974 67.5279 25.3134L67.5221 29.2206H66.2662L66.2721 25.3485C66.272 24.8936 66.1514 24.5367 65.9117 24.2782C65.675 24.0198 65.3564 23.8905 64.9557 23.8905C64.5595 23.8906 64.239 24.0219 63.9947 24.2841C63.7547 24.5462 63.6345 24.8894 63.6344 25.3134V29.2206H62.3727V22.9696H63.4908V23.6415C63.6738 23.4181 63.8995 23.2347 64.1686 23.0917C64.5174 22.9065 64.9117 22.8134 65.3522 22.8134C65.813 22.8134 66.2062 22.9085 66.5309 23.0976C66.8351 23.2713 67.0691 23.5129 67.2359 23.8192C67.4373 23.5081 67.7052 23.2651 68.0387 23.0917C68.3871 22.9067 68.7778 22.8134 69.2096 22.8134ZM83.1481 22.8026C83.5965 22.8027 83.9732 22.8719 84.2779 23.0106C84.5822 23.1495 84.8292 23.333 85.0172 23.5605C85.2092 23.7842 85.3556 24.0297 85.4557 24.2958C85.5557 24.5618 85.6237 24.8226 85.6598 25.0771C85.6958 25.3315 85.7135 25.5552 85.7135 25.748V29.2206H84.44V26.1464C84.44 25.9037 84.4178 25.6546 84.3736 25.4003C84.3335 25.1421 84.2536 24.9032 84.1334 24.6835C84.0176 24.4638 83.8511 24.2862 83.6354 24.1513C83.423 24.0163 83.1443 23.9481 82.7994 23.9481C82.5755 23.9482 82.3634 23.9853 82.1637 24.0585C81.963 24.128 81.7854 24.2421 81.6334 24.4003C81.4855 24.5583 81.3681 24.7665 81.2799 25.0243C81.196 25.2827 81.153 25.5976 81.1529 25.9677V29.2206H79.8795V22.9696H81.0035V23.7226C81.1839 23.5017 81.3994 23.3156 81.652 23.1669C82.0641 22.9238 82.5634 22.8027 83.1481 22.8026ZM52.6656 26.287C52.3416 26.3333 52.0465 26.3794 51.7828 26.4257C51.5223 26.4681 51.2888 26.5202 51.0846 26.5819C50.913 26.6397 50.7587 26.709 50.6227 26.7899C50.4906 26.8709 50.3841 26.9692 50.3043 27.0849C50.2286 27.2006 50.1901 27.3419 50.19 27.5077C50.1901 27.6696 50.2322 27.8201 50.316 27.9589C50.4003 28.0938 50.5291 28.2011 50.7008 28.2821C50.873 28.3632 51.0938 28.4042 51.3619 28.4042C51.7179 28.4042 52.0244 28.344 52.2809 28.2245C52.5373 28.101 52.7436 27.9448 52.9 27.7558C53.0559 27.5669 53.1584 27.3703 53.2066 27.1659C53.2747 26.9808 53.3122 26.7721 53.3199 26.5409C53.3268 26.4092 53.3277 26.2921 53.3307 26.1903C53.0946 26.2245 52.8726 26.2575 52.6656 26.287ZM20.5172 17.4022C22.4481 14.2741 26.1935 12.9596 28.858 14.4589C31.5416 15.9585 32.1207 19.7348 30.19 22.8632C28.2592 25.9913 24.5138 27.3056 21.8492 25.8065C19.1846 24.3071 18.5863 20.5492 20.5172 17.4022ZM75.7584 23.8681C75.1291 23.8681 74.6565 24.0584 74.3404 24.4403C74.1185 24.7078 73.9771 25.0591 73.9107 25.4931H77.4274C77.3707 25.0179 77.2369 24.6498 77.026 24.3886C76.7496 24.0414 76.3265 23.8681 75.7584 23.8681ZM43.2291 25.0829H45.4225C45.5025 25.0829 45.5904 25.0787 45.6861 25.0712C45.7866 25.0634 45.8805 25.0494 45.9684 25.0302C46.2244 24.9724 46.4301 24.866 46.5865 24.7118C46.7425 24.5537 46.8563 24.3731 46.9244 24.1689C46.9925 23.9645 47.0259 23.759 47.026 23.5546C47.0259 23.3504 46.9924 23.1475 46.9244 22.9472C46.8563 22.7427 46.7426 22.5634 46.5865 22.4091C46.4301 22.2511 46.2243 22.1427 45.9684 22.0849C45.8805 22.0618 45.7865 22.0467 45.6861 22.039C45.5904 22.0313 45.5025 22.0273 45.4225 22.0272H43.2291V25.0829ZM1.18809 14.3847C2.21127 14.2379 3.40743 16.2745 3.87071 18.9765C4.33385 21.6782 3.89059 23.9915 2.86778 24.1591C1.84446 24.3071 0.64667 22.2708 0.18321 19.5683C-0.280167 16.8841 0.164742 14.5513 1.18809 14.3847ZM34.4957 14.0331C35.3254 14.1638 35.6727 16.1252 35.2867 18.4013C34.9006 20.6961 33.9355 22.4362 33.1246 22.3261C32.3139 22.1961 31.9465 20.2336 32.3326 17.9569C32.7187 15.6622 33.6847 13.9226 34.4957 14.0331ZM47.1031 18.6649H41.5065V2.66494H47.1031V18.6649ZM60.1627 8.99893V2.66494H73.2193L76.0182 5.66494L78.817 2.66494H90.942L93.7408 6.08682L96.5387 2.66494H104.001L97.4713 10.6649L96.5387 11.9101V18.6649H90.942V11.9101L90.0094 10.6649L84.7857 4.26553L78.817 10.6649L86.2779 18.6649H78.817L76.0182 15.6649L73.2193 18.6649H60.1627V18.6425L55.4996 12.3095V18.6649H49.902V2.66494H55.4996L60.1627 8.99893ZM65.7584 18.663L73.2193 10.6649L65.7584 2.6669V18.663ZM8.29356 1.51944C13.391 -1.27545 19.5895 -0.10915 22.1383 4.14834C24.7057 8.40587 22.6396 14.1266 17.5426 16.9218C12.4452 19.7169 6.2468 18.5502 3.69786 14.2929C1.12976 10.0352 3.19603 4.31473 8.29356 1.51944ZM24.1656 0.464749C25.5561 -0.534114 28.8004 1.33609 31.4068 4.64932C33.9936 7.96237 34.978 11.4608 33.5885 12.4608C32.1984 13.4602 28.9547 11.5904 26.3482 8.27725C23.7416 4.96373 22.7562 1.46448 24.1656 0.464749Z" fill="var(--fill-0, #1F2026)"/>
</g>
<defs>
<clipPath id="clip0_0_283">
<rect width="104.101" height="32" fill="white"/>
</clipPath>
</defs>
</svg>
