<svg preserveAspectRatio="none" width="100%" height="100%" overflow="visible" style="display: block;" viewBox="0 0 14.8333 18.1667" fill="none" xmlns="http://www.w3.org/2000/svg">
<g id="Group">
<path id="Vector" d="M4.08333 7.41667H10.75M4.08333 14.0833H10.75M4.08333 10.75H7.41667M0.75 16.9167V1.25C0.75 1.11739 0.802678 0.990215 0.896447 0.896447C0.990215 0.802678 1.11739 0.75 1.25 0.75H10.96C11.0926 0.750117 11.2197 0.802872 11.3133 0.896667L13.9367 3.52C13.9833 3.56658 14.0203 3.62193 14.0454 3.68285C14.0706 3.74378 14.0835 3.80908 14.0833 3.875V16.9167C14.0833 16.9823 14.0704 17.0473 14.0453 17.108C14.0201 17.1687 13.9833 17.2238 13.9369 17.2702C13.8905 17.3166 13.8353 17.3535 13.7747 17.3786C13.714 17.4037 13.649 17.4167 13.5833 17.4167H1.25C1.18434 17.4167 1.11932 17.4037 1.05866 17.3786C0.997995 17.3535 0.942876 17.3166 0.896447 17.2702C0.850017 17.2238 0.813188 17.1687 0.78806 17.108C0.762933 17.0473 0.75 16.9823 0.75 16.9167Z" stroke="var(--stroke-0, #52535D)" stroke-width="1.5" stroke-linecap="round" stroke-linejoin="round"/>
<path id="Vector_2" d="M10.75 0.75V3.58333C10.75 3.71594 10.8027 3.84312 10.8964 3.93689C10.9902 4.03065 11.1174 4.08333 11.25 4.08333H14.0833" stroke="var(--stroke-0, #52535D)" stroke-width="1.5" stroke-linecap="round" stroke-linejoin="round"/>
</g>
</svg>
