<svg preserveAspectRatio="xMidYMid meet" width="109" height="32" viewBox="0 0 108.974 32" fill="none" xmlns="http://www.w3.org/2000/svg">
<path id="tala" d="M16 0C24.8366 0 32 7.16344 32 16C32 24.8366 24.8366 32 16 32C7.16348 32 0 24.8365 0 16C2.57705e-07 7.16347 7.16348 4.63004e-05 16 0ZM66.4307 8.13867C68.0887 8.13868 69.5665 8.34906 70.8633 8.76953C72.16 9.18361 73.2575 9.78824 74.1543 10.584C75.0511 11.3732 75.7341 12.3446 76.2051 13.4961C76.6759 14.6475 76.912 15.9575 76.9121 17.4258V30.1211H70.1768V24.7832C69.9509 25.6954 69.5985 26.517 69.1211 27.248C68.6501 27.9791 68.0725 28.6002 67.3887 29.1113C66.7113 29.6223 65.9396 30.0134 65.0752 30.2852C64.2174 30.5632 63.2887 30.703 62.2891 30.7031C61.2374 30.7031 60.2786 30.5501 59.4141 30.2461C58.556 29.9485 57.8166 29.5278 57.1973 28.9844C56.5846 28.4345 56.1098 27.7779 55.7744 27.0146C55.4391 26.245 55.2715 25.3909 55.2715 24.4531C55.2715 23.4247 55.4746 22.5058 55.8809 21.6973C56.2938 20.8821 56.8913 20.196 57.6719 19.6396C58.459 19.0833 59.4179 18.6583 60.5469 18.3672C61.6822 18.0697 62.9698 17.9209 64.4082 17.9209H70.1768V17.4258C70.1767 16.7598 70.0891 16.1678 69.915 15.6504C69.7473 15.1266 69.4954 14.6868 69.1602 14.3311C68.8313 13.969 68.4249 13.6935 67.9414 13.5059C67.4576 13.3183 66.8987 13.2247 66.2666 13.2246C65.6346 13.2246 65.0888 13.3052 64.6309 13.4668C64.1729 13.6285 63.7915 13.862 63.4883 14.166C63.1917 14.4636 62.9696 14.8327 62.8213 15.2725C62.6794 15.7059 62.6074 16.2006 62.6074 16.7568H55.9004C55.9004 15.4241 56.1421 14.227 56.626 13.166C57.1163 12.1051 57.817 11.203 58.7266 10.459C59.6362 9.70858 60.7395 9.13489 62.0361 8.74023C63.3395 8.3391 64.8047 8.13868 66.4307 8.13867ZM98.4922 8.13867C100.15 8.13874 101.627 8.34911 102.924 8.76953C104.22 9.18354 105.318 9.7884 106.215 10.584C107.111 11.3732 107.796 12.3447 108.267 13.4961C108.737 14.6475 108.974 15.9575 108.974 17.4258V30.1211H102.236V24.7832C102.011 25.6953 101.659 26.5171 101.182 27.248C100.711 27.9788 100.134 28.6003 99.4502 29.1113C98.7729 29.6223 98.0011 30.0134 97.1367 30.2852C96.2786 30.5634 95.3487 30.7031 94.3486 30.7031C93.2971 30.7031 92.3391 30.5501 91.4746 30.2461C90.6166 29.9485 89.8781 29.5278 89.2588 28.9844C88.6459 28.4345 88.1714 27.778 87.8359 27.0146C87.5006 26.2449 87.3321 25.391 87.332 24.4531C87.3321 23.4246 87.536 22.5059 87.9424 21.6973C88.3553 20.8821 88.9518 20.1961 89.7324 19.6396C90.5195 19.0833 91.4775 18.6583 92.6064 18.3672C93.7419 18.0696 95.0301 17.9209 96.4688 17.9209H102.236V17.4258C102.236 16.7598 102.151 16.1677 101.977 15.6504C101.809 15.1266 101.556 14.6868 101.221 14.3311C100.892 13.9688 100.485 13.6935 100.001 13.5059C99.5171 13.3183 98.9584 13.2246 98.3262 13.2246C97.6943 13.2247 97.1493 13.3052 96.6914 13.4668C96.2333 13.6285 95.8521 13.8619 95.5488 14.166C95.2522 14.4636 95.0292 14.8327 94.8809 15.2725C94.739 15.7058 94.6689 16.2007 94.6689 16.7568H87.9619C87.9619 15.424 88.2036 14.2271 88.6875 13.166C89.1778 12.1052 89.8776 11.2029 90.7871 10.459C91.6969 9.70845 92.8007 9.13491 94.0977 8.74023C95.4009 8.33915 96.8663 8.13867 98.4922 8.13867ZM42.5166 1.29688C43.1289 1.32653 43.9472 1.3026 44.5723 1.30273L48.6074 1.3125C48.6271 3.81536 47.8568 6.23252 45.9492 7.91992C45.8466 8.01065 45.8114 8.041 45.8008 8.0498C45.825 8.05003 46.4955 8.05629 46.9375 8.0498C47.7456 8.03799 48.5923 8.04562 49.3984 8.0459L54.8252 8.04688L54.8223 13.6865H48.6504C48.6493 13.74 48.6487 13.7941 48.6484 13.8477L48.6426 20.0576C48.6422 20.7713 48.5809 22.3232 48.6963 22.9785C49.0579 25.0288 52.5406 24.2166 53.8682 23.7842L53.8711 30.1797C53.7654 30.1815 53.6585 30.1823 53.5527 30.1826L49.8291 30.1904C48.9743 30.191 47.5233 30.2413 46.751 30.0566C45.8068 29.8297 44.943 29.3439 44.2539 28.6543C43.4882 27.8729 42.9514 26.8925 42.7051 25.8223C42.3987 24.5325 42.4889 22.0567 42.4902 20.6309L42.4922 13.6855H37.2236C37.2012 12.5717 37.2622 11.2592 37.1895 10.1738C37.94 9.85176 38.639 9.41717 39.2617 8.88574C41.7656 6.7551 42.2575 4.40458 42.5166 1.29688ZM85.7266 30.1191H78.9902V1.39258H85.7266V30.1191ZM15.9307 18.1484C14.7113 18.2383 13.6529 18.7404 12.8369 19.6611C12.3389 20.2233 12.0548 20.8869 11.7197 21.5557L10.8877 23.2158C10.4172 24.1547 9.85748 25.2028 9.42188 26.1455C10.6914 26.7979 12.0461 27.4829 13.3281 28.1094L15.2393 24.292C15.3722 24.0253 16.0288 22.657 16.1689 22.5166C16.249 22.5059 16.212 22.5016 16.2891 22.5322C16.4119 22.6726 16.7657 23.4318 16.876 23.6436C17.2861 24.4304 17.6763 25.2567 18.0898 26.04L21.9844 24.0703C21.6378 23.345 21.2526 22.6188 20.8975 21.8994C20.122 20.329 19.5664 19.049 17.75 18.4014C17.1672 18.1952 16.5478 18.1091 15.9307 18.1484ZM65.3174 21.5703C64.2339 21.5704 63.4142 21.7512 62.8594 22.1133C62.311 22.4691 62.0361 23.0008 62.0361 23.7061C62.0362 24.4109 62.3113 24.9576 62.8594 25.3457C63.4078 25.7337 64.1861 25.9287 65.1924 25.9287C65.9018 25.9287 66.5597 25.834 67.166 25.6465C67.7723 25.4524 68.299 25.1912 68.7441 24.8613C69.1891 24.5315 69.5375 24.1392 69.7891 23.6865C70.047 23.2338 70.1767 22.7446 70.1768 22.2207V21.5703H65.3174ZM97.3789 21.5703C96.2951 21.5703 95.4748 21.7511 94.9199 22.1133C94.3715 22.4691 94.0977 23.0008 94.0977 23.7061C94.0978 24.4111 94.3717 24.9576 94.9199 25.3457C95.4683 25.7338 96.2457 25.9286 97.252 25.9287C97.9617 25.9287 98.621 25.8341 99.2275 25.6465C99.8336 25.4525 100.36 25.1911 100.805 24.8613C101.25 24.5314 101.598 24.1393 101.85 23.6865C102.108 23.2337 102.236 22.7447 102.236 22.2207V21.5703H97.3789ZM24.5029 10.0068C23.9021 10.2902 23.2069 10.6519 22.6123 10.958C21.7232 11.4158 20.6955 11.8319 19.9688 12.5078C19.1984 13.2245 18.6282 14.3805 18.5889 15.4404C18.5776 15.6531 18.5679 15.8854 18.5869 16.0977C18.5786 16.3892 18.7151 16.9437 18.8057 17.2148C19.0613 17.9884 19.5263 18.6768 20.1484 19.2031C20.6628 19.6405 21.1326 19.8439 21.7236 20.1416L23.0117 20.7891L26.5771 22.5752C26.7651 22.2593 27.0593 21.6221 27.2344 21.2734L28.54 18.6719C28.103 18.4346 27.5755 18.1864 27.126 17.9609L24.5234 16.6523C24.2517 16.5162 23.1571 15.9885 22.9727 15.8447C22.9445 15.7848 22.9536 15.7953 22.958 15.7197C23.0716 15.5763 26.0466 14.1248 26.4648 13.9131C26.2909 13.5069 25.9744 12.9186 25.7656 12.5068L24.5029 10.0068ZM4.53027 11.6729C4.32749 12.0755 4.10396 12.5584 3.8916 12.9482C4.60481 13.3374 9.36549 15.6461 9.47949 15.8047C9.48476 15.8412 9.49895 15.8665 9.47559 15.8975C9.37338 16.0315 6.37493 17.508 5.95801 17.7188C6.50595 18.8491 7.11108 19.9642 7.66309 21.0938C7.74695 21.2653 7.83919 21.4495 7.93066 21.6172L8.2627 21.4502L10.2725 20.4336C10.7131 20.2125 11.3253 19.9274 11.7305 19.6768C12.6236 19.1252 13.2953 18.2774 13.6279 17.2822C14.0031 16.1416 13.9137 14.8988 13.3799 13.8232C13.0825 13.2298 12.6561 12.7095 12.1328 12.3008C11.6 11.8862 10.611 11.4372 9.97559 11.1201L7.27734 9.76172C6.81738 9.52958 6.3023 9.2872 5.85449 9.04199L4.53027 11.6729ZM19.0977 3.45996C18.5692 4.5794 17.9504 5.75205 17.3916 6.86426L16.6846 8.27344C16.5962 8.44984 16.4039 8.94669 16.2236 9.05371C16.2005 9.06709 16.1738 9.05249 16.1455 9.04395C16.0056 8.8621 15.6607 8.14118 15.5342 7.88965L14.3408 5.52441L11.7646 6.8291C11.3614 7.0331 10.8176 7.28701 10.4385 7.50391L11.6016 9.79395C11.9151 10.4173 12.2179 11.0952 12.625 11.6553C13.4171 12.641 14.4334 13.261 15.708 13.3975C16.9052 13.5338 18.1087 13.1837 19.0459 12.4268C19.3957 12.1423 19.702 11.8058 19.9521 11.4307C20.2714 10.9519 20.7761 9.87721 21.0518 9.3252L23.0078 5.42871C22.409 5.08134 21.5218 4.67237 20.8877 4.35156C20.3899 4.09974 19.5846 3.66858 19.0977 3.45996Z" fill="var(--fill-0, #1F2026)"/>
</svg>
